<svg id="Слой_1" data-name="Слой 1" xmlns="http://www.w3.org/2000/svg" viewBox="0 0 179 156"><defs><style>.cls-1{fill:#3a3d55;}.cls-2{fill:#08081a;}.cls-3{fill:#a0a2ab;}.cls-4{fill:#f1eff3;}.cls-5{fill:#fdfdfd;}</style></defs><title>Векторный смарт-объект</title><path class="cls-1" d="M114.63,147.07l-.92.89-2.47,1.12c-.54.15-1.09.25-1.61.45a9.89,9.89,0,0,0-1.67.8c-.75.46-1.45,1-2.17,1.5l-1.8.56-.52.19-1.79.37-.52.14-.77.09-.77.17-.51.09c-.43-.45-.81-.56-1,.19l-.52.08-.78.14-.76.09c-.5-.38-1-.63-1.26.22l-.54,0c-.5-.41-1-.64-1.27.2l-1,.09a5.63,5.63,0,0,0-1.14-.27c-3.47-.08-7-.08-10.42-.24-1.22-.06-2.45-.81-3.64-.73a4.92,4.92,0,0,1-3.08-.83,4.13,4.13,0,0,0-1.58-.79c-3.88-.31-7.21-2.19-10.7-3.62.31-.15.67-.47.93-.41,2.36.6,4.67,1.4,7,1.88,2.57.51,5.2.7,7.79,1.12a12.55,12.55,0,0,1,2.34.87c.19-.11.53-.48.89-.5,1,0,2,.07,2.93.09,1.79,0,3.64-.79,5.33.46.09.07.32-.06.49-.08l7.45-.89c.46-.05.93-.05,1.39-.12,2-.28,4-.71,6-.84,1.68-.1,3.12-.95,4.74-1.21a2,2,0,0,0,0-.31,2.42,2.42,0,0,0-.59-.05c-2.77.41-5.53.87-8.3,1.24-4.83.65-9.66,1.36-14.56,1-1.92-.14-3.86-.1-5.78-.25-2.44-.2-4.9-.41-7.32-.81a28.26,28.26,0,0,1-7-1.67,55,55,0,0,1-8.24-4.94c-3.53-2.42-6.9-5.07-10.36-7.59-1.52-1.11-3.09-2.15-4.64-3.23l-2.32-2-.11-.1.11.11,2.3,2.07a5.83,5.83,0,0,0,.89,1.2c1.32,1.06,2.8,2,4,3.11,1.74,1.63,3.32,3.44,5,5.18a2.4,2.4,0,0,0,.45.41c.35.21.71.39,1.21.67l1.09-.39-.6,1.39c-4.58-2-8.37-5.19-12.15-8.35-2.15-1.79-4.2-3.73-6.22-5.68a32.5,32.5,0,0,1-2.41-2.91l4,1.29s.07-.11,0-.16c-1.28-2.25-1.13-4.66-.69-7,.38-2,1.09-4,1.52-6,.53-2.45.93-4.93,1.35-7.4a11.65,11.65,0,0,1,.42-3c.64-1.34.07-2.15-.72-3,3.92.45,7.86.8,11.76,1.39A37.53,37.53,0,0,1,56,104.1v.52h0l-2.52-.31c.68.47,1.07.93,1.53,1,2.45.49,4.9,1,7.37,1.3,1,.13,1.14.57,1.06,1.35s-.2,1.67-.3,2.5l.2,0,.86-3.63c3.79.7,7.39,1.39,11,2,.32.06.71-.27,1.07-.42l.49.31.39,3.4a3,3,0,0,0,.67-1.22,1.34,1.34,0,0,1,1.94-.68,3.94,3.94,0,0,0,3.41.44c1.59-.32,3.32.1,5,.2,1.5.09,2.63.62,2.83,2.32a1,1,0,0,0,.76.14,3.87,3.87,0,0,0,.81-.8l.61,1a7.93,7.93,0,0,0,1.49.74c1,.26,2.07.4,3.11.59a15.25,15.25,0,0,0,1.82.54c.3.05.84,0,1-.23,1.13-2,2.28.43,3.44,0,.18-.07.75.66,1,1.11a5,5,0,0,1,.32,1.35,6.15,6.15,0,0,0-.52,1c-.43,1.39-.82,2.8-1.27,4.36l4.72,1,.65-.72-.06-.42-3.58-.39c0-.4,0-1,0-1.53.07-1.1.17-2.2.26-3.29.35-.19,1-.41,1-.57-.15-1.58.86-1.55,1.93-1.51.67,0,1.34,0,2,0a22.44,22.44,0,0,0-.51,2.7c0,.34.38.72.59,1.08l.39-.18.26-3.39c2.33,1,2.58,1.3,2.3,3.7a3,3,0,0,0,1.22,2.75l.85.74c-.26.28-.71.55-.73.85-.09,1.12,0,2.24,0,3.53,1.72-1.24,1.27-2.71,1-4.13a5.47,5.47,0,0,1,1.21.85c1.51,1.85,3.57,1.57,5.76,1.69a8.26,8.26,0,0,0-2.77-5.74c-1.37-1.39-2.65-2.67-2.65-4.76l.06-.09-.06.1-1-.15v-.41l2.51-.42a16.3,16.3,0,0,0-.7-2.86c-.38-.87-.26-1.31.65-1.41s2.07-.17,3.11-.18c.65,0,1.31.09,2,.15l.08-.41-4-.53v-.55c.83,0,1.65-.12,2.48-.14s1.77,0,2.49,0V105.8l-.46-.91c1.1-.57,1.33.63,1.7.81a11.35,11.35,0,0,1,.24,1.69,2.38,2.38,0,0,1-.35.93c-.31.62-.61,1.15.46,1.37s.9.76.18,1.3a3,3,0,0,0-1.44,2.25c-.07.9.23,1.26,1.08,1.31.55,0,1.09.1,1.64.16l1.56,1.1.11,1.35.71-1c2.56.35,4.89,1.22,7.36.75a13.9,13.9,0,0,0-7.81-1.74l0-.53,1.71-3.13.36,2.63h7.44c-.53-.47-.82-.94-1.12-.95-1.82,0-3.74-1.67-5.51.4a4.48,4.48,0,0,1,.25-1.43,1.9,1.9,0,0,0-.58-2.4c0-.71.09-1.42.14-2.13.07-.95.14-1.9.22-2.85l.48-.69a.22.22,0,0,0,.16-.14l.4-.22.16.17.31.24c-.29.38-.88.93-.8,1.08a4.81,4.81,0,0,0,1.23,1.07l-1.19.58h2.6l-.07-1.22,4.47,1.19.55-1.28,1.26.91c.94-1-.07-1.64-.07-2.31,0-1.69-1.21-1.85-2.25-2.36a3.26,3.26,0,0,1-.71-.66l.92-1.08-2-.11.81-2,.26-.26.29-.51,1-1.79,1.31-.48v3l1.08.58c.12-.5.2-.9.32-1.29A2,2,0,0,0,142,94.59l.71-1,2.07.28c-.11,2.52.13,5.09-1,7.47-.14.3-.62.42-.82.71s-.43.73-.32,1a5.29,5.29,0,0,0,1,1.26,3.49,3.49,0,0,1,1.08,2.85,1.41,1.41,0,0,0,.28,1c.7.88.44,1.31-.56,1.61a17,17,0,0,0-2,.85c-1.35.57-3.94-.21-4.58-1.33l-1.77.5a7.83,7.83,0,0,0,2.28,1.24,2.87,2.87,0,0,1,2.59,1.48c.57,1,.23,1.13-.25,1.69a1.42,1.42,0,0,0-.28,1.22c.64,1.33.44,1.7-1,1.89a2.25,2.25,0,0,0-1.25.65,9.84,9.84,0,0,0-1,1.66,2.07,2.07,0,0,1,.49.37,9.55,9.55,0,0,1,.71.93,3.73,3.73,0,0,1-.9.47c-1,.2-1,.71-.22,1.68-1.58-.49-1.56-2.52-3.35-2.2l2.88,3.33a3.39,3.39,0,0,1-3.81,1.16c-.92-.24-1.93-.16-2.87-.36a2.72,2.72,0,0,1-1.64-.75,23.61,23.61,0,0,1-1.61-3.28c-.64-1.4-1.25-2.8-1.88-4.21l-.4.16c.58,1.57,1.19,3.14,1.73,4.72.22.66.6,1.5.36,2s-1.16.66-1.81.75c-.91.13-1.68.06-1.43,1.45.13.7,0,1.31.69,1.84.28.21.27.92.26,1.41a8.65,8.65,0,0,1-1.48,4.61c-.85,1.35-1.38,2.9-2.12,4.32s-2.53,1.92-3,3.54c0,.12-.3.16-.41.28-.46.48-.91,1-1.34,1.47-.16.19-.21.55-.4.64-1.21.57-.43,2-1.19,2.74C114.36,146.67,114.54,146.92,114.63,147.07Zm.71-16c-.7-1.9-3.33-2.33-2.59-4.81-1.88,2-1.33,4.13,2.06,7.75l.62-.66.22,1.93a4.1,4.1,0,0,0,1.66-2.73c.17-1.22-.53-1.94-1.59-2.51ZM75,126.6a2.42,2.42,0,0,0,2.54,1.77,4.07,4.07,0,0,1,2.08.22,3.11,3.11,0,0,0,4-.6c-1.35-2.34-1.47-2.39-3.81-1.7-.12,0-.28.1-.36,0C78,125.36,76.56,126.25,75,126.6Zm38.79,13.24.23-.53a6.35,6.35,0,0,0-1-.55,7.6,7.6,0,0,1-1.47-.38c-3-1.87-6.4-2.15-9.8-2.34-.22,0-.46.34-.87.67C105.72,136.85,109.79,138.3,113.83,139.85ZM79.9,136.31l.08-.54c-2.73-.31-5.28-1.74-8.14-1.33l1.49,1.51c.2-.92.87-.76,1.68-.57C76.62,135.76,78.26,136,79.9,136.31Zm52.21-17.43.28-.5-1.67-1.27-.34.48ZM38.34,129l.17-.32-.78-.42-.17.32ZM142,101v-.13h-.39V101Z"/><path class="cls-2" d="M117.33,115.39c0,2.09,1.28,3.36,2.65,4.76a8.26,8.26,0,0,1,2.77,5.74c-2.18-.12-4.24.16-5.76-1.69a5.47,5.47,0,0,0-1.21-.85h0l-.26-.26h0l-.85-.74a3,3,0,0,1-1.22-2.75c.29-2.41,0-2.75-2.3-3.7l-.73-.21c-.67,0-1.34,0-2,0-1.07,0-2.08-.08-1.93,1.51,0,.16-.65.38-1,.57l-.21-.06a5,5,0,0,0-.32-1.35c-.24-.44-.81-1.17-1-1.11-1.16.43-2.31-2-3.44,0-.11.2-.65.29-1,.23a15.16,15.16,0,0,1-1.82-.54c-.66-.34-1.31-.71-2-1s-.71-.79-.56-1.38l.05-1.25,2.27-2.44c.92-.61,2.61.52,3.88-.64a6.51,6.51,0,0,0,1.22.79,8.1,8.1,0,0,0,1.55.28c.73,1.45.73,1.45,1.59.72l2.66-1h.33l.34.05,2.1.37,2.71.49-.33-2.7.69-.52c.8.06,1.32-.16,1.33-1.11a.87.87,0,0,1,.51-.63c.88-.28,1.79-.47,2.68-.69l.87.47.5-.83c1.38.42,2.36,1.07,2.07,2.8l.38-.2.15-1.81,1.3.14.44.05.46.91v2.67c-.71,0-1.6,0-2.49,0s-1.65.09-2.48.14v.55l4,.53-.08.41c-.65-.05-1.31-.16-2-.15-1,0-2.08.07-3.11.18s-1,.54-.65,1.41a16.3,16.3,0,0,1,.7,2.86l-2.51.42v.41l1,.15Z"/><path class="cls-2" d="M15.78,105a10.54,10.54,0,0,0-1.45,2.72c-.47,2.42-.66,4.9-1,7.34a27.8,27.8,0,0,1-.8,3.86c-.13.45-.73.76-1.11,1.14l-5.41-1,.17-1.31-2.41-.5-.14-.13-1.82-2.53.13-.24.37-.73-.11-.49L1.49,113l-.41-.17.88-1.7-.86-.29.76-1.08c2.66-.86,4.3-2.91,6-5a27.09,27.09,0,0,1,4.22-4.34,18.64,18.64,0,0,1,4.11-2c1.19-.52,2.41-1,3.62-1.5l1.06.69L21,98l-.18-.27.45-1.61,2.12-1.74,1-.43,1.27.65a6,6,0,0,0-2,2.63,8.81,8.81,0,0,1-1.81,2.06l-.58,1-1.07.68c-.91-.25-1.45-.12-1,1l-.06.07a4.68,4.68,0,0,0-1.25.13c-.25.09-.37.63-.6.68C16.1,103.05,15.9,104,15.78,105Zm.45-3.76c-.88-.31-1.48.29-1.25,2.07ZM2,112.21l.37.47,2.11-1.48-.33-.45Zm14.78-11.52v-.11h-.4v.11Z"/><path class="cls-2" d="M39.05,101.17c.79.87,1.36,1.69.72,3a11.65,11.65,0,0,0-.42,3c-.42,2.47-.82,4.95-1.35,7.4-.43,2-1.15,4-1.52,6-.45,2.38-.6,4.8.69,7,0,0,0,.15,0,.16l-4-1.29a5.18,5.18,0,0,0-5-2.37,1.39,1.39,0,0,1-1-.63c-.69-1.15,0-2.31.29-3.35.83-2.55,1.93-5,2.85-7.54a17.06,17.06,0,0,0,.52-2.6l.21-.67a5.18,5.18,0,0,0,.6-.87c.62-1.44,1.2-2.9,1.8-4.35l.42-.59.09-.45c.17,0,.44,0,.48-.08.34-.66.62-1.36.95-2,.2-.43.45-.84.8-1.49l.51,1.11,1.17-.35Z"/><path class="cls-3" d="M30.8,110a17.06,17.06,0,0,1-.52,2.6c-.92,2.52-2,5-2.85,7.54-.34,1-1,2.2-.29,3.35a1.39,1.39,0,0,0,1,.63,5.18,5.18,0,0,1,5,2.37,32.41,32.41,0,0,0,2.41,2.91c2,1.95,4.06,3.88,6.22,5.68,3.79,3.16,7.57,6.33,12.15,8.35h0l.76.51h0l.55.47.72.31.55.47h0l2,1.29L61.39,148c3.49,1.43,6.82,3.31,10.7,3.62a4.13,4.13,0,0,1,1.58.79,4.92,4.92,0,0,0,3.08.83c1.19-.08,2.41.67,3.64.73,3.47.17,6.95.16,10.42.24a5.66,5.66,0,0,1,1.14.26l0,.39-21.48-.07a8.18,8.18,0,0,0-.94-.44c-2.66-.87-5.4-1.56-8-2.64a35,35,0,0,1-5.35-3.19c-3.46-2.26-7-4.41-9.93-7.38a4.13,4.13,0,0,0-1.05-.57l-.18-.09-2.64-2.21-.18-.1-.52-.47h0l-1.33-1.21-.18-.11c-1.4-1.4-2.79-2.8-4.2-4.19-.1-.09-.31-.07-.48-.09h0l-1-1.07-.84-1c-.31-.54-.62-1.07-.92-1.61a4.19,4.19,0,0,0-4.21-2.32,8.69,8.69,0,0,1-2.14-.27c-.62-.13-1-.45-.61-1.19a6.52,6.52,0,0,0,.45-1.45c.38-1.62.63-3.27,1.13-4.85.76-2.37,1.67-4.7,2.57-7A7.31,7.31,0,0,1,30.8,110Z"/><path class="cls-2" d="M177.61,62.28c1.18.16,1,1.24,1.39,2.1l-1.61.75-.15,1.24a11.08,11.08,0,0,1-1.52.53,2.58,2.58,0,0,1-.88-.16h-1.07l-.77.09A19.4,19.4,0,0,0,171.88,65c-.19-.25-.6-.33-.91-.49a1.65,1.65,0,0,1-.57-1.26c0-.77.07-1.54.11-2.31l-.58,0a21.31,21.31,0,0,1,0,2.45c0,.38-.39.72-.61,1.08l-.45-1,.07-1.16.19-.54.13-.74.22-.52c.13-.21.41-.48.36-.63-.36-1-.76-2.07-1.19-3.09a12.48,12.48,0,0,1-1.16-2.63c-.33-2.07-.36-4.18-.66-6.25-.06-.38-.79-.66-1.22-1l-1-.81-5-5.25c-.5-1.83-2-1.19-3.19-1.3h-.07l0-.06-.82-.49.05,0,0,.05-1-.55-1.56-.93,1.16-.84-.84-.29h0l.07-1.48c1.41.93,2.77,1.94,4.23,2.78,1.91,1.1,3.91,2,5.82,3.12a9.93,9.93,0,0,1,3.55,3.71c.64,1.08,1.82,1.82,2.61,2.84a51.35,51.35,0,0,1,2.91,4.27c1,1.62,2,3.25,2.85,5a22.27,22.27,0,0,1,.89,3,10.48,10.48,0,0,0,.69,1.4c-.11.3-.39.79-.31.86A3.52,3.52,0,0,0,177.61,62.28Zm-13-19-.36.2.64,1.07.33-.21Zm9.87,15.83c.2.12.34.27.44.25a.47.47,0,0,0,.31-.31c0-.09-.19-.31-.28-.3S174.74,59,174.53,59.15ZM156.75,38.52a1.81,1.81,0,0,0-.33-.27s-.14.06-.21.09.09.23.17.26S156.57,38.56,156.75,38.52Zm6.33,3.72c0,.07,0,.16.1.19s.13,0,.2,0-.05-.15-.11-.19S163.15,42.22,163.08,42.24Z"/><path class="cls-3" d="M114.63,147.07c-.08-.15-.27-.4-.24-.43.76-.75,0-2.17,1.19-2.74.19-.09.23-.45.4-.64.43-.5.89-1,1.34-1.47.11-.12.37-.16.41-.28.51-1.62,2.31-2.13,3-3.54s1.28-3,2.12-4.32a8.65,8.65,0,0,0,1.48-4.61c0-.48,0-1.2-.26-1.41-.7-.52-.56-1.14-.69-1.84-.25-1.39.52-1.32,1.43-1.45.65-.09,1.6-.31,1.81-.75s-.14-1.35-.36-2c-.54-1.59-1.15-3.15-1.73-4.72l.4-.16c.63,1.4,1.24,2.81,1.88,4.21a23.61,23.61,0,0,0,1.61,3.28,2.72,2.72,0,0,0,1.64.75c.94.19,1.94.12,2.87.36a3.39,3.39,0,0,0,3.81-1.16l-2.88-3.33c1.79-.33,1.77,1.71,3.35,2.2-.76-1-.74-1.48.22-1.68a3.73,3.73,0,0,0,.9-.47,9.55,9.55,0,0,0-.71-.93,2.07,2.07,0,0,0-.49-.37,9.84,9.84,0,0,1,1-1.66,2.25,2.25,0,0,1,1.25-.65c1.49-.19,1.68-.55,1-1.89a1.42,1.42,0,0,1,.28-1.22c.48-.56.82-.72.25-1.69a2.87,2.87,0,0,0-2.59-1.48,7.83,7.83,0,0,1-2.28-1.24l1.77-.5c.64,1.12,3.24,1.9,4.58,1.33.2,5-1,9.59-4.39,13.35-3,3.29-6.14,6.41-9.32,9.5-1.55,1.5-3.36,2.73-5,4.15a37,37,0,0,0-2.85,2.86c-1.82,2-3.6,4-5.41,6A7.14,7.14,0,0,1,114.63,147.07Zm9.49-12.68a8.39,8.39,0,0,0,5.31-4.05c.12-.21.31-.49.5-.52,2.19-.27,2.8-2.64,4.59-3.43.06,0,.05-.23.11-.5-2.4.22-4.91-.69-6.94,1.28l-.48-1.62Z"/><path class="cls-2" d="M151.25,33.64l.73.43-1.62,1.56-3.07-1.95c-.16-1.29-1.14-1.27-2.08-1.31l0,0c0-.27,0-.71-.1-.78-1.72-.91-3.46-1.78-5.19-2.65l-.21-.13-.59-.37c-1.66-1.33-3.31-2.67-5-4-1-.75-2-1.46-2.93-2.18-.09-.3-.09-.77-.28-.88-2-1.15-4-2.3-6.38-2.22l-.45-.37-.56-1.17-.11-.93L123,13.58c-.81-1.62-1.43-3.47-3.85-3.07L118,9.79a4.54,4.54,0,0,0-.23-.87c-.81.06-1.62.19-2.43.3l.3.36-.31,1.86c-.73-1.55-1.12-.17-1.63.19l-2.43,1.7.15-2.07,3.26-3.14.73-.22,3.38.51a15.4,15.4,0,0,1,4.71,2.83,5,5,0,0,1,1.9,4,1.49,1.49,0,0,0,1.33,1.67,10.88,10.88,0,0,1,5.7,3.82,2.38,2.38,0,0,0,.75.68c4.09,1.95,7.39,5.06,11.06,7.62l-1.17.57c.79.57,1.61,1.21,2.49,1.74.12.07.54-.33.81-.51l1.46,1.57c.81.58,1.61,1.17,2.44,1.72C150.77,34.39,151.18,34.36,151.25,33.64Z"/><path class="cls-1" d="M115.35,11.44l.3-1.86-.3-.36c.81-.11,1.61-.24,2.43-.3a4.54,4.54,0,0,1,.23.87l1.15.71,0,.71-.69.89,0,.33,0,.34c-.1,2-.21,3.91-.31,5.87-.05,1.08-.33,2.19.43,3.2.19.25.08.74,0,1.12-.24,2.49-.49,5-.74,7.47l-.29.85L114.8,31c-.18-.33-.5-.66-.51-1,0-1.2,0-2.41.06-3.61s.11-2.16.12-3.23c0-.14-.32-.29-.49-.43h-.41l-.32-1.31a1.25,1.25,0,0,0,1.57-1.08c.1-.57.14-1.16.21-1.74C115.44,16.26,114.46,13.81,115.35,11.44Z"/><path class="cls-1" d="M53.54,61.88a.48.48,0,0,0,.09.19l.16.3a14.6,14.6,0,0,0,.62,2.34c.21.48.73.82,1.11,1.22,0,.33,0,.66,0,1l1.76.46V69l2.41,3.52c-.89.43-.47,1-.06,1.42,1,1.12,2.08,2.17,3.06,3.31.31.36.33,1,.59,1.38,1,1.6,2.05,3.18,3.09,4.77l-.15.18-1.6,1.19c-1-1.37-2-2.71-2.92-4.1s-2.7-2.17-2.4-4.23c0-.26-.27-.62-.5-.86-1.65-1.82-2.57-4.28-4.85-5.55l.8-2.83c.06-.1.12-.2.17-.3s-.06,0-.09-.08l-.14.32c-.79-.74-1.32.15-2,.31l-3.12-2.1c-.88-.73-.93-1.42-.22-2.4A4.38,4.38,0,0,1,53,61.14a.56.56,0,0,0,.16.12Z"/><path class="cls-4" d="M76.76,108.78l-.49-.31a1.55,1.55,0,0,1,0-.22l1.31-.46a8.13,8.13,0,0,0-.64-1.57c-1.66-2.47-3.31-4.95-5.07-7.35a7.89,7.89,0,0,0-2.1-1.77c-.73-.48-1.36-.88-.9-1.88s0-1.78-.62-2.56a28.33,28.33,0,0,0-3.55-3.75,49.21,49.21,0,0,1-4.64-5.75c-.89-1.14-1.75-2.3-2.62-3.46a1.73,1.73,0,0,1-.38-.65c-.49-2.81-2.56-4.66-4.23-6.71-.46-.57-1.54-.64-2.34-.94l1.37-.94a10.64,10.64,0,0,1,1.84,1.47A53.08,53.08,0,0,1,57,76.44c.65,1,.93,2.24,1.6,3.21,2,2.85,4,5.65,6.19,8.38a14.43,14.43,0,0,0,2.62,2.09c0-1.36-.14-2.42.86-3.22h0c.45.55.94,1.07,1.36,1.64.81,1.08,1.58,2.19,2.36,3.29.36.5.68.67.91-.09a7.72,7.72,0,0,0,1.28-.12A1.39,1.39,0,0,1,76.08,93c0,.54-.06,1.09-.09,1.63l-1.47.71a1.76,1.76,0,0,1-1.11-2.53l-.33-.07-3,3.35a17.94,17.94,0,0,1,2.5,2.21c1.5,1.95,2.89,4,4.26,6,.84,1.24,1.56,2.55,2.39,3.93Z"/><path class="cls-1" d="M86.83,57.89c1,.84,1.66-.34,2.51-.46,1.65-.22,3.28-.71,4.93-.86A8.3,8.3,0,0,0,99,54.29a28.9,28.9,0,0,1,2.38-1.65l.23.35-1,1.82-.91.82c-2.29,2.16-5.2,2.9-8.13,3.67A31.72,31.72,0,0,0,87.35,61L86.3,60l-.49.27,1.72,6,.32-.07c-.06-.36-.13-.72-.17-1.09-.13-1.18-.25-2.36-.37-3.54l1.85,6.39L88,67.26c.14.41.28.83.44,1.23a13.12,13.12,0,0,1,.85,2.09c.44,2.1.77,4.22,1.15,6.33l-.55.49h0l-.52,0-.8.2c-.43-1.39-.92-2.67-1.2-4-.39-1.87-.53-3.79-.94-5.66-.58-2.63-.86-5.41-3-7.41l2.16-2.68Zm-1,1.3.1.5c.25-.08.51-.15.76-.25a.78.78,0,0,0-.07-.31C86.39,59.13,86.12,59.16,85.86,59.19Z"/><path class="cls-3" d="M144.79,93.85l-2.07-.28a8.37,8.37,0,0,1,.25-1c1.65-4.25,3.26-8.52,5-12.74,1.2-2.91,2.58-5.74,3.88-8.6.35,0,.94.25,1,.12,1-1.54,1.84-3.12,2.74-4.7.31-.32.65-.62.94-1s.57-.74.85-1.12c-1.28,3.07-2.54,6.14-3.83,9.2-1,2.47-2.16,4.92-3.22,7.39-1.76,4.09-3.5,8.19-5.25,12.28A1.81,1.81,0,0,1,144.79,93.85Z"/><path class="cls-1" d="M157.4,64.59c-.28.37-.55.76-.85,1.12s-.62.64-.94,1l-.06-.05.77-2.2-2,.82c.59-1.71,1.14-3.42,1.76-5.12.49-1.34,1.05-2.66,1.58-4a12.73,12.73,0,0,0,.86-1.37,1.6,1.6,0,0,0-.83-2.32l.39-.73c1.08-.12,2.16-.23,1.84-1.79a9.2,9.2,0,0,1,2.1.35c1.84.76,2.17,1.85,1.26,3.79a1.85,1.85,0,0,0-2.07,1.76l-.15.25-.31.61L158.91,61l-.16.38-.29.64-.09.22-.43,1-.48,1.2A.12.12,0,0,1,157.4,64.59Zm.21-6.95.37.27c.27-.34.47-.78.82-1a3.75,3.75,0,0,1,1.33-.15l.36-3-.37-.12Z"/><path class="cls-4" d="M113.25,21.47l.32,1.31a1.88,1.88,0,0,0-.33.53c-.6,2.79-1.09,5.59-.31,8.44-.15,1.54-.32,3.08-.43,4.62,0,.16.39.36.6.54l.06,2.29.08,2H114c.17-.31.36-.62.51-.94.32-.71.61-1.44.91-2.16a22.17,22.17,0,0,0,.11,2.22c0,.32.35.6.53.9l.52.55a15.55,15.55,0,0,0-3.31.28c-1.14.34-1.35,1.49-.69,2.55l.91,3.32c-.95.55-1.44,1.86-2.83,1.66.1-.89.2-1.77.28-2.66,0-.21.08-.51,0-.63-1.23-1.33.18-2.16.46-3.26a21.56,21.56,0,0,0,.39-5.46c0-1.24-.56-2.49-.51-3.72.09-2.35.69-4.71.6-7-.08-2,.53-3.9.62-5.87Z"/><path class="cls-4" d="M157.65,56.13c-.53,1.33-1.09,2.65-1.58,4-.62,1.69-1.18,3.41-1.76,5.12l-.61,1.32-1.54,3.86-.21.31-.1.52c-1.3,2.86-2.69,5.7-3.88,8.6-1.74,4.22-3.34,8.49-5,12.74a8.37,8.37,0,0,0-.25,1l-.71,1v.33l-1.31.48c2-4.76,4.16-9.48,6.09-14.29,2.25-5.6,4.34-11.26,6.51-16.89,1.06-2.74,2.18-5.46,3.18-8.21a2.73,2.73,0,0,0-.2-1.68c-.47-1.28-.09-1.87,1.35-1.95-.47.44-1,.81-.69,1.64S157.42,55.42,157.65,56.13Z"/><path class="cls-2" d="M51.87,70.45l-1.37.94c-1.13,1.09-2.28,2.16-3.38,3.28a4.53,4.53,0,0,0-.61,1.18.47.47,0,0,0,0,.21l-.29.2-1.08-.88L45,77.69l-.34.22-.68.55h0l-.55.67-1.69,2.19-.35-.83.26-.51.11-.12-.11.11-.25.52L39.32,81h0l.19-1.15,2.87-2.15,1-2.11c.81-.87,1.6-1.75,2.44-2.59,1.42-1.43,2.86-2.84,4.3-4.26l1.05-.54,1.51-.78c.65-.15,1.18-1,2-.31l.06.05L53.95,70a9.58,9.58,0,0,0-1.32.07A2.91,2.91,0,0,0,51.87,70.45Zm-9.4,8.34-.09,0v.14a.26.26,0,0,0,.1,0S42.47,78.82,42.48,78.79Z"/><path class="cls-2" d="M116.66,67.51c1-.39,1.37,0,1.46,1,.29,3.06.58,6.13,1,9.17.27,1.82.88,3.58,1.26,5.39a16.43,16.43,0,0,1,.18,2.25c-1.25.29-.72-1-1-1.31l-1.49,1.59-.57.11c-1.33-.51-.62-1.59-.6-2.41,0-1.84.41-3.68.34-5.5-.13-3.31-.48-6.61-.73-9.92Z"/><path class="cls-4" d="M30.8,110a7.31,7.31,0,0,0-.88,1.34c-.89,2.33-1.81,4.65-2.57,7-.5,1.58-.75,3.23-1.13,4.85a6.52,6.52,0,0,1-.45,1.45c-.37.74,0,1.06.61,1.19a8.69,8.69,0,0,0,2.14.27,4.19,4.19,0,0,1,4.21,2.32c.3.54.61,1.08.92,1.61a16.4,16.4,0,0,1-1.83-1.82,2.75,2.75,0,0,0-2.68-1,11.52,11.52,0,0,1-3.6-.38,1.68,1.68,0,0,1-1.16-2.23c.6-2.24,1.11-4.5,1.7-6.73a3.4,3.4,0,0,1,.66-1.07c1.82-2.4,2.36-5.37,3.5-8.07a12.34,12.34,0,0,0,.37-3.76,4.49,4.49,0,0,1,3.65-4.44l.48.53-.55.27c-.41.24-1,.38-1.18.72a40.85,40.85,0,0,0-1.38,4.22c-.28,1-.43,2-.63,3.07Z"/><path class="cls-2" d="M110.65,49.57c1.39.2,1.88-1.12,2.83-1.66.67,0,1.53.17,2-.16s.62-1.26.9-1.92l.73.32c0,.54.34,1.28.09,1.57-.75.88-.16,1.15.45,1.52-.17.31-.31.64-.5.94s-.51.67-.76,1c-.22-1.84-.44-2.09-1.57-1.71a8.14,8.14,0,0,0-1.3.74,4.65,4.65,0,0,0-.71,1c-1.09-1-1.45.38-2.15.66l-2.55,1.67-1.23.61-.29.18-.45.17-.95-.13-3.2-.39.06-.28h-.12l0,.29-1.35.83,1-1.82-.23-.35,1.37-.3.16.87.32-.07-.21-.85Zm-7.07,3.14a.34.34,0,0,0,0,.11s.05,0,.08,0a.33.33,0,0,0,0-.11S103.61,52.72,103.58,52.71Z"/><path class="cls-2" d="M139.4,101.12a3.27,3.27,0,0,0,.71.66c1,.51,2.26.67,2.25,2.36,0,.67,1,1.33.07,2.31l-1.26-.91-.55,1.28-4.47-1.19.07,1.22h-2.6l1.19-.58a4.81,4.81,0,0,1-1.23-1.07c-.09-.15.51-.7.8-1.08l-.31-.24.68-1.18.05-.39.28-.25a27.71,27.71,0,0,0,2.89-.14c.27,0,.47-.55.7-.84Z"/><path class="cls-2" d="M57.29,67.41l-1.76-.46c0-.35,0-.68,0-1a1.9,1.9,0,0,0,2.17-.07c.34-.27,1-.16,1.44-.27l8.71-1.9c.93-.21,1.86-.43,2.79-.65l.52-.18.9-.68c.84,1,.77,1.33-.26,2.08-.21.16-.24.56-.36.86a.3.3,0,0,0,0,.24.23.23,0,0,1-.18.07,19.15,19.15,0,0,0-2.61,0c-3.17.46-6.34,1-9.51,1.49C58.5,67.06,57.89,67.26,57.29,67.41Z"/><path class="cls-3" d="M118.08,85.62,119.57,84c.3.27-.22,1.59,1,1.31.42,4.15.81,8.3,1.27,12.45a12.9,12.9,0,0,0,.64,2.19c-.6,1-1.57.33-2.35.5a1.68,1.68,0,0,0,.11-.49q-.3-3.46-.63-6.92c-.15-1.6-.32-3.21-.5-4.81-.08-.7-.17-1.4-.28-2.27Z"/><path class="cls-3" d="M114.78,49.46c1.13-.37,1.35-.13,1.57,1.71l-.3,4.08-.43-.16V57l.22,0,.59-1.41a4.73,4.73,0,0,1,.26,1.32c-.21,2.21-.48,4.42-.74,6.62l0,.35,0,.43-.25,1.25L113.95,65c0-1.43,0-2.87.11-4.3a28.76,28.76,0,0,1,.64-4.76c.34-1.34-.25-2.53-.23-3.8,0-.18-.47-.37-.69-.53C115.21,51.44,114.94,50.42,114.78,49.46Z"/><path class="cls-1" d="M25.72,94.57l-1.27-.65-1,.43a27.69,27.69,0,0,1,6.46-6.23,18.34,18.34,0,0,0,2.8-2.89l-.33,1.18,1.31-.17v1c-1.9,1.89-3.79,3.8-5.72,5.66A10.68,10.68,0,0,1,26.34,94l-.41-.46-.23,1Z"/><path class="cls-3" d="M76.27,108.26a1.55,1.55,0,0,0,0,.22c-.36.15-.75.48-1.07.42-3.61-.63-7.21-1.31-11-2l-.86,3.63-.2,0c.1-.83.22-1.67.3-2.5s-.11-1.22-1.06-1.35c-2.47-.34-4.93-.8-7.37-1.3-.46-.09-.85-.55-1.53-1l2.52.31c.68.23,1.37.76,2.05,0l16.29,3.12C75,107.86,75.63,108.08,76.27,108.26Z"/><path class="cls-4" d="M113.95,65l1.68.56.25-1.25a20.57,20.57,0,0,0,.21,2.19,3.71,3.71,0,0,0,.58,1l-.15.39-.63,2.93-1.12-.36-1.81-1.55-1.5.33a4.79,4.79,0,0,1-.25-1.18c0-.88.16-1.75.25-2.63l1-.35.73-.08Z"/><path class="cls-2" d="M113.25,21.47l-.78-.54-2.4-1.38,1.16-1.07c-.33-.1-.58-.26-.67-.2-1,.76-1.56.23-2-.73-.61-1.27-.15-2.59-.29-3.87l0,0,1.83.8a1.61,1.61,0,0,0,.65,2.31,26.53,26.53,0,0,0,2.73,1.32l1.55.56c-.07.58-.1,1.17-.21,1.74A1.25,1.25,0,0,1,113.25,21.47Z"/><path class="cls-2" d="M85.56,57.87,83.4,60.55a2.15,2.15,0,0,0-2.52.43l-4.58,1.32-.95-.43L75,63.08l-.46.4.13-1.68h-.92l-.09-.07-.25-.55.38-.33,1.15.35.09.08c1.26,0,1.45-.83,1.5-1.8l3.83-.6,1.94-.31c.78.78,1.2,0,1.7-.4l.79-.32Z"/><path class="cls-4" d="M45.19,140.59a4.13,4.13,0,0,1,1.05.57c2.94,3,6.47,5.12,9.93,7.38a35,35,0,0,0,5.35,3.19c2.57,1.08,5.31,1.77,8,2.64a8.18,8.18,0,0,1,.94.44c-2.25.44-4.26-.52-6.32-1.11-3.32-1-6-3.15-8.88-4.9a50.8,50.8,0,0,1-9.36-7.19A5.94,5.94,0,0,1,45.19,140.59Z"/><path class="cls-4" d="M91.91,154.88l0-.39,1-.08,1.27-.2.54,0,1.26-.22.76-.09.78-.14.52-.08,1-.19.51-.09.77-.17.77-.09.52-.14,1.79-.37.52-.19,1.8-.56c1-.38,2-.69,2.94-1.16a27.8,27.8,0,0,0,2.5-1.59l2.47-1.12a19.43,19.43,0,0,1-3,2.47A34.46,34.46,0,0,1,91.91,154.88Z"/><path class="cls-4" d="M51.2,68.21l-1.05.54a10.6,10.6,0,0,0-1-1.41c-.78-.84-1.63-1.62-2.45-2.42s-.49-1.31.3-1.86a10.52,10.52,0,0,0,1.79-1.51C50.22,60,52,59.77,53,61a.35.35,0,0,1,0,.12,4.38,4.38,0,0,0-3.62,1.78c-.71,1-.66,1.67.22,2.4-1,.57-.93,1,0,1.57A20.26,20.26,0,0,1,51.2,68.21Z"/><path class="cls-4" d="M129.59,115.81l-1.56-1.1c.19-.14.5-.25.56-.44q.87-2.65,1.66-5.33a7.55,7.55,0,0,0,.23-1.37c.17-1.64,1.61-3.42,2.85-3.5l-.48.69a3.26,3.26,0,0,0-.37.63c-.8,2.49-1.6,5-2.36,7.48a9.17,9.17,0,0,0-.18,1.74l0,.53Z"/><path class="cls-4" d="M114.8,31l2.71.23.29-.85c-.07,1.71-.12,3.41-.22,5.12,0,.12-.28.23-.43.35-.49-1.55-1.42-1.94-3.17-1.33a4.91,4.91,0,0,1-.46-1.12,12.56,12.56,0,0,1,0-1.7q0-.1.05-.21Z"/><path class="cls-1" d="M168.85,63.44l.45,1c.21-.36.56-.7.61-1.08a21.31,21.31,0,0,0,0-2.45l.58,0c0,.77-.14,1.54-.11,2.31A1.65,1.65,0,0,0,171,64.5c.31.16.72.24.91.49A19.4,19.4,0,0,1,173,66.83c-1,.27-2,.56-3.05.78a1.24,1.24,0,0,1-.81-.25c-.45-.29-.85-.66-1.33-1Z"/><path class="cls-1" d="M84.79,57.86l-.79.32c-.84-.65-2-1-1.94-2.43,0-.06-.19-.13-.29-.2-.42-1.73-.1-2.16,1.9-2.58.5,1.32,1.67,1.47,2.84,1.61l.13,1.59-1.85-.63Z"/><path class="cls-2" d="M33.64,87.29v-1l-1.31.17.33-1.18,4.47-3c.74,0,1.25-.14,1.12-1l.26-.2.82,0h0l-1,2L35,86.4l-.79.49Zm.46-1.64c0-.06-.06-.16-.11-.17s-.13,0-.2.07l.15.24Z"/><path class="cls-3" d="M3.74,117.28l2.41.5L6,119.09l5.41,1a6.6,6.6,0,0,1-1.13.31c-.33,0-.76-.22-1-.09-1.38.75-2.27-.75-3.48-.71a.41.41,0,0,1-.32-.19c-.61-1.42-1.75-1.38-2.84-1a23.23,23.23,0,0,1-1.25-2.59c-.1-.29.26-.75.4-1.13l1.82,2.53-.12.17Z"/><path class="cls-4" d="M83.68,53c-2,.42-2.32.85-1.9,2.58-.76.86-.93,1.65.19,2.37.18.12.23.43.34.65l-1.94.31.73-.6c-.42-.92-.9-1.93-1.33-3-.1-.25-.16-.69,0-.84a17.82,17.82,0,0,1,2.82-2.63,5.51,5.51,0,0,1,2.34-.35c.77-.08,1,.36.84,1Z"/><path class="cls-3" d="M112.57,44.58c-.66-1.06-.45-2.21.69-2.55a15.55,15.55,0,0,1,3.31-.28l.2.09.55.43c.93,1.45.74,2-1,2.85-.15-.07-.36-.24-.45-.19-1,.52-1.18-.11-1.37-.83l2.35-.64c-.45-.29-.83-.74-1.25-.78a6.18,6.18,0,0,0-1.76.37l.43,1.06-.53.48-.2-.39-.31.39Z"/><path class="cls-4" d="M169.47,60.47l-.22.52c-.24-.16-.59-.26-.69-.48a39.12,39.12,0,0,1-2.16-4.84,16.22,16.22,0,0,1-.23-7.78c.12.16.32.32.33.49.06,1.21,0,2.44.14,3.64a17.49,17.49,0,0,0,.68,4A40.54,40.54,0,0,0,169.47,60.47Z"/><path class="cls-1" d="M169.47,60.47A40.54,40.54,0,0,1,167.32,56a17.49,17.49,0,0,1-.68-4c-.12-1.21-.08-2.43-.14-3.64,0-.17-.22-.33-.33-.49l-.48-.62-.1-.41c.42.33,1.16.61,1.22,1,.3,2.07.34,4.19.66,6.25a12.48,12.48,0,0,0,1.16,2.63c.43,1,.84,2,1.19,3.09C169.87,60,169.59,60.26,169.47,60.47Z"/><path class="cls-3" d="M114.76,3.24a5.87,5.87,0,0,1,1.12-1.62,2.75,2.75,0,0,1,3.21-.1,2.46,2.46,0,0,1,.9,2.78l-1.12-1.94-.48,2.12h-.33a5.87,5.87,0,0,0-.34-1.25c-.2-.38-.7-1-.8-1a2.52,2.52,0,0,0-1.31,1,5.88,5.88,0,0,0-.08,2l-.37,1.58c-.13-.13-.37-.27-.37-.4C114.74,5.39,114.76,4.32,114.76,3.24Z"/><path class="cls-1" d="M112.57,44.58h.66l.21.35.3-.34h0l.53-.48.12,0,.12,0c.19.72.42,1.35,1.37.83.09,0,.29.12.45.19q0,.35,0,.71c-.28.66-.4,1.53-.9,1.92s-1.29.13-2,.16Z"/><path class="cls-1" d="M115.52,5.29a5.89,5.89,0,0,1,.08-2,2.52,2.52,0,0,1,1.31-1c.11,0,.61.58.8,1a5.87,5.87,0,0,1,.34,1.25h.33l.48-2.12L120,4.31l-.11.48-.72.22C118,5.34,116.65,4.1,115.52,5.29Z"/><path class="cls-4" d="M120.15,100.47c.78-.16,1.75.52,2.35-.5l1.72,2.87-1.27-.46-.72-.15-4.37-.4.5-1.06Z"/><path class="cls-1" d="M108.25,13.69c.14,1.29-.32,2.6.29,3.87.46,1,1,1.48,2,.73.09-.06.34.09.67.2l-1.16,1.07a10.49,10.49,0,0,1-2.48-2.06A2.65,2.65,0,0,1,108.25,13.69Z"/><path class="cls-1" d="M122.23,102.24l.72.15.54,2,.58.47-1.3-.14-.15,1.81-.38.2c.29-1.73-.7-2.38-2.07-2.8l-.5.83-.87-.46.53-2.13c.62.48,1.07.85,1.56,1.19a8.22,8.22,0,0,0,1,.49,9.45,9.45,0,0,0,.37-1A2.46,2.46,0,0,0,122.23,102.24Z"/><path class="cls-1" d="M114,34.56c1.75-.62,2.68-.22,3.17,1.33a2.1,2.1,0,0,0-1,2.49l.11.31,0,.46,0,.32L116,41.19c-.18-.3-.49-.58-.53-.9a22.16,22.16,0,0,1-.11-2.22l.07-1.19V35.63l-1,.2H114l-.72,0,.5-.77.09.05-.09-.05Z"/><path class="cls-3" d="M124.51,19.16c2.41-.08,4.4,1.07,6.38,2.22.2.11.19.58.28.88Z"/><path class="cls-3" d="M118.44,12.1l.69-.89a5.1,5.1,0,0,1,1.16.42c.93.62,1.82,1.3,2.72,2l.38,3.12a6.93,6.93,0,0,0-3.8-4.28A8,8,0,0,0,118.44,12.1Z"/><path class="cls-1" d="M73.76,61.8h.92l-.13,1.68-1.83,1.12-1.28.52c.11-.29.14-.7.36-.86,1-.75,1.1-1.1.26-2.08l1.36-1,.25.55-.79.71.35.27Z"/><path class="cls-1" d="M150.35,35.64,152,34.07l1.36.8-.07,1.48-.11.12.12-.11.84.29-1.16.84Z"/><path class="cls-3" d="M119.16,5l.72-.22c-.34,1-.69,2-1,3a3.06,3.06,0,0,0-.07.61l-3.38-.51-.18-.67.31-.11c.68-.36,1.86,1,2.19-.63l.44.23.22-.51C119.2,6.15,119.22,5.6,119.16,5Z"/><path class="cls-1" d="M110.1,14.45l-1.83-.8,3.16-2.4-.15,2.07Z"/><path class="cls-1" d="M34.2,101.3l.55-.27L35,99.49l.41-.86,2.47,1.6-1.17.35-.51-1.11c-.35.65-.59,1.06-.8,1.49-.32.67-.61,1.37-.95,2,0,.09-.32.05-.48.08Z"/><path class="cls-4" d="M115.24,7.22l.18.67-.73.22c-1-.79-1.46-3.5-.78-4.41.17-.23.56-.31.85-.46,0,1.07,0,2.15,0,3.22,0,.14.24.27.37.4Z"/><path class="cls-1" d="M117.61,49.22c-.61-.36-1.2-.64-.45-1.52.25-.29,0-1-.09-1.57a5.65,5.65,0,0,1,1.13.09,6,6,0,0,1,1,.5c-.19.35-.35.73-.57,1.06C118.34,48.27,118,48.74,117.61,49.22Z"/><path class="cls-1" d="M38.28,83l1-2,2.06-.51h0l.35.83Z"/><path class="cls-3" d="M83.68,53l2.08-.44.76,2C85.34,54.45,84.17,54.31,83.68,53Z"/><path class="cls-3" d="M157.65,56.13c-.23-.71-.41-1.43-.7-2.11s.22-1.19.69-1.64l0,.06a1.6,1.6,0,0,1,.83,2.32A12.73,12.73,0,0,1,157.65,56.13Z"/><path class="cls-1" d="M139.89,28.93c1.74.87,3.48,1.74,5.19,2.65.13.07.07.51.1.78Z"/><path class="cls-1" d="M15.78,105c.12-1,.32-1.94,1.56-2.2.24,0,.35-.58.6-.68a4.68,4.68,0,0,1,1.25-.13Z"/><path class="cls-1" d="M146.39,30.78c-.28.18-.69.58-.81.51-.88-.54-1.69-1.17-2.49-1.74l1.17-.57Z"/><path class="cls-1" d="M138.65,101.07c-.23.29-.43.8-.7.84a27.71,27.71,0,0,1-2.89.14l-.1-.3.12-.23c.4,0,1.06.22.71-.64l.46-.18.6-.19.47-.06Z"/><path class="cls-3" d="M84.79,57.86V55.55l1.85.63c-.42.62-.51,1.21.18,1.71l-1.27,0Z"/><path class="cls-4" d="M35.46,132.09c.16,0,.38,0,.48.09,1.41,1.39,2.8,2.79,4.2,4.19a12.07,12.07,0,0,1-1.92-1.27C37.24,134.16,36.38,133.1,35.46,132.09Z"/><path class="cls-1" d="M74.94,61.2l-1.15-.35,2.74-1.37c-.05,1-.24,1.84-1.5,1.8l.33-.43-.18-.1Z"/><path class="cls-4" d="M137.3,100.46l-.47.06a.48.48,0,0,0-.15-.17c.14-1.56,1.34-2.35,2.37-3.27,0,0,.24.13.36.2v.41l-.26.26Z"/><path class="cls-1" d="M1.86,109.78l-.76,1.08.86.29-.88,1.7-.25,0c-.11-.52-.2-1.05-.36-1.56-.06-.19-.3-.33-.46-.49v-.34l.58-.42Z"/><path class="cls-1" d="M151.25,33.64c-.07.72-.47.75-1,.42-.83-.55-1.63-1.15-2.44-1.72Z"/><path class="cls-3" d="M159.91,49.92c.32,1.55-.76,1.67-1.84,1.79C158.32,50.74,158.68,49.89,159.91,49.92Z"/><path class="cls-1" d="M156.44,39.52c1.2.1,2.69-.53,3.19,1.3Z"/><path class="cls-3" d="M161.2,55.83a1.85,1.85,0,0,1,2.07-1.76l-.46.81-.26-.24.24.26Z"/><path class="cls-4" d="M42.37,138.28,45,140.49Z"/><path class="cls-1" d="M45,77.69l.15-2.3,1.08.88Z"/><path class="cls-3" d="M123.49,104.37l-.54-2,1.27.46.08.88-.81-.4Z"/><path class="cls-1" d="M43.41,75.59l-1,2.11A2.19,2.19,0,0,1,43.41,75.59Z"/><path class="cls-3" d="M21.29,96.08l-.45,1.61h0L19.79,97Z"/><path class="cls-1" d="M145.2,32.38c.94,0,1.93,0,2.08,1.31Z"/><path class="cls-1" d="M177.61,62.28a3.52,3.52,0,0,1-1-.44c-.08-.07.19-.56.31-.86Z"/><path class="cls-1" d="M116.43,55.57,115.84,57l-.22,0V55.09l.43.16Z"/><path class="cls-1" d="M58.06,104.62c-.68.76-1.37.23-2.05,0h0l.53-.42Z"/><path class="cls-4" d="M40.31,136.49l1.33,1.21Z"/><path class="cls-1" d="M19.25,101.92c-.42-1.12.12-1.25,1-1Z"/><path class="cls-4" d="M165.59,46.87l.1.41-1.14-.15h0l0-1.07Z"/><path class="cls-3" d="M35,99.49,34.75,101l-.48-.53C34.17,100,34.08,99.39,35,99.49Z"/><path class="cls-1" d="M38.25,81.18c.14.89-.38,1.09-1.12,1Z"/><path class="cls-3" d="M123.5,17.62l.56,1.17Z"/><path class="cls-1" d="M39.32,81l-.82,0,1-1.12Z"/><path class="cls-4" d="M34.5,131l1,1.07Z"/><path class="cls-2" d="M25.71,94.55l.23-1,.41.46Z"/><path class="cls-1" d="M134.72,102.7l-.68,1.18-.16-.17.18-.58Z"/><path class="cls-4" d="M134.07,103.13l-.18.58-.4.22Z"/><path class="cls-1" d="M173.77,66.74h0Z"/><path class="cls-3" d="M157.46,64.46l.48-1.2Z"/><path class="cls-1" d="M103,52.28l.21.85-.32.07-.16-.87Z"/><path class="cls-1" d="M154.51,38.43l1,.55Z"/><path class="cls-1" d="M155.51,39l.82.49Z"/><path class="cls-2" d="M135.78,100.89c.35.87-.31.61-.71.64Z"/><path class="cls-3" d="M21.35,100.23l.58-1Z"/><path class="cls-1" d="M43.41,79.13l.55-.67Z"/><path class="cls-1" d="M44,78.46l.68-.55Z"/><path class="cls-3" d="M2.28,113.64l-.37.73Z"/><path class="cls-1" d="M34.18,86.89,35,86.4Z"/><path class="cls-1" d="M71.15,62.87l-.52.18Z"/><path class="cls-4" d="M53.54,61.88l-.38-.61Z"/><path class="cls-4" d="M41.66,137.71l.52.47Z"/><path class="cls-3" d="M160.74,56.69l.31-.61Z"/><path class="cls-3" d="M1.49,113l.68.13Z"/><path class="cls-1" d="M139.09,28.43l.59.37Z"/><path class="cls-4" d="M169.12,61.73l-.19.54Z"/><path class="cls-3" d="M136.69,100.35a.48.48,0,0,1,.15.17l-.6.19Z"/><path class="cls-3" d="M56.53,104.2l-.53.42v-.52Z"/><path class="cls-4" d="M135,101.76l.1.3-.28.25Z"/><path class="cls-3" d="M139.41,97.69v-.41l.29-.1Z"/><path class="cls-4" d="M117.32,42.26l-.55-.43Z"/><path class="cls-3" d="M158.75,61.37l.16-.38Z"/><polygon class="cls-4" points="164.55 47.13 164.51 47.17 164.56 47.14 164.55 47.13"/><path class="cls-4" d="M116.22,38.69l-.11-.31Z"/><path class="cls-4" d="M53.79,62.37l-.16-.3Z"/><path class="cls-3" d="M158.37,62.24l.09-.22a1,1,0,0,1,0,.19S158.41,62.23,158.37,62.24Z"/><path class="cls-4" d="M116.16,39.47l0-.32Z"/><path class="cls-4" d="M115.9,63.87l0-.35Z"/><path class="cls-1" d="M46.5,76.07a.47.47,0,0,1,0-.21l.17.19Z"/><path class="cls-3" d="M118.37,12.77l0-.34Z"/><path class="cls-3" d="M76.76,108.78l2.45-.5c-.83-1.38-1.56-2.69-2.39-3.93-1.37-2-2.76-4.08-4.26-6a17.94,17.94,0,0,0-2.5-2.21l3-3.35.33.07a1.76,1.76,0,0,0,1.11,2.53c-.3.71-.68,1.28,0,2.15,1.94,2.66,3.71,5.45,5.59,8.16a4.35,4.35,0,0,0,1.17.83l2,2.8.21-.2-.09-.66c.21.11.5.17.62.35.6.9,1.25.74,2.2,0l-1.76-.66.45-.77c.42-.65.8-.35,1.18,0,2.07,3,3.28,3.58,5,2.73l2.71,2,1.5.34c-.15.6-.13,1.09.56,1.38s1.33.66,2,1c-1-.19-2.09-.34-3.11-.59a7.93,7.93,0,0,1-1.49-.74l-.61-1a3.87,3.87,0,0,1-.81.8,1,1,0,0,1-.76-.14c-.2-1.7-1.34-2.23-2.83-2.32-1.67-.1-3.4-.52-5-.2a3.94,3.94,0,0,1-3.41-.44,1.34,1.34,0,0,0-1.94.68,3,3,0,0,1-.67,1.22Z"/><path class="cls-2" d="M61.39,148l-2.82-1.58-2-1.29h0l-.55-.47-.72-.31-.55-.47h0l-.76-.51h0l.6-1.39-1.09.39c-.5-.27-.87-.45-1.21-.67a2.4,2.4,0,0,1-.45-.41c-1.65-1.73-3.22-3.54-5-5.18-1.23-1.15-2.71-2-4-3.11a5.82,5.82,0,0,1-.89-1.2l0,0c1.55,1.07,3.12,2.12,4.64,3.23,3.46,2.52,6.83,5.17,10.36,7.59a55,55,0,0,0,8.24,4.94,28.26,28.26,0,0,0,7,1.67c2.42.4,4.87.61,7.32.81,1.92.16,3.85.12,5.78.25,4.9.35,9.73-.36,14.56-1,2.77-.37,5.54-.83,8.3-1.24a2.42,2.42,0,0,1,.59.05,2,2,0,0,1,0,.31c-1.61.26-3.05,1.1-4.74,1.21-2,.12-4,.55-6,.84-.46.07-.93.06-1.39.12l-7.45.89c-.17,0-.39.15-.49.08-1.69-1.25-3.55-.42-5.33-.46-1,0-2-.14-2.93-.09-.36,0-.69.38-.89.5a12.55,12.55,0,0,0-2.34-.87c-2.59-.42-5.22-.61-7.79-1.12-2.38-.48-4.69-1.28-7-1.88C62.06,147.55,61.7,147.88,61.39,148Z"/><path class="cls-2" d="M115.34,131.06l.4-1c1.06.57,1.75,1.29,1.59,2.51a4.1,4.1,0,0,1-1.66,2.73l-.22-1.93-.62.66c-3.39-3.61-3.94-5.79-2.06-7.75C112,128.73,114.64,129.16,115.34,131.06Z"/><path class="cls-2" d="M75,126.6c1.52-.35,2.92-1.24,4.43-.27.08.05.24,0,.36,0,2.34-.69,2.46-.64,3.81,1.7a3.11,3.11,0,0,1-4,.6,4.07,4.07,0,0,0-2.08-.22A2.42,2.42,0,0,1,75,126.6Z"/><path class="cls-2" d="M132.48,109.75a1.9,1.9,0,0,1,.58,2.4,4.48,4.48,0,0,0-.25,1.43c1.77-2.07,3.69-.44,5.51-.4.3,0,.58.48,1.12.95H132l-.36-2.63Z"/><path class="cls-3" d="M113.83,139.85c-4-1.55-8.12-3-12.9-3.13.41-.33.65-.68.87-.67,3.4.19,6.78.47,9.8,2.34a7.6,7.6,0,0,0,1.47.38,6.35,6.35,0,0,1,1,.55Z"/><path class="cls-2" d="M129.59,115.81l.37-.66a13.9,13.9,0,0,1,7.81,1.74c-2.47.48-4.8-.39-7.36-.75l-.71,1Z"/><path class="cls-3" d="M105.29,117.68l.21.06c-.09,1.1-.19,2.19-.26,3.29,0,.56,0,1.13,0,1.53l3.58.39.06.42-.65.72-4.72-1c.45-1.56.84-3,1.27-4.36A6.15,6.15,0,0,1,105.29,117.68Z"/><path class="cls-3" d="M132.48,109.75l-.84,1.74-1.71,3.13a9.18,9.18,0,0,1,.18-1.74c.75-2.5,1.56-5,2.36-7.48a3.26,3.26,0,0,1,.37-.63c-.07.95-.15,1.9-.22,2.85C132.57,108.33,132.53,109,132.48,109.75Z"/><path class="cls-3" d="M79.9,136.31c-1.63-.3-3.28-.55-4.89-.93-.82-.19-1.49-.35-1.68.57l-1.49-1.51c2.86-.41,5.41,1,8.14,1.33Z"/><path class="cls-3" d="M142,94.91v-.33a2,2,0,0,1,1.41,2.57c-.13.39-.2.8-.32,1.29L142,97.87Z"/><path class="cls-2" d="M115.79,123.35c.25,1.43.7,2.9-1,4.13,0-1.29-.05-2.42,0-3.53,0-.3.48-.57.73-.85h0l.26.26Z"/><path class="cls-3" d="M110.45,115.7l.73.21-.26,3.39-.39.18c-.21-.36-.62-.74-.59-1.08A22.44,22.44,0,0,1,110.45,115.7Z"/><path class="cls-3" d="M137.3,100.46,139.15,98l-.81,2,2,.11-.92,1.08-.74,0Z"/><path class="cls-3" d="M111.24,149.08a27.8,27.8,0,0,1-2.5,1.59c-.94.47-2,.78-2.94,1.16.72-.5,1.42-1,2.17-1.5a9.89,9.89,0,0,1,1.67-.8C110.15,149.34,110.7,149.23,111.24,149.08Z"/><path class="cls-2" d="M39.58,129.76l2.32,2,0,0-2.3-2.07Z"/><path class="cls-3" d="M132.11,118.87l-1.74-1.28.34-.48,1.67,1.27Z"/><path class="cls-2" d="M38.34,129l-.78-.42.17-.32.78.42Z"/><path class="cls-3" d="M99.11,153.44l-1,.19C98.31,152.89,98.68,153,99.11,153.44Z"/><path class="cls-3" d="M100.4,153.18l-.77.17Z"/><path class="cls-3" d="M101.68,153l-.52.14Z"/><path class="cls-3" d="M104,152.4l-.52.19Z"/><path class="cls-3" d="M142,101l-.39,0v-.15H142Z"/><path class="cls-2" d="M117.34,115.4l.06-.1-.06.09Z"/><path class="cls-2" d="M39.57,129.77l-.11-.11.11.1Z"/><path class="cls-3" d="M122.23,102.24a2.46,2.46,0,0,1,0,.63,9.45,9.45,0,0,1-.37,1,8.22,8.22,0,0,1-1-.49c-.49-.33-.94-.71-1.56-1.19l-.53,2.13c-.9.22-1.8.42-2.68.69a.87.87,0,0,0-.51.63c0,.95-.53,1.17-1.33,1.11l-.6-.3-.09.82.33,2.7-2.71-.49a1.56,1.56,0,0,0-2.1-.37l-.34-.05c1.17-1.75.24-3.72.58-5.56-1,1.74-.62,3.72-.92,5.57l-2.66,1c.34-2.29.63-4.58,1-6.85.32-1.83.75-3.64,1.11-5.34l1.52.13-.17.26,1.43.87-.33.48c-1.76.45-1.12,2-1.61,3.39l1.57-.39c2.32.09,2.65-.18,2.63-2.12l.75-.11-.14,1.82-.18-.59-.17,0,.28,1.22.17,3.09h.64a.85.85,0,0,0,.2,0,20.93,20.93,0,0,0,1.69-11c-.23-3.08-.61-6.15-.89-9.23a3.43,3.43,0,0,1,.18-1.49c.84-2.18.6-4.43.5-6.68L115.92,73l0-2.15.63-2.93c.26,3.31.61,6.61.73,9.92.07,1.83-.29,3.66-.34,5.5,0,.82-.72,1.9.6,2.41.09.9.22,1.79.27,2.69.11,2,.24,4,.25,6s-.12,4.22-.18,6.33l-.06.1.07-.09.52,0-.5,1.06Z"/><path class="cls-4" d="M110.69,99.06l-1.43-.87.17-.26-1.52-.13c-.36,1.7-.79,3.51-1.11,5.34-.39,2.28-.69,4.57-1,6.85-.86.74-.86.74-1.59-.72.36-1.23,1.11-2.49,1-3.67-.23-2.6.87-4.89,1.2-7.34.36-2.65.64-5.3.94-8s.59-5.23.82-7.85a8.36,8.36,0,0,0-.18-2.23,3.32,3.32,0,0,1,.47-2.88c1.17-1.58.85-3.36.39-5.16a14.6,14.6,0,0,1-.42-3.87c0-2.08.44-4.15.41-6.22a23.85,23.85,0,0,1,1-6.59c.55-2.08.34-2.14-1.79-2l2.55-1.67c.26.6.81,1.24.73,1.8a36.32,36.32,0,0,1-1,4.31,6.79,6.79,0,0,0-.41,1.17c-.2,3.79-.39,7.58-.52,11.37-.07,2,0,2,1.93,2-.21.56-.45,1.12-.62,1.7,0,.16.1.38.15.58l.1.13c-1.39,1.55-1.39,1.55,0,3.13.13.15.29.29.44.43l-.17,1.6a10.67,10.67,0,0,0-1.2,2.81c-.21,1.76,0,3.57-.14,5.35-.18,3-.47,6-.73,9.16l.62-.71,2.15-.32,1.54.55c.32.73.68,1.44.94,2.19s.47,1.35-.69,1.24l-.75.11-.69-.5c0-.54,0-1.14-.85-.87Z"/><path class="cls-4" d="M93.74,85.87l1.79,1.29c-.29-.06-.58-.14-.87-.18-1.53-.2-3.58.71-3.74,1.78s-.86,2.24.3,3.24c.19.16.17.56.24.84.46,1.72.94,3.44,1.36,5.17.5,2.06,1.3,4.14,1.3,6.21,0,2.47.86,4.71,1.16,7.08l-.05,1.25-1.5-.34c-.08-1-.14-2-.25-3-.15-1.4-.34-2.79-.48-4.18a17.75,17.75,0,0,0-.13-2.16c-.6-2.61-1.22-5.21-1.94-7.78a15.63,15.63,0,0,0-1.52-3.84,1.93,1.93,0,0,1-.19-2.09,2.23,2.23,0,0,0,.27-1.5c-.72-1.87-.37-4.23-2.41-5.53-.12-.08-.17-.29-.22-.45q-.56-2.07-1.1-4.14c-.5-1.92-1.36-3.84-1.4-5.78A32.46,32.46,0,0,0,83,64.1c-.5-1.94-1.48-2.44-3.43-2.08-1.08.2-2.18.33-3.27.49a.49.49,0,0,1,0-.22L80.88,61a3.22,3.22,0,0,1,2.69,2.23,24.46,24.46,0,0,1,1.15,4.16c.56,2.77.88,5.6,1.6,8.33.78,3,.89,6.31,3.57,8.32l.27-1.69,1-1.41,1.68,6Z"/><path class="cls-3" d="M95.27,111.29c-.3-2.37-1.16-4.6-1.16-7.08,0-2.07-.8-4.15-1.3-6.21-.42-1.73-.9-3.45-1.36-5.17-.08-.29-.06-.68-.24-.84-1.16-1-.46-2.16-.3-3.24s2.21-2,3.74-1.78c.29,0,.58.12.87.18l.24.78c-1.12-.14-2.31-.52-3.1.91l.79.11,0,0,.51.7c-1,.22-1.43.6-1.08,1.78.75,2.55,1.2,5.19,2,7.71.26.81-.24,2.13,1.14,2.45a1.58,1.58,0,0,1,0,.24l-.67,1.78,1.59.18a.42.42,0,0,1,.11.05v.41c-1.28.42-.79,1.35-.59,2.17a7.73,7.73,0,0,0,.49,1.18l1.09-.71c.34-.13.91-.2,1-.41.34-1.09.68-.37,1.12.06v-1.21l.49.54.76,2.31c-1.27,1.16-3,0-3.88.64Z"/><path class="cls-1" d="M108.45,109c.29-1.86-.13-3.83.92-5.57-.35,1.84.59,3.8-.58,5.56Z"/><path class="cls-1" d="M109.12,109.07a1.56,1.56,0,0,1,2.1.37Z"/><path class="cls-5" d="M113.6,107.21l.09-.82.6.3Z"/><path class="cls-1" d="M115.8,123.35l-.26-.26Z"/><path class="cls-1" d="M16.22,101.23,15,103.3C14.75,101.53,15.34,100.93,16.22,101.23Z"/><path class="cls-3" d="M2,112.21l2.15-1.46.33.45L2.4,112.68Z"/><path class="cls-1" d="M16.82,100.69h-.4v-.11h.4Z"/><path class="cls-3" d="M20.84,97.69,21,98l-.17-.28Z"/><path class="cls-3" d="M34.2,101.3l-.28,1.76-.09.45-.42.59c-.6,1.45-1.18,2.91-1.8,4.35a5.18,5.18,0,0,1-.6.87c.21-1,.35-2.06.63-3.07A40.85,40.85,0,0,1,33,102C33.16,101.68,33.79,101.54,34.2,101.3Z"/><path class="cls-1" d="M33.42,104.1l.42-.59Z"/><path class="cls-1" d="M56.52,145.16l2,1.29Z"/><path class="cls-1" d="M53.93,143.4l.76.51Z"/><path class="cls-1" d="M54.69,143.91l.55.47Z"/><path class="cls-1" d="M56,144.69l.55.47Z"/><path class="cls-1" d="M164.66,43.32l.6,1.07-.33.21-.64-1.07Z"/><path class="cls-1" d="M174.53,59.15c.21-.17.33-.34.46-.36s.29.21.28.3a.47.47,0,0,1-.31.31C174.86,59.42,174.72,59.27,174.53,59.15Z"/><path class="cls-1" d="M156.75,38.52c-.18,0-.3.11-.37.08s-.11-.17-.17-.26.16-.11.21-.09A1.81,1.81,0,0,1,156.75,38.52Z"/><path class="cls-1" d="M163.08,42.24c.07,0,.15-.07.19,0s.07.12.11.19-.15.07-.2,0S163.11,42.3,163.08,42.24Z"/><path class="cls-1" d="M124.12,134.4l3.09-8.84.48,1.62c2-2,4.54-1.06,6.94-1.28-.05.27,0,.47-.11.5-1.79.79-2.4,3.16-4.59,3.43-.19,0-.38.31-.5.52A8.39,8.39,0,0,1,124.12,134.4Z"/><path class="cls-3" d="M113.48,18.09c.17-1.84.36-3.68.49-5.52a3,3,0,0,0-.25-.94c.51-.36.89-1.75,1.63-.19-.89,2.37.09,4.82-.33,7.21Z"/><path class="cls-2" d="M113.55,31.53q0,.11-.05.21h-.57c-.78-2.85-.29-5.65.31-8.44a1.88,1.88,0,0,1,.33-.53H114Z"/><path class="cls-3" d="M113.55,31.53l.43-8.77c.17.14.49.29.49.43,0,1.08-.08,2.16-.12,3.23s-.1,2.41-.06,3.61c0,.34.33.66.51,1Z"/><path class="cls-3" d="M51.87,70.45a2.91,2.91,0,0,1,.76-.39A9.58,9.58,0,0,1,53.95,70c2.28,1.27,3.2,3.73,4.85,5.55.22.25.53.6.5.86-.31,2.06,1.49,2.89,2.4,4.23s1.95,2.74,2.92,4.1l1.6-1.19c.07.15.25.36.2.45-.7,1.35.06,1.69,1.19,1.94.3.07.49.63.72,1-1,.8-.9,1.85-.86,3.22A14.43,14.43,0,0,1,64.84,88c-2.15-2.73-4.2-5.53-6.19-8.38-.68-1-1-2.21-1.6-3.21a53.08,53.08,0,0,0-3.32-4.53A10.64,10.64,0,0,0,51.87,70.45Z"/><path class="cls-3" d="M59.68,72.5A48.15,48.15,0,0,1,68,82.76l-1.63.62c-1-1.59-2.08-3.16-3.09-4.77-.26-.42-.28-1-.59-1.38-1-1.14-2.06-2.19-3.06-3.31C59.21,73.47,58.79,72.93,59.68,72.5Z"/><path class="cls-3" d="M71.23,65.44l-5.66,1.33c-2.61.6-5.22,1.19-7.83,1.81-.18,0-.32.26-.47.4V67.41c.61-.15,1.21-.35,1.83-.45,3.17-.52,6.33-1,9.51-1.49A19.15,19.15,0,0,1,71.23,65.44Z"/><path class="cls-4" d="M66.36,83.38,68,82.76c.64.42,2.18,3.06,2,3.63-.06.22-.41.36-.63.54l-1.06,0h0c-.24-.34-.43-.9-.72-1-1.13-.25-1.9-.59-1.19-1.94,0-.09-.13-.29-.2-.45Z"/><path class="cls-3" d="M51.2,68.21a20.26,20.26,0,0,0-1.61-1.31c-.93-.62-1-1,0-1.57l3.12,2.1Z"/><path class="cls-2" d="M54.69,67.12l.14-.32s.09.07.09.08-.11.2-.17.3Z"/><path class="cls-1" d="M76,94.65l3.25,4.53c-.09.25-.31.53-.25.73a11.81,11.81,0,0,0,3.46,5.2l-1.22,1.39a4.35,4.35,0,0,1-1.17-.83c-1.88-2.71-3.65-5.5-5.59-8.16-.64-.87-.25-1.45,0-2.15Z"/><path class="cls-1" d="M68.33,86.92l1.06,0L73,91.76c-.23.75-.55.59-.91.09-.78-1.1-1.56-2.21-2.36-3.29C69.26,88,68.78,87.46,68.33,86.92Z"/><path class="cls-3" d="M90.16,82.32,89.89,84c-2.67-2-2.78-5.34-3.57-8.32-.72-2.73-1-5.56-1.6-8.33a24.46,24.46,0,0,0-1.15-4.16A3.22,3.22,0,0,0,80.88,61a2.15,2.15,0,0,1,2.52-.43c2.14,2,2.43,4.79,3,7.41.41,1.86.55,3.79.94,5.66.28,1.33.78,2.61,1.2,4l.8-.2.52,0h0l.59.12-1,.91c.67,1,.67,1,1.81.83.72-.1,1.3,0,1.24.92a6.34,6.34,0,0,0-1.52.13,3.2,3.2,0,0,0-1.39.86C89.46,81.29,89.94,81.92,90.16,82.32Z"/><path class="cls-3" d="M92.22,76.41l0,.48-1.84,0c-.37-2.11-.71-4.23-1.15-6.33a13.12,13.12,0,0,0-.85-2.09c-.16-.41-.3-.82-.44-1.23l1.18.64c.41.51,1,1,1.21,1.55.67,2.22,1.2,4.47,1.78,6.72Z"/><path class="cls-4" d="M90.42,76.91l1.84,0c1.17.91.63,2.18.71,3.33l-.5,0c.06-.94-.53-1-1.24-.92-1.14.16-1.14.16-1.81-.83l1-.91-.59-.12Z"/><path class="cls-4" d="M106.1,54.49a7.65,7.65,0,0,1-1.89.8c-1.5.2-3,.24-4.55.34l.91-.82,1.35-.83h0l3.2.39Z"/><path class="cls-3" d="M87.35,61l0,.46c.12,1.18.24,2.36.37,3.54,0,.36.11.73.17,1.09l-.32.07-1.72-6L86.3,60Z"/><path class="cls-3" d="M85.86,59.19c.26,0,.53-.06.79-.06a.78.78,0,0,1,.07.31c-.25.1-.5.17-.76.25Z"/><path class="cls-4" d="M89.87,77.4l-.52,0Z"/><path class="cls-1" d="M152.15,70.41l1.54-3.86,1.46.53.39-.46.06.05c-.9,1.57-1.79,3.16-2.74,4.7-.08.12-.67-.08-1-.12l.1-.52ZM153.73,68l.25.43.68-.51-.16-.26Z"/><path class="cls-3" d="M157.6,57.65l2.52-3.93.37.12-.36,3a3.75,3.75,0,0,0-1.33.15c-.35.2-.55.64-.82,1Z"/><path class="cls-3" d="M155.55,66.62l-.39.46-1.46-.53.61-1.32,2-.82Z"/><path class="cls-3" d="M112.92,31.74h.57a12.56,12.56,0,0,0,0,1.7,4.91,4.91,0,0,0,.46,1.12l-.23.54h0l-.5.77-.17,1c-.21-.18-.61-.37-.6-.54C112.6,34.82,112.77,33.28,112.92,31.74Z"/><path class="cls-2" d="M113.09,36.9l.17-1,.72,0,0,0v2.07q0,1.63,0,3.25h-.75l-.08-2Z"/><path class="cls-3" d="M113.16,39.19l.08,2Z"/><path class="cls-3" d="M152.15,70.41l-.21.31Z"/><path class="cls-1" d="M41.64,80l-.26.51h0l.25-.52Z"/><path class="cls-1" d="M42.48,78.79s0,.07,0,.08a.26.26,0,0,1-.1,0v-.14Z"/><path class="cls-1" d="M41.63,80l.11-.11-.11.12Z"/><path class="cls-1" d="M118.37,100.79l-.52,0h0c.07-2.11.19-4.22.18-6.33s-.14-4-.25-6c0-.9-.18-1.79-.27-2.69l.57-.11.77.36c.11.87.21,1.57.28,2.27.17,1.6.34,3.21.5,4.81q.33,3.46.63,6.92a1.68,1.68,0,0,1-.11.49Z"/><path class="cls-3" d="M111.33,72.49c-1.94,0-2,0-1.93-2,.13-3.79.32-7.58.52-11.37a6.79,6.79,0,0,1,.41-1.17,36.32,36.32,0,0,0,1-4.31c.07-.56-.47-1.2-.73-1.8.7-.28,1.06-1.66,2.15-.65,0,.38,0,.77,0,1.15a18.4,18.4,0,0,1-.25,2.44,16.8,16.8,0,0,0-.74,2.29c-.17,2.78-.2,5.58-.29,8.37-.09.87-.22,1.75-.25,2.63a4.79,4.79,0,0,0,.25,1.18l-.21,1,.73,0a.53.53,0,0,0,.21-.11l.83-.27-.41,3.68-.36,0V71.1Z"/><path class="cls-1" d="M111.45,65.44c.08-2.79.12-5.58.29-8.37a16.8,16.8,0,0,1,.74-2.29,18.4,18.4,0,0,0,.25-2.44c0-.38,0-.77,0-1.15a4.65,4.65,0,0,1,.71-1,8.14,8.14,0,0,1,1.3-.74c.17,1,.43,2-1,2.14.23.16.7.35.69.53,0,1.27.57,2.46.23,3.8a28.76,28.76,0,0,0-.64,4.76c-.12,1.43-.08,2.86-.11,4.3l-.74,0-.73.08Z"/><path class="cls-1" d="M101.95,54h0l0-.29H102Z"/><path class="cls-1" d="M103.58,52.71s.08,0,.08,0a.33.33,0,0,1,0,.11s-.08,0-.08,0A.34.34,0,0,1,103.58,52.71Z"/><path class="cls-4" d="M106.83,54.14l-.29.18Z"/><path class="cls-3" d="M72.72,64.61l-1.3.76a.3.3,0,0,1,0-.24Z"/><path class="cls-2" d="M112.59,73.58l.41-3.68-.05-1,1.81,1.55h0l-.49.79-.19,3.06C113.55,74.12,112.6,74.78,112.59,73.58Z"/><path class="cls-1" d="M112.95,68.92l.05,1-.83.27-.16-.25,0,.36-.73,0,.21-1Z"/><path class="cls-3" d="M112.48,65.09l.73-.08Z"/><path class="cls-3" d="M82.3,58.58c-.11-.22-.16-.54-.34-.65-1.12-.72-1-1.51-.19-2.37.1.07.3.14.29.2-.09,1.41,1.1,1.77,1.94,2.43C83.5,58.59,83.08,59.36,82.3,58.58Z"/><path class="cls-1" d="M76.26,62.51,75,63.08l.35-1.22.95.43A.49.49,0,0,0,76.26,62.51Z"/><path class="cls-1" d="M34.1,85.65l-.16.13-.15-.24c.07,0,.14-.09.2-.07S34.06,85.59,34.1,85.65Z"/><path class="cls-2" d="M3.74,117.28l-.26,0,.12-.17Z"/><path class="cls-4" d="M114.51,44.09l-.12,0-.12,0L113.84,43a6.18,6.18,0,0,1,1.76-.37c.42,0,.81.48,1.25.78Z"/><path class="cls-1" d="M113.23,44.57l.31-.39.2.39h-.51Z"/><path class="cls-2" d="M115.24,7.22l-.1-.36.37-1.58c1.13-1.19,2.45.06,3.64-.28.06.6,0,1.14-.76,1.2-.44-1.49-1.47.46-2-.36l-.82,1.27Z"/><path class="cls-3" d="M113.23,44.57h.51l-.3.34Z"/><path class="cls-4" d="M115.47,36.89q0-.63,0-1.25Q115.47,36.26,115.47,36.89Z"/><path class="cls-2" d="M114.5,35.83a.19.19,0,0,1-.17.05l-.32,0,0,0Z"/><path class="cls-2" d="M113.76,35.09l.09.05-.09-.05Z"/><path class="cls-2" d="M73.76,61.8l-.52.91-.35-.27.79-.71Z"/><path class="cls-2" d="M153.27,36.36l-.12.11.11-.12Z"/><path class="cls-1" d="M115.56,7.12l.82-1.27c.55.82,1.59-1.13,2,.36l-.22.51-.44-.23C117.42,8.11,116.24,6.75,115.56,7.12Z"/><path class="cls-2" d="M74.94,61.2l.24-.46.18.1-.33.43Z"/><path class="cls-1" d="M162.79,54.89l-.24-.26.26.24Z"/><path class="cls-4" d="M81.23,106.51l1.22-1.39,1-.26c.66.34,1.3.71,2,1s1.11.78.58,1.57c-.38-.39-.76-.69-1.18,0-1-.39-1.39.15-1.51,1l.09.66-.21.2Z"/><path class="cls-1" d="M83.34,108.45c.12-.9.49-1.44,1.51-1l-.45.77,1.76.66c-.94.7-1.59.86-2.2,0C83.85,108.62,83.55,108.56,83.34,108.45Z"/><path class="cls-3" d="M95.28,89.73c.65,2.27,1.28,4.54,1.95,6.8.44,1.5.94,3,1.42,4.48l-1.57,0c-.24-.85-.49-1.69-.71-2.54-.62-2.36-1.2-4.73-1.86-7.08-.2-.71-.35-1.29.48-1.65Z"/><path class="cls-4" d="M97.08,101l1.57,0,.19.17a4.91,4.91,0,0,1,1.82,4.72l-.49-.54c-.2-1.9-.39-2-2.24-1.6-.28.07-.58.08-.86.12a.42.42,0,0,0-.11-.05l-1.59-.18.67-1.78a1.6,1.6,0,0,0,0-.24Z"/><path class="cls-1" d="M92.47,80.17l.5,0c-.08.38-.16.77-.25,1.15s-.25.56-.18.79c.37,1.25.8,2.48,1.2,3.71L92.81,87l-1.68-6-1,1.41c-.21-.4-.7-1-.59-1.15a3.2,3.2,0,0,1,1.39-.86A6.34,6.34,0,0,1,92.47,80.17Z"/><path class="cls-4" d="M95.28,89.73l-.29,0-1-.08-.51-.7.24-.19-.26.17-.79-.11c.78-1.44,2-1,3.1-.91C96.2,88.7,95.8,89.23,95.28,89.73Z"/><path class="cls-4" d="M92.22,76.41l-.07-.25Z"/><path class="cls-1" d="M110.69,99.06h.72l.85.87.69.5c0,1.94-.32,2.21-2.63,2.12q0-1.5,0-3Z"/><path class="cls-4" d="M116,77.46l-.06,0-.06,0c.07-.91-.07-1.7-1.16-1.89L111,74.9l-.1-.13,1.36-1.22.36,0c0,1.21,1,.55,1.48.75l1.63.89.22-2.23Q115.95,75.22,116,77.46Z"/><path class="cls-4" d="M110.35,99.54q0,1.5,0,3l-1.57.38C109.23,101.54,108.6,100,110.35,99.54Z"/><path class="cls-1" d="M113.56,102.14l-.07.67-.28-1.22.17,0Z"/><path class="cls-1" d="M117.85,100.77l-.07.09.06-.1Z"/><path class="cls-3" d="M111,74.9l3.73.67c1.1.2,1.23,1,1.16,1.89-1.51.3-1.75,1.27-1.78,2.69-.12,5.58-.4,11.16-.62,16.74l-1.54-.55c-.11-.61,0-1.58-.37-1.75-.75-.39-.33-.81-.28-1.2.16-1.11.85-2.41.48-3.27-.83-2,.11-3.65.23-5.44s.68-3.66.95-5.51c.05-.35-.33-.83-.63-1.12-.09-.08-.6.27-.91.42-.15-.14-.3-.28-.44-.43C109.57,76.45,109.57,76.45,111,74.9Z"/><path class="cls-1" d="M111.39,78.46c.32-.15.83-.5.91-.42.3.3.68.77.63,1.12-.26,1.84-.82,3.66-.95,5.51s-1.06,3.49-.23,5.44c.37.86-.32,2.16-.48,3.27-.06.39-.47.81.28,1.2.34.17.26,1.15.37,1.75l-2.15.32c.14-2,.24-4,.42-6,.32-3.55.69-7.1,1-10.65Z"/><path class="cls-3" d="M112.26,99.92l-.85-.87C112.27,98.78,112.23,99.39,112.26,99.92Z"/><path class="cls-1" d="M94,89.68l1,.08c-.83.36-.68.94-.48,1.65.66,2.35,1.24,4.72,1.86,7.08.22.85.47,1.7.71,2.54l-1,.59c-1.38-.33-.87-1.65-1.14-2.45-.83-2.52-1.28-5.16-2-7.71C92.57,90.28,93,89.9,94,89.68Z"/><path class="cls-1" d="M97.06,103.89c.29,0,.58-.06.86-.12,1.85-.43,2-.3,2.24,1.6,0,.37,0,.74,0,1.21-.44-.42-.78-1.15-1.12-.06-.07.22-.64.28-1,.41l-1-2.64Z"/><path class="cls-4" d="M97.08,104.3l1,2.64-1.09.71a7.73,7.73,0,0,1-.49-1.18C96.28,105.65,95.79,104.72,97.08,104.3Z"/><path class="cls-3" d="M83.48,104.85l-1,.26A11.81,11.81,0,0,1,79,99.91c-.06-.2.16-.48.25-.73.92,1.21,1.85,2.41,2.76,3.62C82.51,103.47,83,104.17,83.48,104.85Z"/><path class="cls-3" d="M153.73,68l.77-.34.16.26-.68.51Z"/><path class="cls-1" d="M114,35.86l.32,0-.31,2Z"/><path class="cls-2" d="M112,70.27l0-.36.16.25A.54.54,0,0,1,112,70.27Z"/><path class="cls-4" d="M114.76,70.48l-.49.79Z"/><path class="cls-3" d="M93.47,89l.26-.17-.24.19Z"/></svg>