<svg id="Слой_1" data-name="Слой 1" xmlns="http://www.w3.org/2000/svg" viewBox="0 0 39 60"><title>Векторный смарт-объект3</title><path d="M19.5,23.56a1.5,1.5,0,0,0-1.5,1.5V57.75a1.5,1.5,0,0,0,3,0V25.06A1.5,1.5,0,0,0,19.5,23.56Z"/><path d="M38.17,17.95,20.55.72a1.42,1.42,0,0,0-.24-.16A1.53,1.53,0,0,0,20.06.4a1.47,1.47,0,0,0-.29-.06A1.51,1.51,0,0,0,19.5.29a1.51,1.51,0,0,0-.28.05,1.46,1.46,0,0,0-.29.06,1.53,1.53,0,0,0-.25.16,1.42,1.42,0,0,0-.24.15L.83,17.95a1.5,1.5,0,1,0,2.1,2.15L18,5.35V19.56a1.5,1.5,0,0,0,3,0V5.35L36.08,20.09a1.5,1.5,0,0,0,2.1-2.15Z"/></svg>