<svg id="Слой_1" data-name="Слой 1" xmlns="http://www.w3.org/2000/svg" viewBox="0 0 129 145"><defs><style>.cls-1{fill:#08081a;}.cls-2{fill:#f1eff3;}.cls-3{fill:#a0a2ab;}.cls-4{fill:#3a3d55;}.cls-5{fill:#fefefe;}.cls-6{fill:none;}</style></defs><title>Векторный смарт-объект</title><path class="cls-1" d="M110.39,2.68a.11.11,0,0,0,.08.11l3.65,5.49h0a.91.91,0,0,0,.06.32q4.15,6.49,8.33,13c.11.17.34.26.51.39h0l.17.54,1.51,3.07.48,1.08.22.51c.06.29.1.58.17.87q1,3.92,1.93,7.84l0,.46-.07,2.95c-.13,1.15-.22,2.31-.39,3.45-.28,1.84-.27,3.8-1.82,5.2-1.41.85-2.83,1.66-4.21,2.56a5.32,5.32,0,0,0-1,1.13,10.7,10.7,0,0,0-2.75,5l-.22.54-.52.55a2.4,2.4,0,0,0-.39.37c-.89,1.35-1.7,2.77-2.68,4-1.91,2.46-4.05,4.75-5.84,7.29a59.43,59.43,0,0,0-3.36,6.11l-.23.46-.44.7-.07.39-.86,1.41-.2.47a4.15,4.15,0,0,0-.59.65c-1.37,2.34-2.66,4.72-4.12,7a7,7,0,0,1-2,1.64c-.43.3-1.16.36-1.39.75a33.63,33.63,0,0,0-1.57,3.35c-.15.26-.3.52-.44.78-1.61,3-2.64,6.28-5,8.86l-.46.45-.22.24-2.9,3.74.3.31c2.66.24,3.9-2.21,6-3.43a4.44,4.44,0,0,1-.71,2.56c-.75,1.75-1.48,3.51-2.22,5.27a.66.66,0,0,0,0,.19,17.34,17.34,0,0,1-1.35,2.74c-1.07,1.48-1.27,3.19-1.64,4.89-.91,4.18-1.86,8.35-2.81,12.52a2,2,0,0,1-.46.77,3.85,3.85,0,0,1-4.94.18A8.73,8.73,0,0,0,71.28,130a17,17,0,0,0-4.06-.22,17,17,0,0,0-3.66.09,41,41,0,0,1-11.82,1c-.29,0-.77-.31-.79-.52a26,26,0,0,1,0-2.64h.22l-1.26-1.88,1.15-.1c-.06-.89.2-2-.24-2.49-1.19-1.35-.46-2.84-.7-4.23-.07-.4,0-1-.3-1.15a1.1,1.1,0,0,0-1.51,0,4.17,4.17,0,0,1-2.87.79,12.18,12.18,0,0,0-2.93.33c-1.11.21-2.18.62-3.29.77-1.77.24-3.58.24-5.35.52-2.71.43-5.38,1.17-8.1,1.49a58.91,58.91,0,0,0-11.92,3.13A2.62,2.62,0,0,0,12.66,126a18.86,18.86,0,0,0-1,2l1,2.62-.2,0c-1.83.14-3.66.35-5.49.42s-1.94-.07-1.81-2c0-.09-.11-.19-.17-.28l.45-.88.56-.2-.24-.29.14-.68.38-1,.27-.09.22.28.22-.38,2.52-.92c.64.46,1,.35,1.11-.48,2.21-.79,4.38-1.71,6.63-2.35,3.23-.91,6.52-1.67,9.8-2.4,1.88-.42,3.82-.55,5.7-1,3.31-.79,6.55-1.9,9.88-2.56a50.06,50.06,0,0,0,13.06-4.12l1.9.39.21-2.06c.43-.67.25-1.12-.48-1.41-1.19-.49-2.38-1-3.56-1.52a3.66,3.66,0,0,1-2.22-2,15.1,15.1,0,0,1,5.84-.21c2.65.28,5.27,1.05,7.93.15l-.88.33c2.29.12,4.5.13,6.7.12a13,13,0,0,0,2.16-.14c1.92-.34,3.84-.74,5.76-1.12.27,0,.59.18.8.08a6,6,0,0,0,1-.74,5.53,5.53,0,0,0,1.26-.43A13.56,13.56,0,0,0,87.72,97a15.75,15.75,0,0,0,1.82-2.55c.78-1.72,1.36-3.54,2-5.32l.24-.81h0c.49-1.29,1-2.56,1.47-3.87A113.66,113.66,0,0,0,98.72,60c.26-1.9.55-3.8.77-5.71.08-.67.16-1.35-.62-1.87a1.07,1.07,0,0,1-.1-1.7c.22-.24.46-.74.36-1-.5-1.21.09-2.31.2-3.46s.19-2,.28-3l-.66.51.16-1.07.18-1,0-.43.18-.49,0-.43a1.17,1.17,0,0,1,.06-.19,4.82,4.82,0,0,0,.48-1c1.12-4.4,2.21-8.81,3.33-13.21.43-1.68.93-3.34,1.4-5l1.8-5.86.15-.59c.14-.51.27-1,.43-1.52a42.47,42.47,0,0,0,2.37-11.23ZM64,106.45l-1.62-.1-.66,0c-.94-.08-1.88-.21-2.82-.22-.28,0-.57.29-.86.45a4,4,0,0,0,.73.69c1,.54,2.19.84,2.91,1.61a1.39,1.39,0,0,0,2.11.28,11.45,11.45,0,0,0,1.41-.93c.74-.65.54-1.38-.43-1.64A4.89,4.89,0,0,0,64,106.45Z"/><path class="cls-1" d="M12.62,130.65l-1-2.62a18.86,18.86,0,0,1,1-2,2.62,2.62,0,0,1,1.15-1.11,58.91,58.91,0,0,1,11.92-3.13c2.72-.32,5.39-1.06,8.1-1.49,1.77-.28,3.57-.28,5.35-.52,1.11-.15,2.19-.56,3.29-.77a12.18,12.18,0,0,1,2.93-.33,4.17,4.17,0,0,0,2.87-.79,1.1,1.1,0,0,1,1.51,0c.25.18.23.75.3,1.15.24,1.4-.5,2.89.7,4.23.43.49.17,1.59.24,2.49l-1.15.1,1.26,1.88h-.22a26,26,0,0,0,0,2.64c0,.21.51.51.79.52a41,41,0,0,0,11.82-1,17,17,0,0,1,3.66-.09,17,17,0,0,1,4.06.22A8.73,8.73,0,0,1,76,132.41a3.85,3.85,0,0,0,4.94-.18,2,2,0,0,0,.46-.77c1-4.17,1.9-8.34,2.81-12.52.37-1.69.57-3.4,1.64-4.89a17.33,17.33,0,0,0,1.35-2.74c0,.36.22.8.08,1.06a17.51,17.51,0,0,0-1.82,5.45c-.59,3.06-1.42,6.07-2.18,9.1a27.83,27.83,0,0,1-2.49,6.93c-.95,1.68-.76,2.39.79,3.69a1.44,1.44,0,0,1,.24,2.25c-.43.57-.81,1.16-.08,1.78l-1,.41,1.59.35L82,143.47l-.39.11-.3.08-1.36.48a32.21,32.21,0,0,1-3.84.48c-4.19,0-8.39.1-12.57-.1-3.11-.15-6.2-.75-9.31-1-2.71-.25-5.43-.33-8.14-.49-1.17-.07-2.33-.16-3.5-.26L35,142.1l-4.32-.48-.94-.19,1.48-.37c-3.06-.4-6.22-.8-9.38-1.23-2.57-.35-5.15-.66-7.7-1.14-2.35-.44-4.69-1-7-1.66-1.38-.37-2.7-1-4.05-1.41-.69-.23-1.41-.36-2.12-.53l-.63-.28,0-1.36.76-.82a7.43,7.43,0,0,1,2,.4c.54.27,1.05.47,1.35,0a2.08,2.08,0,0,0,.22-1.6,2.4,2.4,0,0,1,.24-2.51c.06.09.18.19.17.28-.13,1.88-.05,2,1.81,2s3.66-.27,5.49-.42c.08.6.34.95,1,1a19.55,19.55,0,0,1,2.43.22c.43.06.84.36,1.26.34,1.17-.06,2.43-.55,3.49-.27,1.73.46,3.32-.74,5-.1.13,0,.3,0,.45,0l3,.2a1.74,1.74,0,0,0,.49.05c2-.49,3.9-.71,5.71.52a1,1,0,0,0,.53.14c.89,0,1.77,0,2.57,0,.44-.34,1-1.06,1.36-1a10.22,10.22,0,0,0,3.61-.15c1.72-.19,3.44-.34,5.16-.55a.89.89,0,0,0,.64-.5,35,35,0,0,0,.47-3.77c0-.49-.48-1-.36-1.47a3,3,0,0,0-.53-3c-.16-.2,0-.62-.18-.85-.29-.45-.68-1.17-1-1.17a10.64,10.64,0,0,0-2.69.51,10.78,10.78,0,0,1-2,.63c-2.26.09-4.53,0-6.79.08-1.82,0-3.63.17-5.44.28-.47,0-.93.18-1.39.24-1.46.16-2.94.19-4.37.49-1.88.39-3.74.94-5.58,1.51a43.38,43.38,0,0,0-4.49,1.65A1.46,1.46,0,0,0,14,128a1.05,1.05,0,0,1,.06.19L14,129.58l-.9-.14.65,1.2Zm16.88,6.63-.24-.34-.14.34a.31.31,0,0,0-.06.09.26.26,0,0,0,0,.1c.51-.22,1.12.79,1.58-.13l8.86.82a5.53,5.53,0,0,0,.87-.06v-.37c-.64,0-1.29,0-1.93-.09-2.52-.22-5-.47-7.55-.66a3.39,3.39,0,0,0-1.12.33Zm-18-.88.09.05-.09-.05-.17-.6,4.51.34,0,.38H13.27A66.75,66.75,0,0,0,24.36,138l.05-.43-7.76-1,0-.2h1.76v-.14L5.32,134.37a18.48,18.48,0,0,0,3.52,1.73A12.58,12.58,0,0,0,11.52,136.4Zm42.14,3.16c0,.1.08.29.13.29,1.17.09,2.34.17,3.5.24a7,7,0,0,0,1.73,1,19.33,19.33,0,0,0,2.81.3c2,.21,4,.44,6,.64,1,.1,2.08.17,3.12.25l0-.25-2.08-.48,0-.19h2.3v-.21l-23.09-2.76,0,.3,1.51.43c.85.18,1.69.37,2.54.53,0,0,.14-.23.21-.35l.43,0,.43,0ZM41.08,137.8l0,.45,5.54.49,0-.37Zm-15.94-1.44,0,.39,3.37.4.06-.59Zm-4.32.19.06-.11-1.65-.22,0,.33ZM4.61,134.2s0,.07,0,.08a.28.28,0,0,0,.1,0l0-.13Z"/><path class="cls-2" d="M117.1,57.15l.22-.54.73-.76,1.19-1.18.46.25L119,58.3l.36.2c1.45-1.56,2.91-3.12,4.35-4.69,1-1.13,2-2.28,3.07-3.43-1.13,4.08-2.31,8.15-3.37,12.24S121.23,70.8,120.45,75c-.61,3.25-.76,6.59-1.14,9.89a7.49,7.49,0,0,1-.35,1.22c0-.41-.08-.83-.07-1.24A100.52,100.52,0,0,1,121,67.69c.41-2-.53-3.18-2.77-3.37-.53-.93-1.43-.79-2.21-.61A2.56,2.56,0,0,0,114,65.95L110.2,72.3,109,74.64c-.67,1-1.37,2.06-2,3.14-3.45,6-5.65,12.57-8.15,19-1.18,3-2.4,6.06-3.82,9-2.1,4.33-3.18,9-4.65,13.53A75.7,75.7,0,0,0,87.59,134a19,19,0,0,1-.85,4.94,2.25,2.25,0,0,1-.32.45l-1.08.67c0-.43.24-.69.29-1,.1-.58.33-1.55.09-1.7-1.19-.77-.67-1.75-.62-2.72a19.47,19.47,0,0,0,0-4c-.35-2.23.29-4.28.76-6.37.38-1.67.88-3.31,1.37-4.94.8-2.65,1.6-5.31,2.48-7.94.62-1.85,1.45-3.63,2-5.49.51-1.63.75-3.3,1.9-4.73a29,29,0,0,0,2.09-3.87C97,95.09,98.42,93,99.46,90.8c1.66-3.57,3-7.3,4.61-10.89a70,70,0,0,1,3.73-7c.52-.87,1.58-1.41,2.17-2.26,1.17-1.67,2.24-3.42,3.24-5.19a29.86,29.86,0,0,0,1.37-3.21L116.66,58C117.27,58,117.44,57.68,117.1,57.15Z"/><path class="cls-3" d="M114.59,62.3a29.86,29.86,0,0,1-1.37,3.21c-1,1.78-2.07,3.52-3.24,5.19-.59.85-1.65,1.39-2.17,2.26a70,70,0,0,0-3.73,7c-1.63,3.59-3,7.32-4.61,10.89-1,2.24-2.5,4.29-3.73,6.44a29,29,0,0,1-2.09,3.87c-1.14,1.43-1.39,3.1-1.9,4.73-.58,1.86-1.42,3.64-2,5.49-.88,2.63-1.68,5.29-2.48,7.94-.49,1.64-1,3.28-1.37,4.94-.47,2.09-1.11,4.15-.76,6.37a19.47,19.47,0,0,1,0,4c-.05,1-.57,2,.62,2.72.24.16,0,1.12-.09,1.7-.05.29-.29.55-.29,1l1.08-.67a7,7,0,0,1-3.3,3.89l-1.15.22.37-1.14L80.76,142l1-.41c-.73-.63-.35-1.22.08-1.78a1.44,1.44,0,0,0-.24-2.25c-1.55-1.29-1.74-2-.79-3.69a27.83,27.83,0,0,0,2.49-6.93c.77-3,1.59-6,2.18-9.1a17.51,17.51,0,0,1,1.82-5.45c.15-.26,0-.7-.08-1.06a.67.67,0,0,1,0-.19c.18-.17.44-.31.54-.52,1.3-2.88,2.65-5.75,3.84-8.68a18.47,18.47,0,0,0,.7-3.41l-.45-.15c-.4.7-.81,1.39-1.18,2.1a9.74,9.74,0,0,1-3.21,3.88,5.37,5.37,0,0,1-1.06.39l.34-2.07.22-.24.46-.45c2.33-2.58,3.36-5.88,5-8.86.14-.26.29-.52.44-.78l1.2-.63.69,1.41A27.89,27.89,0,0,0,98.19,89c1.63-2.93,3-6,4.41-9.06.13-.27-.05-.69-.09-1l.2-.47c.83-.14.92-.73.86-1.41l.07-.39.44-.7.23-.46a10.74,10.74,0,0,0,1.63-1.76c1.41-2.4,2.52-5,5.1-6.49a.5.5,0,0,0,.15-.17c.92-1.42,1.83-2.85,2.76-4.26A3.12,3.12,0,0,1,114.59,62.3Z"/><path class="cls-4" d="M77.91,44.11c-1.59,3.15-3.13,6.32-4.77,9.44q-4.93,9.39-9.94,18.73Q57.75,82.5,52.25,92.7a26.9,26.9,0,0,1-1.5,2.24l0-.89.46-.68,0-.21-.14.11-.41.28,0-1.15c1.19-2.27,2.42-4.52,3.56-6.82,4.53-9.1,9-18.25,13.58-27.3,4.05-7.94,8.32-15.77,12.49-23.65a6.6,6.6,0,0,0,1.18-1.17c1.69-2.85,3.33-5.73,5-8.6a7.14,7.14,0,0,1-.41,1.59C83.56,31.23,81,36,78.47,40.81a8.43,8.43,0,0,0-.33.82,1,1,0,0,0,.62-.56c2.37-4.41,4.63-8.88,7.13-13.21,2.06-3.57,4.31-7,6.65-10.44,2.58-3.74,5.37-7.33,8-11a3.29,3.29,0,0,0,.29-1.12l1.37-1.82.91-.7.45-.22c.52-.08,1.19,0,.7-.9L105.78,1l.63.12a.66.66,0,0,0,.07-.13h.69l.32.46-.08,1.32A2.93,2.93,0,0,0,104.11,4a23,23,0,0,0-2.49,2.48c-2.73,3.68-5.38,7.42-8.07,11.14-.67.86-1.4,1.68-2,2.6-1.5,2.35-3,4.73-4.37,7.13s-2.85,5.05-4.28,7.58c-.94,1.67-1.9,3.33-2.82,5C79.35,41.3,78.64,42.71,77.91,44.11ZM55.56,85.82l.23-.46L55.9,85l-.1,0-.09.29-.24.45-.08.17Zm1.8-3.68.23-.46.24-.45.22-.46.1-.12-.11.1-.23.45-.22.46-.23.45-.24.44-.38-.13.39-1,.67-1.15-.31-.12-.36,1.28L56,83.74l-.08,0s0,0,0,.06l.1-.1.51.73.66-1.85Zm-3.15,6.2.12-.36-.22.26,0,.22Zm-.46.91.12-.36-.11,0-.11.29,0,.22ZM65.06,65l-.23.46-.24.45-1.35,2.75L62.55,70l-.11.33.09,0,.11-.28.68-1.37L64.69,66l.22-.46.24-.45,0-.21Zm-3,5.93-.12.34.1,0,.11-.28.07-.17ZM61,74.84v-.45l.89-2.58a20.8,20.8,0,0,0-2.16,3.79c-.46,1-.83,2.07-1.24,3.11l-.23.46-.09,0s0,0,0,.07l.11-.1.23-.45.68-.91v.69l-.23.46-.24.45-.24.45-.18.27.13.06.08-.31.22-.46.22-.46.23-.46.46-.91.23-.46.23-.46.23-.46.23-.46.23-.46ZM51.8,92.33a2.94,2.94,0,0,0-.31.27s.06.12.09.18l.35-.34.25-.44.45-.92,0-.22-.14.11-.47.91Zm1.27-1.93.39-.55-.18-.12-.32.56,0,.22Zm1.72-3.53-.38.58.24.13.24-.62,0-.22ZM76.5,43.6l.46-.45-.39,1.63.19.07,1.11-2.21-.15-.09-.74.6v-.46l.65-1.13-.29-.11L77,42.7l-.46.91-.23.46-.92,1.59-.67.94.33.16.36-1.09.9-1.61ZM69.72,56.43l1.59-2.57-.39-.21-1.31,2.69-.11.34.1,0Zm4.71-9.19-2.81,5,.47.24,2.37-5.23.09-.12Zm-6.57,13L67.51,60l-2.22,4.36.36.18Zm0-.58.29.15L69,58.13,68.67,58Zm3.42-6.44.2.13a2.43,2.43,0,0,0,.18-.36s-.14-.09-.22-.14Zm-1.93,3.94,0,.06h.05Zm-.28.49.05,0V57.6ZM55.19,86.3l0,.07h.06Z"/><path class="cls-4" d="M115.1,135.45l-.51-.08-1.09-.16c-.26-.29-.67-.54-.74-.87a12.42,12.42,0,0,1-.13-2c.27-.86.51-1.72.82-2.57.15-.41.56-.77.62-1.18.28-2.13.59-4.26.69-6.4.12-2.46,0-4.93,0-7.4a9.78,9.78,0,0,1,.19-1.33c.15-.14.43-.28.43-.43,0-1.4,0-2.81.06-4.21.07-4.85.23-9.71.19-14.56A101.42,101.42,0,0,1,116.85,78c.11-.74.3-1.47.45-2.2.15.29.43.58.43.87,0,1.34-.24,2.68-.17,4,.16,3,.44,5.93.69,8.89,0,.13.15.24.23.36q-.07,3.52-.13,7l-.09,1-.12,7.25-.12,3.23,0,2.73a3.5,3.5,0,0,0-.43,1.11c0,3,0,6,0,9,0,2.26-.18,4.52-.18,6.78a4.64,4.64,0,0,0,.67,1.59l0,.42c-.24.48-.68,1-.68,1.44,0,1.26.22,2.52.35,3.77l-.1,0-.8.17-.66.09Z"/><path class="cls-1" d="M117.3,75.76c-.15.73-.33,1.46-.45,2.2a101.42,101.42,0,0,0-1.19,16.26c0,4.85-.12,9.71-.19,14.56,0,1.4,0,2.81-.06,4.21,0,.15-.28.28-.43.43,0-.08,0-.17,0-.25a2,2,0,0,0,.06-.33q.11-10.87.22-21.74a3.49,3.49,0,0,0-.15-.73,1.93,1.93,0,0,0-.42.07c-.34.15-.68.33-1,.49-.07-.35-.15-.71-.21-1.06-.13-.81.42-1.87-.83-2.28-.07,0-.06-.28-.08-.43-.05-.66-.1-1.32-.15-2.07l-1,.24-.31-.29-.06-.41-.1-1-.14-.87-.07-.73-.15-.87-.1-.73-.12-.64-.07-.44-.12-.62-.09-.52-.13-.62-.11-.58-.18-.64-.18-.48,0-.43.15-.43c.26-.75.63-.28.75,0A30.31,30.31,0,0,1,111.35,78a19.6,19.6,0,0,1,.39,1.94l.23,0,.33-3.86.67.21c.28-.37.52-.92.7-.9.93.1,1.85.35,2.87.56a3.74,3.74,0,0,0,.24-.82c.13-1.08.2-2.17.3-3.26h0l.66-.24-.21,1.83v.23l-.22,1.59Z"/><path class="cls-3" d="M115,113.17c0,.08,0,.17,0,.25a9.72,9.72,0,0,0-.19,1.33c0,2.47.08,4.94,0,7.4-.1,2.14-.41,4.27-.69,6.4-.05.41-.47.76-.62,1.18-.31.84-.55,1.71-.82,2.57,0-1.19.12-2.38.1-3.57-.12-7.09-.18-14.19-.43-21.27-.21-6.1-.66-12.19-1-18.29a8.56,8.56,0,0,1,0-.89,2.23,2.23,0,0,1,.27.59c.22,1.6.33,3.22.63,4.81s1,3.12,1.13,4.71c.22,2.6.12,5.17.88,7.76.54,1.86.23,4,.34,6A3.8,3.8,0,0,0,115,113.17Z"/><path class="cls-2" d="M107.49,1.44,107.17,1l.29-.63c1-.14,1.58.56,2.18,1.2l-.12.14-.08.07.13.13,0,0a42.47,42.47,0,0,1-2.37,11.23c-.16.5-.29,1-.43,1.52l-.15.59-1.8,5.86c-.21.12-.54.2-.61.38a22.17,22.17,0,0,0-.91,2.66c-.91,3.57-1.81,7.14-2.65,10.73-.42,1.79-.7,3.6-1,5.41a1.18,1.18,0,0,0-.06.19l-.35.2.3.22-.18.49-.35.2.3.22-.18,1L98,42.63v-.32l.1-.52c.66-3.69,1.28-7.38,2-11.06.48-2.41,1.11-4.79,1.67-7.19h0l.38-1.09c.82-2.47,1.7-4.92,2.46-7.41,1.1-3.63,2.18-7.28,3.13-10.95A7.74,7.74,0,0,0,107.49,1.44Z"/><path class="cls-3" d="M126.75,50.38c-1,1.14-2,2.3-3.07,3.43-1.44,1.57-2.9,3.13-4.35,4.69l-.36-.2.72-3.39-.46-.25L118,55.85l-.73.76a10.71,10.71,0,0,1,2.75-5c.84-.26,1.66-.55,2.51-.76a4.24,4.24,0,0,0,2.67-2.94c1.55-1.4,1.54-3.36,1.82-5.2.18-1.14.26-2.3.39-3.45a3.45,3.45,0,0,1,.29,1.22c-.31,2,.6,3.75.91,5.63l0,.47-1.06,2.48Z"/><path class="cls-4" d="M115,113.17a3.8,3.8,0,0,1-.39-1.05c-.11-2,.21-4.11-.34-6-.76-2.59-.65-5.17-.88-7.76-.14-1.59-.83-3.12-1.13-4.71s-.42-3.21-.63-4.81a2.23,2.23,0,0,0-.27-.59l-.11-1.16.14-1.79,1-.24c.05.74.1,1.4.15,2.07,0,.15,0,.41.08.43,1.26.41.71,1.46.83,2.28.06.36.14.71.21,1.06.34-.17.68-.34,1-.49a1.93,1.93,0,0,1,.42-.07,3.49,3.49,0,0,1,.15.73q-.1,10.87-.22,21.74A2,2,0,0,1,115,113.17Z"/><path class="cls-3" d="M117.53,73.7v-.23c.23-.25.59-.47.65-.75a28.77,28.77,0,0,0,.67-4c.1-1.49.34-3-.61-4.4,2.24.19,3.18,1.33,2.77,3.37a100.52,100.52,0,0,0-2.13,17.13c0,.41,0,.83.07,1.24v.42a11.31,11.31,0,0,0-.26,1.13c-.09.76-.15,1.52-.22,2.28-.08-.12-.22-.24-.23-.36-.25-3-.53-5.92-.69-8.89-.07-1.33.15-2.67.17-4,0-.29-.28-.58-.43-.87V75.3C118,74.85,118.31,74.36,117.53,73.7Z"/><path class="cls-4" d="M117.09,71.88c-.1,1.09-.18,2.18-.3,3.26a3.74,3.74,0,0,1-.24.82c-1-.22-1.93-.46-2.87-.56-.18,0-.42.53-.7.9l-.67-.21L112,79.94l-.23,0a19.6,19.6,0,0,0-.39-1.94,30.31,30.31,0,0,0-1.06-2.95c-.12-.28-.5-.76-.75,0h-.39l-.11-.44,1.17-2.34a4.12,4.12,0,0,0,.56,0c.88-.07,1.93.35,2.41-.89a1,1,0,0,1,.84,0A3,3,0,0,0,117.09,71.88Z"/><path class="cls-2" d="M102.24,3.46l-1.37,1.82h-.25c-.52.64-1.07,1.26-1.55,1.94Q92.77,16,86.49,24.85c-1.66,2.87-3.3,5.75-5,8.6a6.6,6.6,0,0,1-1.18,1.17c1.12-2.15,2.16-4.34,3.38-6.43A176.93,176.93,0,0,1,98.15,7.38c1.24-1.56,2.71-2.93,4.08-4.39l.1.1Z"/><path class="cls-3" d="M1,135.09c.71.17,1.43.3,2.12.53,1.36.45,2.68,1,4.05,1.41,2.31.63,4.64,1.22,7,1.66,2.55.48,5.13.78,7.7,1.14,3.16.43,6.32.83,9.38,1.23l-1.48.37L19,140.26l-.45,0-.63-.05a2.86,2.86,0,0,0-.77-.33A52.37,52.37,0,0,1,4.5,137,25.7,25.7,0,0,1,1,135.09Z"/><path class="cls-3" d="M4.95,128.87a2.4,2.4,0,0,0-.24,2.51,2.08,2.08,0,0,1-.22,1.6c-.3.51-.81.31-1.35,0a7.43,7.43,0,0,0-2-.4l-.76.82-.13-.86-.2-.81-.06-.4.21-1.15,2.55,1a7.92,7.92,0,0,0,.3-1.46c0-2,.83-2.94,2.8-3l-.14.68-.33.49Z"/><path class="cls-4" d="M5.86,126.82c-2,0-2.8.94-2.8,3a7.92,7.92,0,0,1-.3,1.46l-2.55-1-.13-.45.61-1.94.31-.56a.83.83,0,0,0,.1-.15l.39-.51h0l2.9-2.52.28.32a3.47,3.47,0,0,0-.43.52c-.12.22-.31.59-.23.68a1.19,1.19,0,0,0,.76.32,13.21,13.21,0,0,0,1.47-.07Z"/><path class="cls-2" d="M128.65,46.11c-.3-1.87-1.22-3.64-.91-5.63a3.45,3.45,0,0,0-.29-1.22l.07-2.95,0-.46q-1-3.92-1.93-7.84c-.07-.29-.12-.58-.17-.87a12.44,12.44,0,0,1,2.34,6c.52,2.89,1,5.79,1.25,8.71A24.63,24.63,0,0,1,128.65,46.11Z"/><path class="cls-2" d="M1,135.09A25.7,25.7,0,0,0,4.5,137a52.37,52.37,0,0,0,12.7,2.81,2.86,2.86,0,0,1,.77.33,40,40,0,0,1-4.49-.42c-3.24-.66-6.49-1.37-9.67-2.28a13,13,0,0,1-3.26-2c-.15-.1-.14-.46-.2-.7Z"/><path class="cls-2" d="M118,111.09q0-1.36,0-2.73h.31a5.84,5.84,0,0,1,.13.88q0,10,0,19.91a6.24,6.24,0,0,1-.12.88l-.27-.06,0-.42Q118,120.32,118,111.09Z"/><path class="cls-3" d="M20.63,115.86q0,.2,0,.4c-2.44.92-4.92,1.75-7.31,2.78a33.9,33.9,0,0,0-8.64,5.35l-.28-.31L6.73,122h0l3-2,.18-.1c1-.46,1.95-1,3-1.36C15.45,117.67,18,116.78,20.63,115.86Z"/><path class="cls-2" d="M123,22c-.17-.13-.4-.22-.51-.39q-4.18-6.48-8.33-13a.91.91,0,0,1-.06-.32,3.33,3.33,0,0,1,.73.61q3.92,5.89,7.79,11.8A4.64,4.64,0,0,1,123,22Z"/><path class="cls-2" d="M118.48,89.89c.07-.76.13-1.52.22-2.28a11.31,11.31,0,0,1,.26-1.13c0,1.19.14,2.38.12,3.56,0,2.18-.13,4.36-.23,6.53a3.37,3.37,0,0,1-.3.89l-.19-.54Z"/><path class="cls-3" d="M50.69,92.39l0,1.15h0l-.23.46-.08,0s0,0,0,.06l.1-.1.18,0,.1.1,0,.89v0c-.27.22-.55.43-.8.67-.6.58-1.18,1.18-1.77,1.78L48,96.52Z"/><path class="cls-2" d="M6.73,122l-2.33,2.05L1.5,126.6A3.68,3.68,0,0,1,2,125.55c1.12-1.1,2.26-2.18,3.46-3.19C5.78,122.11,6.31,122.13,6.73,122Z"/><path class="cls-3" d="M118.05,130l.27.06c0,1.4,0,2.8-.07,4.19,0,.33-.34.64-.53,1-.13-1.26-.34-2.51-.35-3.77C117.37,130.92,117.81,130.44,118.05,130Z"/><path class="cls-2" d="M118.14,105.13l.12-7.25h.29l-.15,7.75Z"/><path class="cls-2" d="M114.11,8.28l-3.65-5.49c.16.08.39.11.47.24q1.59,2.39,3.13,4.81C114.14,8,114.1,8.13,114.11,8.28Z"/><path class="cls-3" d="M118.14,105.13l.26.48-.07,2.74H118Z"/><path class="cls-2" d="M9.75,120.08l-3,2A4.21,4.21,0,0,1,9.75,120.08Z"/><path class="cls-2" d="M127.55,49.06l1.06-2.48A2.23,2.23,0,0,1,127.55,49.06Z"/><path class="cls-3" d="M111.38,85.33l-.14,1.79L111.07,85Z"/><path class="cls-2" d="M103.6,2.54l-.45.22-.82.33-.1-.1,1.43-1.07Z"/><path class="cls-2" d="M.08,129.77l.13.45L0,131.37Z"/><path class="cls-3" d="M103.6,2.54l.05-.62.64-.28C104.79,2.5,104.13,2.47,103.6,2.54Z"/><path class="cls-3" d="M107.47.35l-.29.63h-.69L106.38.8Z"/><path class="cls-2" d="M110.39,2.68l-.83-.81,0,0a.22.22,0,0,1,0-.2l.12-.14Z"/><path class="cls-3" d="M115.1,135.45l1.07,0Z"/><path class="cls-3" d="M113.5,135.21l1.09.16Z"/><path class="cls-3" d="M110.91,83.67l.1,1Z"/><path class="cls-3" d="M118.54,97.86h-.29l.09-1,.19.54Q118.54,97.66,118.54,97.86Z"/><path class="cls-2" d="M125.16,26.63l-.48-1.08Z"/><path class="cls-3" d="M110.7,82.08l.07.73Z"/><path class="cls-3" d="M110.45,80.48l.1.73Z"/><path class="cls-2" d="M.06,131.77l.2.81Z"/><path class="cls-2" d="M106.38.8l.11.18a.62.62,0,0,1-.07.13L105.78,1Z"/><path class="cls-3" d="M116.83,135.39l.8-.17Z"/><path class="cls-2" d="M1.49,126.6l-.39.51Z"/><path class="cls-3" d="M110.26,79.41l.07.44Z"/><path class="cls-2" d="M1,127.27l-.31.56Z"/><path class="cls-3" d="M110,78.27l.09.52Z"/><path class="cls-3" d="M109.79,77.07l.11.58Z"/><path class="cls-3" d="M109.43,75.94l.18.48Z"/><path class="cls-3" d="M109.15,75.08h.39l-.15.43Z"/><path class="cls-2" d="M18.59,140.21l.45,0Z"/><path class="cls-3" d="M105.78,1l.63.14L105.78,1Z"/><path class="cls-2" d="M123.17,22.49l-.17-.54Z"/><path class="cls-4" d="M101.8,23.54c-.56,2.4-1.19,4.78-1.67,7.19-.73,3.67-1.34,7.37-2,11.06l-.1.52v.32l-.81,8.84.25.19c.18-.25.5-.48.53-.75.25-2,.44-4,.67-6a7,7,0,0,1,.29-1.07l.66-.51c-.09,1-.19,2-.28,3s-.7,2.25-.2,3.46c.1.24-.13.73-.36,1a1.07,1.07,0,0,0,.1,1.7c.79.53.7,1.2.62,1.87-.22,1.91-.51,3.81-.77,5.71a4.49,4.49,0,0,0-.56,1c-.54,2.24-1.12,4.48-1.51,6.74a139.4,139.4,0,0,1-4.12,17.33c-.32,1-.5,2.12-.74,3.18h0l-.24.81c-.66,1.78-1.24,3.6-2,5.32A15.75,15.75,0,0,1,87.72,97a3.51,3.51,0,0,1,.12-.53q1.47-3.82,2.95-7.63l.33-1.19-.23-.06-.41,1.25a1.11,1.11,0,0,1,0,.18H90c1-4,2-8,2.91-12,.67-3,1.18-6,1.76-9l.09-.7c.29-2.25.6-4.5.86-6.76,0-.23-.18-.49-.3-.72s-.33-.59-.5-.88l1-.06.26-3.13v-.55L96.32,52l.53-3.53-.36-.14a12.41,12.41,0,0,0-1.62,1.16c-2.54,2.49-5.08,5-7.53,7.53-1.13,1.19-2.07,2.56-3.09,3.85l-.44.49-.86,1-.63.59c-.06-.23-.24-.58-.16-.66.83-.85.26-1.6-.15-2.34s-1-1.59-1.47-2.43c-1.09-2.13-1.81-3.72,1-5.43.29-.18.67-.62.62-.88-.27-1.53,1.07-2.5,1.28-3.86a4.06,4.06,0,0,1,.7-1.26c.8-1.34,1.55-2.71,2.43-4,1.07-1.56,2.26-3,3.51-4.73-.29-1.49-.26-1.54,1.6-2.62.66,1,1.55.89,2.83.37l-2-.81,1.15-2.43A2.79,2.79,0,0,1,95,34.23a17.89,17.89,0,0,0,.82,3.47,2,2,0,0,1-.12,1.91,1.59,1.59,0,0,0-.22,1.3c.85,1.55-.08,2.85-.69,4-.47.88-.63,1.36.17,1.92l-.51,1.1,2.48-.38c.27-2.33.41-5,.93-7.57,1.06-5.32,2.33-10.59,3.53-15.88C101.43,23.9,101.65,23.73,101.8,23.54Z"/><path class="cls-3" d="M12.62,130.65h1.11l-.65-1.2.9.14.09-1.42a3.28,3.28,0,0,0,2.51.58c2.56-.26,5.16,0,7.75-.12,2.1-.08,4.18-.39,6.32-.29a31.58,31.58,0,0,0,5.54-.45c1.72-.22,3.43-.54,5.12-.92,1.45-.33,2.87-.81,4.3-1.24a1.22,1.22,0,0,0,.38-.24l1.53-1.24-.37-1.79c-1,.11-2.25.28-3.47.38-2.51.21-5,.43-7.54.55s-4.76,0-7.13.21-5,.59-7.5,1c-2.8.43-5.71.69-7.49,3.4a1.46,1.46,0,0,1,.67-2.26,43.38,43.38,0,0,1,4.49-1.65c1.84-.57,3.7-1.12,5.58-1.51,1.43-.3,2.91-.32,4.37-.49.47-.05.93-.21,1.39-.24,1.81-.11,3.63-.24,5.44-.28,2.26-.06,4.53,0,6.79-.08a10.78,10.78,0,0,0,2-.63,10.64,10.64,0,0,1,2.69-.51c.36,0,.74.73,1,1.17.15.23,0,.65.18.85a3,3,0,0,1,.53,3c-.12.42.39,1,.36,1.47a35,35,0,0,1-.47,3.77.89.89,0,0,1-.64.5c-1.71.21-3.44.35-5.16.55a10.22,10.22,0,0,1-3.61.15c-.36-.08-.92.64-1.36,1-.8,0-1.69,0-2.57,0a1,1,0,0,1-.53-.14c-1.81-1.23-3.74-1-5.71-.52A1.74,1.74,0,0,1,29,132l-3-.2c-.15,0-.32.07-.45,0-1.66-.65-3.25.55-5,.1-1.06-.28-2.32.21-3.49.27-.41,0-.83-.28-1.26-.34a19.55,19.55,0,0,0-2.43-.22c-.69,0-.94-.36-1-1Z"/><path class="cls-4" d="M102.51,78.95c0,.35.21.77.09,1-1.42,3-2.77,6.13-4.41,9.06a27.89,27.89,0,0,1-3.44,4.07l-.69-1.41-1.2.63A33.49,33.49,0,0,1,94.42,89c.23-.39,1-.44,1.39-.75a7,7,0,0,0,2-1.64c1.45-2.28,2.75-4.67,4.12-7A4.15,4.15,0,0,1,102.51,78.95Z"/><path class="cls-3" d="M91.78,88.3c.24-1.06.42-2.14.74-3.18A139.4,139.4,0,0,0,96.64,67.8c.39-2.27,1-4.5,1.51-6.74a4.49,4.49,0,0,1,.56-1,113.62,113.62,0,0,1-5.47,24.41C92.83,85.75,92.28,87,91.78,88.3Z"/><path class="cls-4" d="M86.77,102.67l-.34,2.07a5.37,5.37,0,0,0,1.06-.39,9.74,9.74,0,0,0,3.21-3.88c.38-.71.79-1.4,1.18-2.1l.45.15a18.47,18.47,0,0,1-.7,3.41c-1.19,2.93-2.54,5.79-3.84,8.68-.1.21-.36.35-.54.52.74-1.76,1.48-3.51,2.22-5.27a4.44,4.44,0,0,0,.71-2.56c-2.11,1.21-3.36,3.66-6,3.43l-.3-.31Z"/><path class="cls-4" d="M114.59,62.3a3.12,3.12,0,0,0-.63.55c-.94,1.41-1.84,2.84-2.76,4.26a.5.5,0,0,1-.15.17c-2.58,1.48-3.7,4.09-5.1,6.49a10.74,10.74,0,0,1-1.63,1.76,59.42,59.42,0,0,1,3.36-6.11c1.79-2.54,3.93-4.83,5.84-7.29,1-1.28,1.79-2.7,2.68-4a2.38,2.38,0,0,1,.39-.37l.08.3Z"/><path class="cls-2" d="M90.43,89a1.08,1.08,0,0,0,0-.18h.31q-1.47,3.81-2.95,7.63a3.51,3.51,0,0,0-.12.53,13.56,13.56,0,0,1-5.64,6.3,5.51,5.51,0,0,1-1.26.43l0-.37h0l.7-.47h0l.46-.47h0l.47-.24h0l.24-.24h0l.7-.7h0l.24-.24h0l.47-.23h0l.23-.47v0l.7-.7v0l.24-.47v0L85.4,99v0l.47-.7h0l.47-.7v0L87.22,96v0l.24-.48v0Z"/><path class="cls-3" d="M99.6,40.24c.34-1.8.63-3.62,1-5.41.84-3.59,1.74-7.16,2.65-10.73a22.17,22.17,0,0,1,.91-2.66c.07-.18.4-.26.61-.38-.47,1.67-1,3.33-1.4,5-1.12,4.4-2.21,8.81-3.33,13.21A4.82,4.82,0,0,1,99.6,40.24Z"/><path class="cls-3" d="M98.94,43.79a7,7,0,0,0-.29,1.07c-.23,2-.42,4-.67,6,0,.27-.35.5-.53.75l-.25-.19L98,42.63l1.09.09Z"/><path class="cls-3" d="M61.68,106.31l.66,0c.5.68,1.05.52,1.62.1a4.9,4.9,0,0,1,.79.08c1,.26,1.17,1,.43,1.64a11.39,11.39,0,0,1-1.41.93L61,107.31Z"/><path class="cls-4" d="M61.68,106.31l-.68,1,2.76,1.8a1.39,1.39,0,0,1-2.11-.28c-.72-.77-1.94-1.06-2.91-1.61a4,4,0,0,1-.73-.69c.29-.16.57-.45.86-.45C59.81,106.1,60.74,106.23,61.68,106.31Z"/><path class="cls-4" d="M125.25,47.91a4.24,4.24,0,0,1-2.67,2.94c-.85.21-1.68.5-2.51.76a5.33,5.33,0,0,1,1-1.13C122.41,49.57,123.84,48.75,125.25,47.91Z"/><path class="cls-4" d="M55.63,111.84l2.11-1.67-.21,2.06Z"/><path class="cls-3" d="M80.84,103.34l0,.37a6,6,0,0,1-1,.74c-.21.1-.53,0-.8-.08Z"/><path class="cls-4" d="M64,106.45c-.57.42-1.12.58-1.62-.1Z"/><path class="cls-4" d="M103.57,77.07c.05.68,0,1.27-.86,1.41Z"/><path class="cls-4" d="M9.47,124.75l1.11-.48C10.49,125.09,10.1,125.21,9.47,124.75Z"/><path class="cls-3" d="M116.66,58l-.08-.3.52-.55C117.44,57.68,117.27,58,116.66,58Z"/><path class="cls-4" d="M5.39,128l.33-.49.24.29Z"/><path class="cls-4" d="M104.08,76l-.44.7Z"/><path class="cls-3" d="M99.27,41.77l-.3-.22.35-.2Z"/><path class="cls-3" d="M99.5,40.86l-.3-.22.35-.2Z"/><path class="cls-3" d="M127.49,35.85l0,.46Z"/><path class="cls-4" d="M87.44,102l-.46.45Z"/><path class="cls-3" d="M106.6,15.21l.15-.59Z"/><path class="cls-4" d="M6.51,125.76l.44-.1-.22.38Z"/><path class="cls-3" d="M91.55,89.1l.24-.81Z"/><path class="cls-3" d="M101.8,23.54c-.14.19-.37.36-.42.57-1.2,5.29-2.46,10.56-3.53,15.88-.52,2.58-.65,5.24-.93,7.57l-2.48.38.51-1.1c-.81-.56-.64-1-.17-1.92.62-1.16,1.55-2.47.69-4a1.59,1.59,0,0,1,.22-1.3,2,2,0,0,0,.12-1.91A17.89,17.89,0,0,1,95,34.23a2.79,2.79,0,0,0-1.38-2.35l-1.15,2.43,2,.81c-1.28.52-2.17.63-2.83-.37-1.86,1.08-1.89,1.14-1.6,2.62-1.26,1.68-2.44,3.16-3.51,4.73-.88,1.28-1.63,2.66-2.43,4a4.06,4.06,0,0,0-.7,1.26c-.21,1.36-1.54,2.33-1.28,3.86,0,.25-.33.7-.62.88-2.79,1.71-2.07,3.3-1,5.43.43.84,1,1.6,1.47,2.43s1,1.49.15,2.34c-.09.09.1.44.16.66-.3.51-.58,1-.92,1.52-1,1.46-2,2.87-3,4.35-1.61,2.51-3.3,5-4.68,7.61a74.87,74.87,0,0,0-3.19,7.49c-1.84,4.69-3.62,9.4-5.42,14.1-.79,2.05-1.61,4.09-2.35,6.16-.09.26.19.65.32,1l-4.59-.67c.47-1,.9-1.93,1.31-2.85,1-2.26,2-4.54,3-6.79,1.54-3.37,3.12-6.72,4.68-10.07.16-.34.37-.66.54-1,.7-1.44,1.16-1.93.56-4.09-.57-.19-.89-.11-1.36.48-1.76,2.2-3.66,4.28-5.73,6.65V84l-2.36.3a8.12,8.12,0,0,1,.31-1.19c.94-2.15,1.87-4.3,2.88-6.42s2.2-4.44,3.3-6.65c1.74-3.47,3.31-7,5.27-10.38A107.19,107.19,0,0,0,76.49,48.5c.5-1.14,1.2-2.19,1.7-3.33.12-.26-.18-.7-.28-1.06.73-1.4,1.43-2.81,2.19-4.19.92-1.68,1.88-3.34,2.82-5,1.42-2.53,2.81-5.08,4.28-7.58s2.88-4.78,4.37-7.13c.58-.92,1.32-1.74,2-2.6.19,0,.47.1.55,0,1-1.11,2-2.2,2.86-3.37,1.69-2.21,3.32-4.47,5-6.69.75-1,1.57-1.92,2.31-2.91.09-.12-.1-.43-.16-.66a2.93,2.93,0,0,1,3.31-1.2l.08-1.32a7.75,7.75,0,0,1,.28,2.64c-.95,3.67-2,7.32-3.13,10.95-.76,2.49-1.63,4.94-2.46,7.41l-.38,1.09Z"/><path class="cls-3" d="M84.24,60.92c1-1.29,2-2.66,3.09-3.85,2.45-2.57,5-5,7.53-7.53a12.41,12.41,0,0,1,1.62-1.16l.36.14L96.32,52l-.47-.72c-1.59,1.26-3.17,2.43-4.67,3.72-2.2,1.89-4.34,3.85-6.51,5.77C84.57,60.9,84.39,60.89,84.24,60.92Z"/><path class="cls-3" d="M89.66,62.35c-1,2.68-3.24,4.92-2.55,8.38-.25-.26-.73-.54-.71-.78a8.29,8.29,0,0,1,.51-2.7c.67-1.51,1.55-2.94,2.36-4.4A4,4,0,0,1,89.66,62.35Z"/><path class="cls-5" d="M94.77,67.28l-.09.7c-1.33,1-2.66,2.08-4,3.11a4.7,4.7,0,0,1-.73.38l-.18-.28c.37-.29.76-.56,1.12-.86,1.07-.9,2.12-1.82,3.19-2.72A3.1,3.1,0,0,1,94.77,67.28Z"/><path class="cls-3" d="M89.91,61.79l3.87-4.68.31.25L90.22,62Z"/><path class="cls-3" d="M90.43,89l-3,6.6c.29-.77.56-1.55.86-2.31.57-1.44,1.15-2.86,1.73-4.3Z"/><path class="cls-3" d="M92.8,61.56l1.48,1.76-.54.53L92.23,62.1Z"/><path class="cls-3" d="M89.5,65.49l1,.69-.3.42-.93-.72Z"/><path class="cls-3" d="M93.89,60l.62.57c-.1.1-.25.3-.28.28a7.49,7.49,0,0,1-.68-.5Z"/><path class="cls-3" d="M95.42,56l-1,.69-.08-.07.83-.87Z"/><path class="cls-3" d="M87.22,96l-.93,1.61Z"/><path class="cls-3" d="M82.94,62.37l.86-1Z"/><path class="cls-3" d="M84.94,99.69l-.7.7Z"/><path class="cls-3" d="M83.35,101.28l-.7.7Z"/><path class="cls-3" d="M81.52,102.88l-.7.47Z"/><path class="cls-3" d="M86.31,97.63l-.47.7Z"/><path class="cls-3" d="M85.85,98.32l-.47.7Z"/><path class="cls-3" d="M82,102.42l-.46.47Z"/><path class="cls-3" d="M96.05,55.18v0Z"/><path class="cls-3" d="M82.44,102.2l-.47.24Z"/><path class="cls-3" d="M87.45,95.58l-.24.48Z"/><path class="cls-3" d="M85.17,99.23l-.24.47Z"/><path class="cls-3" d="M84.26,100.37l-.23.47Z"/><path class="cls-3" d="M84,100.83l-.47.23Z"/><path class="cls-3" d="M82.66,102l-.24.24Z"/><path class="cls-3" d="M85.4,99l-.24.24Z"/><path class="cls-3" d="M83.57,101.05l-.24.24Z"/><path class="cls-2" d="M14,128c1.78-2.71,4.69-3,7.49-3.4,2.49-.39,5-.78,7.5-1s4.76-.09,7.13-.21,5-.34,7.54-.55c1.23-.1,2.45-.27,3.47-.38l.37,1.79L46,125.49a1.22,1.22,0,0,1-.38.24c-1.43.43-2.85.91-4.3,1.24-1.69.38-3.4.7-5.12.92a31.58,31.58,0,0,1-5.54.45c-2.13-.1-4.21.21-6.32.29-2.58.1-5.19-.14-7.75.12a3.28,3.28,0,0,1-2.51-.58A1,1,0,0,0,14,128Z"/><path class="cls-1" d="M52.78,139.36l-.43,0-2.75-.18-1.51-.43,0-.3,23.09,2.76v.21h-2.3l0,.19,2.08.48,0,.25c-1-.08-2.08-.15-3.12-.25-2-.2-4-.43-6-.64a19.33,19.33,0,0,1-2.81-.3,7,7,0,0,1-1.73-1l-3.63-.53-.44-.17Zm10.74,1.26,0,.33,4.57.56,0-.33Zm-2.3-.14v.19l1.75.18,0-.28Zm-2.58-.23-.24.18c.07.07.13.18.22.21s.15-.08.22-.13Z"/><path class="cls-3" d="M11.52,136.4a12.58,12.58,0,0,1-2.69-.3,18.48,18.48,0,0,1-3.52-1.73l13.12,1.83v.14H16.67l0,.2,7.76,1-.05.43a66.75,66.75,0,0,1-11.09-1.44h2.57l0-.38-4.51-.34.17.6Zm-.94-.41,0-.23-1.11-.24,0,.25Z"/><path class="cls-1" d="M29.76,137.31a3.39,3.39,0,0,1,1.12-.33c2.52.19,5,.44,7.55.66.64.06,1.29.06,1.93.09v.37a5.53,5.53,0,0,1-.87.06l-8.86-.82Z"/><path class="cls-1" d="M41.08,137.8l5.54.57,0,.37L41,138.25Z"/><path class="cls-1" d="M25.14,136.35l3.4.2-.06.59-3.37-.4Z"/><path class="cls-3" d="M20.81,136.54H19.19l0-.33,1.65.22Z"/><path class="cls-3" d="M29.76,137.31l.89,0c-.45.92-1.07-.09-1.58.13a.26.26,0,0,1,0-.1.31.31,0,0,1,.06-.09h.39Z"/><path class="cls-1" d="M29.5,137.28h-.39l.14-.34Z"/><path class="cls-3" d="M4.61,134.2l.09,0,0,.13a.28.28,0,0,1-.1,0S4.62,134.23,4.61,134.2Z"/><path class="cls-3" d="M52.78,139.36l.43,0Z"/><path class="cls-3" d="M81.58,143.58l-.3.08Z"/><path class="cls-3" d="M11.52,136.4l.09.05-.09-.05Z"/><path class="cls-3" d="M117.09,71.88a3,3,0,0,1-3.07-.42,1,1,0,0,0-.84,0c-.47,1.24-1.53.83-2.41.89a4.12,4.12,0,0,1-.56,0L114,65.95l4.41-.77-1.28,6.7Z"/><path class="cls-4" d="M117.09,71.88l1.28-6.7-4.41.77A2.56,2.56,0,0,1,116,63.71c.78-.19,1.68-.32,2.21.61.94,1.36.71,2.91.61,4.4a28.77,28.77,0,0,1-.67,4c-.06.28-.43.5-.65.75l.21-1.83Z"/><path class="cls-3" d="M86.49,24.85Q92.78,16,99.07,7.21c.48-.67,1-1.29,1.55-1.94h.25a3.29,3.29,0,0,1-.29,1.12c-2.67,3.68-5.45,7.27-8,11C90.2,20.81,88,24.28,85.89,27.85c-2.5,4.33-4.76,8.8-7.13,13.21a1,1,0,0,1-.62.56,8.43,8.43,0,0,1,.33-.82C81,36,83.56,31.23,86.08,26.43A7.14,7.14,0,0,0,86.49,24.85Z"/><path class="cls-2" d="M104.11,4c.06.22.24.54.16.66-.74,1-1.56,1.92-2.31,2.91-1.68,2.22-3.3,4.48-5,6.69-.9,1.17-1.88,2.27-2.86,3.37-.08.09-.36,0-.55,0,2.68-3.72,5.33-7.46,8.07-11.14A23,23,0,0,1,104.11,4Z"/><path class="cls-3" d="M58.49,78.72c.41-1,.77-2.1,1.24-3.11a20.8,20.8,0,0,1,2.16-3.79L61,74.39h0l-.23.46h0l-.23.46h0l-.22.45h0l-.22.45h0l-.23.45h0l-.45.91h0l-.23.23h0l-.68.91Z"/><path class="cls-3" d="M74.46,47.27,72.09,52.5l-.47-.24,2.81-5Z"/><path class="cls-3" d="M67.86,60.21l-2.22,4.37-.36-.18L67.51,60Z"/><path class="cls-3" d="M57.14,82.61l-.66,1.85L56,83.73h0l1.14-2.28h0l-.39,1,.38.13Z"/><path class="cls-3" d="M69.62,56.34l1.31-2.69.39.21-1.59,2.57Z"/><path class="cls-3" d="M64.69,66l-1.37,2.73-.08-.07,1.35-2.75Z"/><path class="cls-3" d="M77,43.15l.74-.6.15.09-1.11,2.21-.19-.07L77,43.15Z"/><path class="cls-3" d="M67.83,59.63,68.67,58l.29.15-.84,1.65Z"/><path class="cls-3" d="M75.35,45.65l.92-1.59h0l-.9,1.61Z"/><path class="cls-3" d="M62.55,70l.69-1.36.08.07-.68,1.37Z"/><path class="cls-3" d="M75.37,45.67,75,46.75l-.33-.16.67-.94Z"/><path class="cls-3" d="M57.12,81.46l.36-1.28.31.12-.67,1.15Z"/><path class="cls-3" d="M77,42.7l.35-1.25.29.11L77,42.69Z"/><path class="cls-3" d="M102.33,3.09l.82-.33-.91.7Z"/><path class="cls-3" d="M52,91.89l.47-.91.11.11-.45.92Z"/><path class="cls-3" d="M59.18,78.49V77.8h0l.23-.23h.23l-.46.91Z"/><path class="cls-3" d="M71.25,53.19l.16-.37c.08,0,.23.12.22.14a2.43,2.43,0,0,1-.18.36Z"/><path class="cls-3" d="M77,42.69v.46h0l-.46.45h0L77,42.7Z"/><path class="cls-3" d="M54.89,87l-.24.61-.24-.13.38-.58Z"/><path class="cls-3" d="M51.25,93.36l-.46.68-.1-.1.05-.41h0l.41-.28Z"/><path class="cls-3" d="M53,90.29l.32-.56.18.12-.39.55Z"/><path class="cls-3" d="M51.93,92.44l-.35.34c0-.06-.11-.16-.09-.18a2.94,2.94,0,0,1,.31-.27Z"/><path class="cls-3" d="M57.57,81.68l.22-.46,0,0-.24.45Z"/><path class="cls-3" d="M58,80.78l-.22.46,0,0,.23-.45Z"/><path class="cls-3" d="M58.51,79.87l-.08.31-.13-.06.18-.27Z"/><path class="cls-3" d="M58.47,79.84l.24-.45h0l-.22.46Z"/><path class="cls-3" d="M58.71,79.4l.24-.45h0l-.22.46Z"/><path class="cls-3" d="M58.26,79.17l.23-.46h0l-.23.45Z"/><path class="cls-3" d="M58.95,78.95l.23-.46h0l-.23.46Z"/><path class="cls-3" d="M59.85,77.12l-.23.46h0l.23-.46Z"/><path class="cls-3" d="M60.08,76.66l-.23.46h0v-.46h.22Z"/><path class="cls-3" d="M60.31,76.21l-.23.46h0v-.46h.23Z"/><path class="cls-3" d="M60.54,75.75l-.23.46h0v-.46h.23Z"/><path class="cls-3" d="M60.76,75.3l-.23.46h0V75.3h.23Z"/><path class="cls-3" d="M61,74.84l-.23.46h0v-.46H61Z"/><path class="cls-3" d="M61,74.39v.45h0v-.46Z"/><path class="cls-3" d="M62.18,71l-.11.28-.1,0,.12-.34Z"/><path class="cls-3" d="M62.64,70.1l-.11.28-.09,0,.11-.33Z"/><path class="cls-3" d="M64.92,65.53l-.22.46-.1-.09.24-.45Z"/><path class="cls-3" d="M65.15,65.09l-.24.45-.09-.08.23-.46Z"/><path class="cls-3" d="M69.72,56.43l-.12.28-.1,0,.11-.34Z"/><path class="cls-3" d="M76.5,43.6l-.23.46h0l.23-.46Z"/><path class="cls-3" d="M51.8,92.33l.25-.44.13.11-.24.44Z"/><path class="cls-3" d="M53.64,89.15l.11-.29.11,0-.12.36Z"/><path class="cls-3" d="M54.1,88.24l.22-.26-.12.36Z"/><path class="cls-3" d="M57.58,81.69l-.23.46h0l.23-.45Z"/><path class="cls-3" d="M57.1,82.58l.24-.44h0l-.21.47Z"/><path class="cls-3" d="M55.71,85.29,55.8,85l.1,0-.11.33Z"/><path class="cls-3" d="M55.79,85.36l-.23.46-.08-.08.24-.45Z"/><polygon class="cls-3" points="69.32 57.13 69.34 57.19 69.28 57.18 69.32 57.13"/><polygon class="cls-3" points="69.04 57.62 69.1 57.6 69.09 57.66 69.04 57.62"/><path class="cls-3" d="M74.43,47.24l.12-.1-.09.12Z"/><path class="cls-3" d="M65.06,65l.14-.12,0,.21Z"/><path class="cls-3" d="M62.1,70.92l.16-.08-.07.17Z"/><path class="cls-3" d="M51.15,93.26l.14-.11,0,.21Z"/><path class="cls-3" d="M52.51,91l.14-.11,0,.22Z"/><path class="cls-3" d="M53.07,90.4l-.15.11,0-.22Z"/><path class="cls-3" d="M53.74,89.25l-.14.12,0-.22Z"/><path class="cls-3" d="M54.2,88.35l-.14.12,0-.22Z"/><path class="cls-3" d="M54.79,86.88l.14-.12,0,.22Z"/><polygon class="cls-3" points="55.19 86.3 55.21 86.38 55.15 86.37 55.19 86.3"/><path class="cls-3" d="M55.56,85.82l-.16.09.08-.17Z"/><path class="cls-3" d="M58.26,79.17l-.11.1s0-.06,0-.07l.09,0Z"/><path class="cls-3" d="M56,83.73l-.1.1s0-.05,0-.06l.08,0Z"/><path class="cls-3" d="M58,80.76l.11-.1-.1.12Z"/><path class="cls-3" d="M118,111.09q0,9.23,0,18.45a4.64,4.64,0,0,1-.67-1.59c0-2.26.15-4.52.18-6.78,0-3,0-6,0-9A3.5,3.5,0,0,1,118,111.09Z"/><path class="cls-4" d="M117.53,73.7c.77.65.45,1.15-.22,1.59Z"/><path class="cls-4" d="M101.81,23.53l.38-1.09Z"/><path class="cls-3" d="M98,42.31l.1-.52Z"/><path class="cls-1" d="M109.52,1.69a.22.22,0,0,0,0,.2l-.13-.13Z"/><path class="cls-4" d="M100.89,5.29h0Z"/><path class="cls-4" d="M50.74,93.53l-.05.41-.18,0h0Z"/><path class="cls-4" d="M50.5,94l-.1.1s0,0,0-.06l.08,0Z"/><path class="cls-3" d="M90.78,88.82h-.31l.41-1.25.23.06Z"/><path class="cls-3" d="M61.23,140.48l1.76.09,0,.28-1.75-.18Z"/><path class="cls-4" d="M58.65,140.26l.2.25c-.08,0-.17.15-.22.13s-.14-.13-.22-.21Z"/><path class="cls-4" d="M10.58,136l-1.14-.22,0-.25,1.11.24Z"/><path class="cls-4" d="M59.86,76.67v.46l-.23.46H59.4Z"/><path class="cls-4" d="M60.08,76.21v.46h-.23Z"/><path class="cls-4" d="M60.31,75.76v.46h-.23Z"/><path class="cls-4" d="M60.54,75.3v.46h-.23Z"/><path class="cls-4" d="M60.77,74.84v.46h-.23Z"/><path class="cls-4" d="M61,74.39v.46h-.23Z"/><path class="cls-4" d="M59.4,77.58l-.23.23Z"/><path class="cls-6" d="M89.24,65.88l.93.72.3-.42-1-.69Z"/><path class="cls-6" d="M89.26,62.86c-.8,1.46-1.68,2.88-2.36,4.4A8.29,8.29,0,0,0,86.4,70c0,.24.46.52.71.78-.69-3.46,1.58-5.71,2.55-8.38A4,4,0,0,0,89.26,62.86Z"/><path class="cls-6" d="M38.36,106.25v-.06c-.56.38-.93.61-1,.66Z"/><path class="cls-6" d="M93.77,57.11l-3.87,4.68.31.25,3.86-4.68Z"/><path class="cls-6" d="M94.33,56.6l.08.07,1-.69-.26-.25Z"/><path class="cls-6" d="M43,102.56a4.37,4.37,0,0,0,1-1C43.68,101.92,43.36,102.24,43,102.56Z"/><path class="cls-6" d="M92.23,62.1l1.52,1.75.54-.53L92.8,61.56Z"/><path class="cls-6" d="M93.54,60.37a7.49,7.49,0,0,0,.68.5s.18-.18.28-.28L93.89,60Z"/><polygon class="cls-2" points="50.75 94.91 50.75 94.91 50.75 94.91 50.75 94.91"/><polygon class="cls-2" points="81.52 102.88 81.52 102.89 81.51 102.89 81.52 102.88"/><polygon class="cls-2" points="85.4 99 85.39 99.01 85.38 99.02 85.4 99"/><polygon class="cls-2" points="84.02 100.83 84.02 100.83 84.02 100.83 84.02 100.83"/><polygon class="cls-2" points="82.44 102.2 82.43 102.2 82.42 102.21 82.44 102.2"/><polygon class="cls-2" points="84.94 99.69 84.93 99.7 84.93 99.7 84.94 99.69"/><polygon class="cls-2" points="85.16 99.25 85.17 99.23 85.17 99.23 85.16 99.25"/><polygon class="cls-2" points="84.24 100.38 84.25 100.37 84.26 100.37 84.24 100.38"/><path class="cls-2" d="M96.32,52l-.47-.72c-1.59,1.26-3.17,2.43-4.67,3.72-2.2,1.89-4.34,3.85-6.51,5.77-.1.09-.28.07-.42.1l-.44.49-.86,1-.63.59c-.3.51-.59,1-.92,1.52-1,1.46-2,2.87-3,4.35-1.61,2.51-3.3,5-4.68,7.61a74.87,74.87,0,0,0-3.19,7.49c-1.84,4.69-3.62,9.4-5.42,14.1-.79,2.05-1.61,4.09-2.35,6.16-.09.26.19.65.32,1l-4.59-.67c.47-1,.9-1.93,1.31-2.85,1-2.26,2-4.54,3-6.79,1.54-3.37,3.12-6.72,4.68-10.07.16-.34.37-.66.54-1,.7-1.44,1.16-1.93.56-4.09-.57-.19-.89-.11-1.36.48-1.76,2.2-3.66,4.28-5.73,6.65V84l-2.36.3a8.12,8.12,0,0,1,.31-1.19c.94-2.15,1.87-4.3,2.88-6.42s2.2-4.44,3.3-6.65c1.74-3.47,3.31-7,5.27-10.38A107.19,107.19,0,0,0,76.49,48.5c.5-1.14,1.2-2.19,1.7-3.33.12-.26-.18-.7-.28-1.06-1.59,3.15-3.13,6.32-4.77,9.44q-4.93,9.39-9.94,18.73Q57.75,82.5,52.25,92.7a26.91,26.91,0,0,1-1.5,2.24v0l-.21.4a7.84,7.84,0,0,1-.67,1.16c-1.49,2-3,4-4.55,5.89-.22.27-.69.35-1,.52l-.16-.28,4.06-5.24L48,96.52a31.84,31.84,0,0,1-2.53,3.18A11.62,11.62,0,0,1,44,101.59a4.37,4.37,0,0,1-1,1,36.78,36.78,0,0,1-3.35,2.72l1.29.57c-.27.39-.38.73-.6.85-2,1.07-3.53,3-5.95,3.43a6.24,6.24,0,0,0-2.75,1.48A17.5,17.5,0,0,1,26,114.46c-1.78.68-3.61,1.21-5.42,1.8-2.44.92-4.92,1.75-7.31,2.78a33.9,33.9,0,0,0-8.64,5.35,3.52,3.52,0,0,0-.43.52c-.12.22-.31.59-.23.68a1.19,1.19,0,0,0,.76.32,13.2,13.2,0,0,0,1.47-.07l.27-.09.44-.1,2.52-.92,1.11-.48c2.21-.79,4.38-1.71,6.63-2.35,3.23-.91,6.52-1.67,9.8-2.4,1.88-.42,3.82-.55,5.7-1,3.31-.79,6.55-1.9,9.88-2.56a50.06,50.06,0,0,0,13.06-4.12l2.11-1.67c.43-.67.25-1.12-.48-1.41-1.19-.49-2.38-1-3.56-1.52a3.66,3.66,0,0,1-2.22-2,15.1,15.1,0,0,1,5.84-.21c2.65.28,5.27,1.05,7.93.15l-.88.33c2.29.12,4.5.13,6.7.12a13,13,0,0,0,2.16-.14c1.92-.34,3.84-.74,5.76-1.12l1.85-1h0l.69-.46.45-.45h0l.46-.23.23-.23h0l.7-.7h0l.23-.23h0l.46-.23.23-.46h0v0h0l.68-.68.23-.46h0v0h0l.22-.22.46-.69h0l.47-.7v0L87.22,96v0l.24-.48v0c.29-.77.56-1.55.86-2.31.57-1.44,1.15-2.86,1.73-4.3,1-4,2-8,2.91-12,.67-3,1.18-6,1.76-9-1.33,1-2.66,2.08-4,3.11a4.7,4.7,0,0,1-.73.38l-.18-.28c.37-.29.76-.56,1.12-.86,1.07-.9,2.12-1.82,3.19-2.72a3.1,3.1,0,0,1,.69-.33c.29-2.25.6-4.5.86-6.76,0-.23-.18-.49-.3-.72s-.33-.59-.5-.88l1-.06.26-3.12v-.56ZM87.11,70.74c-.25-.26-.73-.54-.71-.78a8.29,8.29,0,0,1,.51-2.7c.67-1.51,1.55-2.94,2.36-4.4a4,4,0,0,1,.4-.51C88.68,65,86.42,67.27,87.11,70.74Zm3.07-4.13-.93-.72.27-.39,1,.69Zm0-4.56-.31-.25,3.87-4.68.31.25Zm3.52,1.8L92.23,62.1l.58-.54,1.48,1.76Zm.48-3a7.49,7.49,0,0,1-.68-.5l.34-.36.62.57C94.41,60.68,94.25,60.88,94.22,60.87Zm.19-4.2-.08-.07.83-.87.26.25Z"/><path class="cls-2" d="M83.56,101.07h0Z"/><polygon class="cls-2" points="81.96 102.43 81.97 102.43 81.97 102.42 81.96 102.43"/><path class="cls-4" d="M34.41,110.12c2.42-.46,3.93-2.37,5.95-3.43.22-.12.33-.46.6-.85l-1.29-.57c-.49.36-.94.67-1.31.92v.06l-1,.61h0l-5.77,3.43a14.78,14.78,0,0,0-1.66,1,29.63,29.63,0,0,1-9.26,4.61q0,.2,0,.4c1.81-.59,3.65-1.12,5.42-1.8a17.5,17.5,0,0,0,5.61-2.85A6.24,6.24,0,0,1,34.41,110.12Z"/><path class="cls-4" d="M44.28,102.89c.35-.17.82-.24,1-.52,1.55-1.94,3.06-3.91,4.55-5.89a7.84,7.84,0,0,0,.67-1.16l.21-.4c-.27.22-.55.43-.8.67-.6.58-1.18,1.18-1.77,1.78l-4.06,5.24Z"/><path class="cls-4" d="M50.75,94.91h0l-.21.4Z"/><path class="cls-2" d="M44,101.59a11.62,11.62,0,0,0,1.49-1.89l-.06.06A16.8,16.8,0,0,0,44,101.59Z"/><path class="cls-2" d="M37.34,106.86h0Z"/></svg>