<svg id="Слой_1" data-name="Слой 1" xmlns="http://www.w3.org/2000/svg" viewBox="0 0 80 80"><title>Монтажная область 1 копия 2</title><path d="M78.15,3.46A4.94,4.94,0,0,0,71.77,3C57.19,12.73,28.09,41.58,25.53,44.12h0l-.28.28-.13.12a8.36,8.36,0,0,0-2.38,6.83l0,.35-.34-.08a9.71,9.71,0,0,0-9.23,2.71c-5.57,5.72-4.63,12-4.62,12v.07C8,71.89,2.15,74.35.4,75c14,9.34,26.68-6.06,26.81-6.22a10.31,10.31,0,0,0,2.61-9.66l-.08-.35.36,0A8.36,8.36,0,0,0,37,56.42l.13-.14.26-.29,0,0C40,53.47,68.87,24.4,78.66,9.84h0A4.92,4.92,0,0,0,78.15,3.46Zm-51,58.79A10.42,10.42,0,0,1,25,66.88h0c-.07.08-7.09,8.27-15.47,8.27A12.74,12.74,0,0,1,7.25,75l-.51-.09.39-.34a12.94,12.94,0,0,0,4.36-8.14,12.93,12.93,0,0,1,3.8-10,6.86,6.86,0,0,1,4.95-2.11,7,7,0,0,1,4.93,2.1A6.5,6.5,0,0,1,27.13,62.25Zm7.78-7.9a5.31,5.31,0,0,1-3.77,1.59,5.58,5.58,0,0,1-3.91-1.62,5.51,5.51,0,0,1,0-7.68l3.39-3.33L38.26,51ZM76.24,8.1c-7.11,10.57-25.47,30-35.79,40.59l-.18.18-7.59-7.59.18-.18c10.63-10.3,30-28.63,40.55-35.68A2.08,2.08,0,0,1,74.67,5,1.95,1.95,0,0,1,76.24,8.1Z"/></svg>