<svg id="Слой_1" data-name="Слой 1" xmlns="http://www.w3.org/2000/svg" viewBox="0 0 78 78"><title>Монтажная область 1 копия 3</title><path d="M7.85,35.07H2.56c-1.9,0-2.49-.56-2.5-2.41q0-5.36,0-10.72c0-1.76.59-2.36,2.36-2.36,4.78,0,9.56,0,14.34,0H18.4l.15-.27c-.48-.4-1-.81-1.44-1.2-3.73-3-4.46-7.18-1.87-11.25A14,14,0,0,1,26.81.08,8.25,8.25,0,0,1,33,2.59,23,23,0,0,1,38,9.7l.94,1.94c.88-1.63,1.51-3.08,2.38-4.36a38.65,38.65,0,0,1,3.64-4.64A8.29,8.29,0,0,1,53.1.23a14.22,14.22,0,0,1,9.8,6.89C65.25,11.13,64.56,15,61,18c-.53.44-1.07.87-1.86,1.51.84,0,1.36.08,1.87.08H75.36c2,0,2.57.54,2.58,2.5q0,5.28,0,10.55c0,1.85-.61,2.43-2.48,2.44-1.7,0-3.4,0-5.3,0v2q0,18.47,0,36.93c0,.44,0,.88,0,1.32,0,2.15-.5,2.63-2.63,2.63H11.3L9.65,78a1.64,1.64,0,0,1-1.74-1.61,15.9,15.9,0,0,1-.07-1.81q0-18.71,0-37.43C7.85,36.48,7.85,35.84,7.85,35.07ZM27.29,74.15V35.21H11.77V74.15Zm39,0v-39H50.76v39Zm-35-39v39H46.81v-39ZM41,19.41a12.4,12.4,0,0,0,1.25-.21,43.15,43.15,0,0,1,10-1.69,10.84,10.84,0,0,0,5.83-2c2.78-2,3.2-4.42,1.2-7.19A10.62,10.62,0,0,0,52.17,4a5,5,0,0,0-4.53,1.28,13,13,0,0,0-1.45,1.56,28,28,0,0,0-5.1,10.72A10.34,10.34,0,0,0,41,19.41Zm-4.1-.06c.06-.16.14-.27.12-.36a26.14,26.14,0,0,0-6.1-13.22,4.69,4.69,0,0,0-3.52-1.92,10.4,10.4,0,0,0-9.48,6A3.94,3.94,0,0,0,19,14.71a11.09,11.09,0,0,0,3.82,2.12c2,.54,4.21.55,6.3.92C31.66,18.21,34.21,18.8,36.86,19.35Zm-33,4v7.81H27.27V23.34Zm46.89,0V31.1H74.14V23.35Zm-3.89,0H31.2v7.74H46.85Z"/></svg>