<svg id="Слой_1" data-name="Слой 1" xmlns="http://www.w3.org/2000/svg" viewBox="0 0 61 81"><defs><style>.cls-1{fill:#201600;}</style></defs><title>Монтажная область 1 копия</title><path class="cls-1" d="M59.93.79,59.58.44a1.39,1.39,0,0,0-1-.44A28,28,0,0,0,45.18,3.48c-.74.37-1.26,1.41-3.46,5.81-.48,1-1.09,2.19-1.62,3.2,0-.16-.08-.32-.11-.47C39.32,9.69,38.87,8.35,37.68,8a1.6,1.6,0,0,0-1.55.42c-5.31,5.31-8.83,13.44-5.48,18.91l-5,5a1.44,1.44,0,0,0,0,2.07,1.44,1.44,0,0,0,2.07,0l4.89-4.89A8.15,8.15,0,0,0,37.46,31c5.85,0,11.66-5.18,13.88-7.4,7.79-7.79,8.94-17.78,9.07-21.71v0A1.25,1.25,0,0,0,59.93.79ZM40.56,21.53a1.47,1.47,0,0,0-1-2.51h0a1.46,1.46,0,0,0-1,.44l-5.71,5.71c-1.77-3.75.78-9.27,4.2-13.22L37,12c.1.33.2.66.29.87.69,2.36,1.14,3.71,2.32,4a1.87,1.87,0,0,0,1.51-.3c.66-.55,1.5-2,3.46-6.05A50.57,50.57,0,0,1,47,5.87a24.65,24.65,0,0,1,10.62-3,30.08,30.08,0,0,1-8.16,18.64c-2.24,2.15-9.75,8.74-14.76,5.86Z"/><path class="cls-1" d="M35,58.63v-7h3.43a1.41,1.41,0,0,0,1.47-1.47V40.3a1.41,1.41,0,0,0-1.47-1.47H9.81A1.43,1.43,0,0,0,8.34,40.3v9.81a1.43,1.43,0,0,0,1.47,1.47h3.43v7A23.77,23.77,0,0,0,.59,79.53,1.43,1.43,0,0,0,2.06,81H46.19a1.41,1.41,0,0,0,1.47-1.47A23.77,23.77,0,0,0,35,58.63ZM15.33,60.85a1.44,1.44,0,0,0,.86-1.32V50.11a1.43,1.43,0,0,0-1.47-1.47H11.29V41.78H37v6.86H33.54a1.43,1.43,0,0,0-1.47,1.47v9.41a1.43,1.43,0,0,0,.87,1.33,20.66,20.66,0,0,1,11.75,17.2H3.57A20.68,20.68,0,0,1,15.33,60.85Z"/></svg>