<svg id="Слой_1" data-name="Слой 1" xmlns="http://www.w3.org/2000/svg" viewBox="0 0 296 87"><defs><style>.cls-1{fill:#f6dc3f;}.cls-2{fill:#eeb33f;}</style></defs><title>Монтажная область 6</title><rect class="cls-1" width="173.73" height="86.96"/><polygon class="cls-2" points="86.27 -0.05 86.27 86.92 130.05 43.08 86.27 -0.05"/><polygon class="cls-2" points="0 0 86.27 0 42.79 43.43 0 0"/><path class="cls-1" d="M191.25,19.63h-.53V38.27h-6.39V1h.8L198.7,20.43,212.28,1h.8V38.27h-6.39V19.63h-.53L198.7,30.28Z"/><path class="cls-1" d="M222.14,2.06h6.39V38.27h-6.39Z"/><path class="cls-1" d="M259.15,39.34,244.5,19.1H244V38.27h-6.39V1h1.06l14.65,20.24h.53V2.06h6.39V39.34Z"/><path class="cls-1" d="M278.59,2.06c7.72,0,14.91,7.19,14.91,18.11s-7.19,18.11-14.91,18.11h-9.32V2.06Zm-2.93,30.36h2.93c3.73,0,8.25-4.53,8.25-12.25s-4.53-12.25-8.25-12.25h-2.93Z"/><path class="cls-1" d="M193.64,49c7.72,0,14.91,7.19,14.91,18.11s-7.19,18.11-14.91,18.11h-9.32V49Zm-2.93,30.36h2.93c3.73,0,8.25-4.53,8.25-12.25s-4.53-12.25-8.25-12.25h-2.93Z"/><path class="cls-1" d="M230.92,74.82V49h6.39V74.82c0,7.72-4.79,11.18-11.18,11.18a10.77,10.77,0,0,1-11.18-11.18V49h6.39V74.82c0,3.46,2.13,5.33,4.79,5.33S230.92,78.28,230.92,74.82Z"/><path class="cls-1" d="M253.56,86c-7.72,0-10.92-6.92-10.92-6.92l4.79-3.46s2.13,4.53,5.59,4.53c2.66,0,4.53-1.6,4.53-4.79,0-6.92-13-6.12-13-17.57a9.38,9.38,0,0,1,9.59-9.59,10.74,10.74,0,0,1,9.59,5.59l-4.79,3.46s-1.6-3.2-4.26-3.2a3.43,3.43,0,0,0-3.46,3.73c0,6.92,13,6.12,13,17.57C264.21,81.75,259.68,86,253.56,86Z"/><path class="cls-1" d="M267.67,54.85V49h20.77v5.86h-7.19V85.21h-6.39V54.85Z"/></svg>