<svg id="Слой_1" data-name="Слой 1" xmlns="http://www.w3.org/2000/svg" viewBox="0 0 142 94"><defs><style>.cls-1{fill:#fdfdfd;}.cls-2{fill:#f1eff3;}.cls-3{fill:#3a3d55;}.cls-4{fill:#a0a2ab;}.cls-5{fill:#08081a;}</style></defs><title>Sean</title><path class="cls-1" d="M142,3.69V90.31l-1.73.34c-2.72,0-5.43,0-8.15,0-.68,0-1.36-.09-2-.14a1.57,1.57,0,0,1-1.18-1.71c.05-2.62,0-5.24,0-7.85,0-1.55-.06-3.1-.09-4.65,0-2.07,0-4.15,0-6.22,0-2.95,0-5.89-.06-8.84.06-.53.41-.6.86-.6,1.72,0,3.45-.06,5.17-.09l.21-1,.13-3.4.64.08a8.1,8.1,0,0,1-.13-1.06c0-.39-.2-.47-.52-.45v-.28c.85.14.86.1.62-.69a1.44,1.44,0,0,1,0-.81,4.29,4.29,0,0,0,.07-2.65c0-.14-.1-.34,0-.43.68-1,.22-2,.23-3a8.69,8.69,0,0,0-.19-1.36,5.55,5.55,0,0,0,.24-1c0-.67,0-1.33,0-2s.05-1.05.08-1.58,0-.85,0-1.27a7.43,7.43,0,0,1,.16-2.85.15.15,0,0,0,0-.13c-.59-.56-.16-1.36-.44-2a.56.56,0,0,1,.18-.51c.67-.39.27-.7,0-1,0-.46-.1-.93,0-1.36a3,3,0,0,0,0-1.86,8.76,8.76,0,0,1,0-2.77c0-.5.58-1,0-1.5,0,0,.12-.18.13-.29s0-.36,0-.42c-.52-.41-.27-.7.07-.93.08-.74-.94-1.35-.25-1.89a8.35,8.35,0,0,1,0-1.2c0-.29.25-.55.3-.84a10.64,10.64,0,0,0,.11-1.17c-.3-.14-.58-.72-.3-1,.61-.69,0-1.43.14-2.14s.35-1.5,1.2-1.56c-.07-.25-.05-.62-.21-.72a.8.8,0,0,1-.34-1c0-.18.35-.35.34-.49-.13-1,.46-.78,1.1-.73l-.85-.66a8.26,8.26,0,0,1,1.77-.11c.3,0,.42.17.68-.13s.85-.31,1.13.24l.49,1h.2c0-.54.1-1.08.09-1.62,0-1.89-.09-3.77-.1-5.66C141.59,4,141.86,3.85,142,3.69Zm-4.36,9.36.07-.22-.42-.15-.08.24ZM137,14.51c-.06-.06-.1-.12-.15-.13s-.12,0-.17.05.07.13.13.17S136.92,14.55,137,14.51Z"/><path class="cls-1" d="M0,90.17Q0,51.33,0,12.49c.61-.09.89.24.93.82a1,1,0,0,1,1.44.85,1.54,1.54,0,0,0,.21.62c.12.25.28.48.33.57.37.24.78.35.87.59.16.42.19.93-.3,1,.14.27.21.62.42.75.49.32.1.7.13,1,.06.67,0,1.35,0,2.08l.56.12v.11l-.55.16v1.18l-.72.49,1,.56-.52.89.79.61-.49.39.45.58-1.07.17c.44.87.29,2-.28,2.34l1.17.66-.94.82.67.46a8.38,8.38,0,0,1,.37,1.38,2.84,2.84,0,0,1-.09,1.54,2.3,2.3,0,0,0,.32,3.12l-1.08.83c.19.58.4,1.19-.41,1.72.91.08,1,.48.85,1.14a4.47,4.47,0,0,0,.09,1.26L3.82,42.5c.33.18.84.2.53,1a5.23,5.23,0,0,0,0,1.8c-.07.25-.31.8-.23.85.74.48.25,1.1.3,1.65l-.66.12c.46.44.1,1.13.72,1.43.07,0,.07.21.1.32.24.83.5,1.66.7,2.51a4,4,0,0,1,0,1H5l.71.55L5,54c.35.34.65.6.91.9a.5.5,0,0,1,.12.42c-.37.74.14,1,.65,1.35l.13,2.13v1.77h6l.26.51v15c0,.4-.06.79-.06,1.19,0,3.79,0,7.59,0,11.38a4.85,4.85,0,0,1-.47,1.41,6.61,6.61,0,0,1-1.56.4c-3.32,0-6.64,0-10,0Z"/><path class="cls-2" d="M0,93.72V91.87c.68,0,1.36.06,2,.06l14,0H58.28l15.15,0H87.31c1.89,0,3.78,0,5.68,0,2.06,0,4.11-.13,6.16-.15,1,0,2.07.14,3.11.14,4.58,0,9.16,0,13.75,0l13.3,0L142,91.87v1.85l-.14.14H.14Z"/><path class="cls-3" d="M142,91.87,129.31,92,116,92c-4.58,0-9.16,0-13.75,0-1,0-2.07-.15-3.11-.14C97.1,91.86,95,92,93,92c-1.89,0-3.78,0-5.68,0H73.43L58.28,92H16.07l-14,0c-.68,0-1.36,0-2-.06v-1a4.35,4.35,0,0,0,.8,0c.08,0,.11-.25.16-.39,3.32,0,6.64,0,10,0a6.61,6.61,0,0,0,1.56-.4l-.31.75c.54,0,1,0,1.43.07s.85-.12.89-.68a5.49,5.49,0,0,0,1.17.26c3.4,0,6.79,0,10.19,0,1.08.9,2.32.34,3.49.38.06,0,.13-.16.2-.25l.78,0h9.07l1.35,0c.08.13.15.37.23.38.83,0,1.65,0,2.52,0l-.32-.67a3.77,3.77,0,0,0,.74.15l10.71,0c0,.13.07.37.11.38a22.36,22.36,0,0,0,2.52,0c.24,0,.45-.38.68-.58a6.73,6.73,0,0,0,1.11.18c3.32,0,6.64,0,10,0,.09.17.17.49.26.49,1,0,2.18.45,3-.61.56.06,1.12.17,1.68.18,2.33,0,4.66,0,7,.06h1.28l.85,0c.05.1.1.28.15.28a26.11,26.11,0,0,0,2.87.08c.17,0,.85,0,.72-.59a7.75,7.75,0,0,0,1,.15l9.6,0-.22.5a17,17,0,0,0,2.36,0,6.87,6.87,0,0,0,1.56-.63c.63.07,1.26.19,1.89.2,2,0,4.1,0,6.15,0,.32,0,.63.11.95.14l1.9.15-.06,0s0,0,0,0l.06-.07a5.51,5.51,0,0,0,.63.09,4.85,4.85,0,0,0,3.08-.42c.23,0,.47.05.7.05h8.95c.2.14.39.4.6.4,1.19,0,2.39,0,3.59,0,.41,0,.55-.16.51-.54.68,0,1.36.13,2,.14,2.72,0,5.43,0,8.15,0,.16.12.3.33.47.35A10.27,10.27,0,0,0,142,91Zm-74.38-1v0h-.18v0Z"/><path class="cls-2" d="M6.69,56.65c-.51-.31-1-.6-.65-1.35a.5.5,0,0,0-.12-.42c-.27-.3-.57-.56-.91-.9l.75-.33L5,53.11h.19a4,4,0,0,0,0-1c-.2-.84-.46-1.67-.7-2.51,0-.11,0-.29-.1-.32-.62-.3-.27-1-.72-1.43l.66-.12c0-.55.45-1.17-.3-1.65-.08-.05.16-.59.23-.85a5.23,5.23,0,0,1,0-1.8c.3-.75-.2-.78-.53-1l.41-1.13a4.47,4.47,0,0,1-.09-1.26c.17-.66.06-1.06-.85-1.14.81-.52.6-1.14.41-1.72l1.08-.83a2.3,2.3,0,0,1-.32-3.12,2.84,2.84,0,0,0,.09-1.54,8.38,8.38,0,0,0-.37-1.38l-.67-.46.94-.82-1.17-.66c.57-.32.72-1.47.28-2.34l1.07-.17-.45-.58L4.65,25l-.79-.61.52-.89-1-.56.72-.49V21.23l.55-.16V21l-.56-.12c0-.73,0-1.41,0-2.08,0-.33.35-.71-.13-1-.21-.14-.28-.48-.42-.75.49-.11.46-.62.3-1-.09-.23-.49-.35-.87-.59-.05-.09-.21-.32-.33-.57a1.54,1.54,0,0,1-.21-.62,1,1,0,0,0-1.44-.85c0-.58-.31-.91-.93-.82V10.93a8.93,8.93,0,0,1,1.11.74c.12.11.05.41.09.62a.74.74,0,0,0,.14.41.5.5,0,0,0,.38,0c.07-.3.25-.73.12-.88-.47-.55-1-1.18-1.84-1V3.41l6.73,0a5.77,5.77,0,0,1,.1.76q0,16.13-.06,32.26c0,3.8,0,7.61,0,11.41l0,.06,0,.06v3.58c0,.24,0,.47,0,.71Q6.7,54.46,6.69,56.65Z"/><path class="cls-2" d="M142,3.69c-.14.16-.41.32-.41.49,0,1.89.07,3.77.1,5.66,0,.54-.06,1.08-.09,1.62h-.2l-.49-1c-.28-.55-.75-.69-1.13-.24s-.38.18-.68.13a8.26,8.26,0,0,0-1.77.11l.85.66c-.63,0-1.23-.27-1.1.73,0,.15-.29.31-.34.49a.8.8,0,0,0,.34,1c.16.11.14.47.21.72-.85.05-1.09.77-1.2,1.56s.47,1.44-.14,2.14c-.28.32,0,.9.3,1a10.64,10.64,0,0,1-.11,1.17c-.06.29-.25.55-.3.84a8.35,8.35,0,0,0,0,1.2c-.69.54.33,1.15.25,1.89-.35.23-.59.52-.07.93.08.06.06.28,0,.42s-.15.27-.13.29c.58.5,0,1,0,1.5a8.76,8.76,0,0,0,0,2.77,3,3,0,0,1,0,1.86c-.08.43.06.9,0,1.36.26.35.66.66,0,1a.56.56,0,0,0-.18.51c.28.64-.15,1.43.44,2a.15.15,0,0,1,0,.13,7.43,7.43,0,0,0-.16,2.85c0,.42,0,.85,0,1.27s-.07,1.05-.08,1.58.05,1.33,0,2a5.55,5.55,0,0,1-.24,1,8.69,8.69,0,0,1,.19,1.36c0,1,.45,2.05-.23,3-.06.09,0,.29,0,.43a4.29,4.29,0,0,1-.07,2.65,1.44,1.44,0,0,0,0,.81c.24.79.23.83-.62.69,0-1-.05-1.93-.06-2.89q-.06-5.87-.12-11.73V36.92c0-.14,0-.28,0-.42q-.1-15.7-.2-31.39c0-.52,0-1,.05-1.55,1.13,0,2.27,0,3.4,0s2.55-.08,3.83-.12Z"/><path class="cls-4" d="M6.73,3.43,0,3.41V.14H28.12l-1,.39-2.07.83L24.8,3.58A6,6,0,0,0,24,3.46H16.6l-.2-2.08c-.9-.25-1.76-.56-2.65-.71A12.61,12.61,0,0,0,8.41,1a4.4,4.4,0,0,1-1,.23c-.46,0-.53.22-.54.62S6.8,2.9,6.73,3.43Z"/><path class="cls-4" d="M30,.14H52a2.52,2.52,0,0,1-.52.38c-.69.27-1.39.5-2.17.78l.47.25-.07,2c-1.87,0-3.74-.09-5.62-.12-.48,0-1,.07-1.46.11l-.2-2.18-.62.06-.12,2.15-.2,0-6.89,0c0-.28-.06-.55-.09-.83-.06-.47-.13-.93-.2-1.4-.05-.07-.09-.19-.16-.21L31,.38Z"/><path class="cls-4" d="M89.6.14h19c-.08.14-.13.36-.25.41-.75.3-1.51.56-2.36.87h.93l0,2.14-6.42-.09a1.6,1.6,0,0,0-.5.18.13.13,0,0,1-.1-.06A10.65,10.65,0,0,1,99.73,2c0-.68-.24-.82-.91-.62v2H91.91l-.19-1.88L92,1.24c-.8-.3-1.53-.56-2.26-.85C89.7.36,89.66.23,89.6.14Z"/><path class="cls-4" d="M114.88.14h11.93c-.06.09-.11.23-.19.26-1,.35-2,.68-3,1h1.26c0,.39-.11.77-.13,1.16a8.1,8.1,0,0,0,0,.88l-1.83,0-6.33.09-.15-2.14h1.26c-.87-.3-1.73-.58-2.58-.9C115,.48,115,.27,114.88.14Z"/><path class="cls-4" d="M142,3.41c-1.28,0-2.55.09-3.83.12s-2.27,0-3.4,0l-.24-2,.91-.26c-.81-.26-1.63-.5-2.44-.79-.16-.05-.26-.27-.38-.41H142Z"/><path class="cls-4" d="M57.23.14h9.94C66.39,1.2,65.25,1.3,64.07,1.4a5.5,5.5,0,0,0,1.3.11h.83l-.1,1.92-7.21,0-.16-1.88.79-.3A2.59,2.59,0,0,1,59,1.13C58.39.79,57.6.82,57.23.14Z"/><path class="cls-3" d="M66.2,1.52h-.83a5.5,5.5,0,0,1-1.3-.11c1.18-.1,2.32-.2,3.09-1.26h7.38c.46.3.9.83,1.38.86a47.19,47.19,0,0,0,5.64.1c.56,0,1.1-.63,1.65-1H89.6c.06.09.1.22.18.26.72.28,1.45.55,2.26.85l-.33.31a.94.94,0,0,0-.33-.12c-1.7.06-3.33-.71-5.07-.33-1.19.26-2.42.31-3.63.46-.87,0-1.74,0-2.6,0l-4.91.07a2.5,2.5,0,0,0-.73-.45A14.61,14.61,0,0,0,70.92.51,11.23,11.23,0,0,0,66.2,1.52Z"/><path class="cls-3" d="M57.23.14c.38.68,1.17.65,1.74,1a2.59,2.59,0,0,0,.55.16l-.79.3a15.7,15.7,0,0,1-2.89-.38,14.07,14.07,0,0,0-3.58.08c-.84.05-1.67.18-2.51.27l-.47-.25C50.06,1,50.76.78,51.45.52A2.52,2.52,0,0,0,52,.14Z"/><path class="cls-4" d="M83.21.14c-.55.34-1.08.94-1.65,1A47.19,47.19,0,0,1,75.93,1C75.45,1,75,.44,74.55.14Z"/><path class="cls-3" d="M132.63.14c.13.14.22.35.38.41.81.29,1.63.53,2.44.79l-.91.26a2.21,2.21,0,0,0-.44-.18,6.83,6.83,0,0,1-1.65-.27,8,8,0,0,0-3.9-.39,30.11,30.11,0,0,0-3.71.65h-1.26c1-.34,2-.67,3-1,.08,0,.13-.17.19-.26h5.82Z"/><path class="cls-3" d="M114.88.14c.08.13.14.34.25.38.85.32,1.71.6,2.58.9h-1.26c-.53-.12-1.06-.2-1.57-.35a11.43,11.43,0,0,0-4.66-.32,33.18,33.18,0,0,0-3.28.67H106c.85-.31,1.62-.57,2.36-.87.12,0,.17-.27.25-.41Z"/><path class="cls-3" d="M30,.14l1,.24,3.16.77c.07,0,.11.14.16.21a13.54,13.54,0,0,1-2.87-.16,8.54,8.54,0,0,0-3.12-.11c-1.07.11-2.14.18-3.21.27L27.15.53l1-.39Z"/><path class="cls-1" d="M0,10.79c.88-.14,1.37.49,1.84,1,.13.15,0,.59-.12.88a.5.5,0,0,1-.38,0,.74.74,0,0,1-.14-.41c0-.21,0-.52-.09-.62A8.93,8.93,0,0,0,0,10.93Z"/><path class="cls-4" d="M142,91a10.27,10.27,0,0,1-1.26,0c-.17,0-.31-.23-.47-.35l1.73-.34Z"/><path class="cls-4" d="M1,90.47c-.05.14-.09.38-.16.39a4.35,4.35,0,0,1-.8,0v-.71Z"/><path class="cls-1" d="M141.86,93.86l.14-.14Z"/><path class="cls-1" d="M0,93.72l.14.14Z"/><path class="cls-5" d="M124.84,1.42a30.11,30.11,0,0,1,3.71-.65,8,8,0,0,1,3.9.39,6.83,6.83,0,0,0,1.65.27,2.21,2.21,0,0,1,.44.18l.24,2c0,.52-.06,1-.05,1.55q.1,15.7.2,31.39c0,.14,0,.28,0,.42v2.84q.06,5.87.12,11.73c0,1,0,1.93.06,2.89v1.71l-.13,3.4-.21,1c-1.72,0-3.45.07-5.17.09-.45,0-.8.07-.86.6a6.47,6.47,0,0,0-.48,1.47c-.08,1,0,1.92,0,2.87a2.49,2.49,0,0,1-.22.68c0-1.23,0-2.45-.06-3.68,0-1.95,0-2-1.93-2-.47,0-.6-.17-.61-.62,0-1-.07-2-.1-3a1.13,1.13,0,0,0,0-.21q-.08-9.44-.16-18.88-.13-16.79-.25-33.58a4.33,4.33,0,0,0-.16-.81,8.1,8.1,0,0,1,0-.88C124.73,2.19,124.79,1.8,124.84,1.42Zm8.6,52.17c0-1.27-.06-2.54-.07-3.81q-.08-12.41-.14-24.83c0-6.6,0-13.2,0-19.8q0-.37,0-.73H133v43a.6.6,0,0,1-.09-.33c0-3.84-.12-7.68-.13-11.53q0-15,0-30c0-1.14,0-1.13-1.11-1.15s-2.34-.07-3.51-.07c-.12,0-.24.22-.36.35,0,.57,0,1.13,0,1.7q.14,7.6.28,15.21a1.81,1.81,0,0,1-.24-.57q-.1-2.58-.15-5.16c-.06-2.9-.1-5.81-.15-8.71,0-.24,0-.49,0-.73a1.14,1.14,0,0,0-.15.69q.07,4.78.14,9.56t.13,9.28c.05,3.76.11,7.51.14,11.27,0,3.5,0,7,0,10.5,0,.31,0,.61.06.92l.12,4.76-.46.26c0-4.24,0-8.35,0-12.46,0-3.64-.09-7.28-.14-10.91s-.1-7.32-.14-11q-.08-7.09-.16-14.18a.83.83,0,0,0,0-.21c0-.13-.09-.26-.14-.37,0,1.5,0,3,0,4.46,0,3,.09,6,.13,8.93q.07,5.2.14,10.4c.05,4.13.11,8.27.14,12.4q0,6.6,0,13.2c0,.88-.25,1.76-.35,2.65A13.88,13.88,0,0,0,127,58c.46.14.76.13.88-.41,0-.18.41-.28.65-.43l.31,1.25c1.62-.67,3.17-.15,4.79,0L133.57,57Z"/><path class="cls-4" d="M130.08,90.47c0,.38-.1.55-.51.54-1.19,0-2.39,0-3.59,0-.2,0-.4-.26-.6-.4a5.49,5.49,0,0,1,.7,0,1.75,1.75,0,0,0,2-1.84c0-3.64-.07-7.28-.1-10.92,0-.51,0-1,.07-1.54h.7c0,1.55.08,3.1.09,4.65,0,2.62.07,5.24,0,7.85A1.57,1.57,0,0,0,130.08,90.47Z"/><path class="cls-3" d="M128.78,76.25h-.7V74.41l.28-.22-.28-.21v-.7l.29-.22-.29-.22,0-2.56c.35-.18.34-.37,0-.55V69l.18-.14-.18-.13v-.86a1.13,1.13,0,0,0,0-1.46v-.19a2.49,2.49,0,0,0,.22-.68c0-1,0-1.92,0-2.87a6.47,6.47,0,0,1,.48-1.47c0,2.95,0,5.89.06,8.84C128.79,72.1,128.78,74.18,128.78,76.25Z"/><path class="cls-2" d="M135.1,56.09V54.66c.32,0,.52.05.52.45a8.1,8.1,0,0,0,.13,1.06Z"/><path class="cls-3" d="M134.76,60.5l.21-1Z"/><path class="cls-2" d="M137.64,13.05l-.43-.13.08-.24.42.15Z"/><path class="cls-2" d="M137,14.51c-.09,0-.16.1-.19.09s-.09-.11-.13-.17.12-.06.17-.05S136.94,14.45,137,14.51Z"/><path class="cls-5" d="M6.73,3.43c.07-.53.17-1.05.19-1.58s.08-.61.54-.62a4.4,4.4,0,0,0,1-.23A12.61,12.61,0,0,1,13.75.68c.89.16,1.75.47,2.65.71l.2,2.08a9.68,9.68,0,0,0-.13,1.11q0,22.11-.08,44.21c0,2.77,0,5.53,0,8.3l-.15,3.42c-.63,0-1.2,0-1.76,0-.23,0-.44.25-.65.38l-.79.15-.26-.51a2.76,2.76,0,0,0-.69-.2c-1.09,0-2.18-.07-3.26,0-.82.06-1.36-.15-1.6-1,0,0-.06,0-.1,0L7,59.73l-.22-.94-.13-2.13q0-2.2,0-4.39c0-.24,0-.47,0-.71.12.15.24.3.35.46a4.39,4.39,0,0,1,.21.41,4.93,4.93,0,0,0,.32-1.16,5.18,5.18,0,0,0-.26-1.16l-.62.58v-.83c.13,0,.36,0,.39-.1a7.25,7.25,0,0,0,.72-1.83c.06-.37-.31-.8-.49-1.21l-.2,0a3,3,0,0,1-.09.61,2.77,2.77,0,0,1-.32.51c0-3.8,0-7.61,0-11.41q0-16.13.06-32.26A5.77,5.77,0,0,0,6.73,3.43ZM9.08,46v6.68l-.29.57,0-5.51c0-3.07,0-6.15,0-9.22q-.06-16.7-.14-33.4c0-.19,0-.38,0-.56a1.13,1.13,0,0,0-.13.63q0,20.94,0,41.88c0,.23,0,.47.05.7s0,.24,0,.35q-.12,4.37-.25,8.73L8,59c.42-.31.7-.69,1-.72,1.28-.13,2.57-.15,3.91-.21a.81.81,0,0,1,0-.31,3.38,3.38,0,0,1,.32-.47c.17.13.46.24.49.4.16.74.61.62,1.06.49-.48-17.9,0-35.75,0-53.6h-.23V17.88h-.32c0-3,0-5.94,0-8.91,0-1.18.09-2.35.11-3.53,0-.89-.28-1.18-1.18-1.17s-1.89.08-2.83.08c-1.2,0-1.38.15-1.38,1.34q0,12.81,0,25.62c0,.33,0,.66.06,1l.07,13.43Zm7-35.82,0-.24-.62.16,0,.14ZM16,20.69v-.08h-.57v.08Zm-.1-1.81c0,.06-.11.12-.09.16s.11.12.14.1a.66.66,0,0,0,.15-.16ZM8.46,60.1s0-.1,0-.11-.07,0-.11,0,0,.1,0,.11S8.42,60.12,8.46,60.1Z"/><path class="cls-4" d="M14.5,90.23c0,.56-.36.74-.89.68s-.89,0-1.43-.07l.31-.75A4.85,4.85,0,0,0,13,88.68c0-3.79,0-7.59,0-11.38,0-.4,0-.79.06-1.19h.68c0,.38,0,.75,0,1.13,0,3.8,0,7.59,0,11.39A1.63,1.63,0,0,0,14.5,90.23Z"/><path class="cls-3" d="M13.74,76.1h-.68v-15l.79-.15c0,.5,0,1,0,1.49Q13.77,69.25,13.74,76.1Z"/><path class="cls-3" d="M6.81,58.79l.22.94.11-.37s.09,0,.1,0c.24.82.78,1,1.6,1,1.08-.08,2.17,0,3.26,0a2.76,2.76,0,0,1,.69.2h-6Z"/><path class="cls-1" d="M41.46,3.55l.2,0c0,.3.06.61.07.91,0,1.57,0,3.15,0,4.72v.29c0,.16,0,.33,0,.49q0,22.79,0,45.58c0,2.81,0,5.63.06,8.44V74.84a.09.09,0,0,0,0,.13l0,1.12c0,.38,0,.75,0,1.13,0,3.81,0,7.62,0,11.42a1.59,1.59,0,0,1-.87,1.69l-.16.27v0l-1.35,0H30.32l-.78,0a1.24,1.24,0,0,0-.33-.25,1.47,1.47,0,0,1-1.11-1.72c.05-1,0-2.08,0-3.12q0-4.71,0-9.42v-7c0-.42,0-.85,0-1.27,0-2.17,0-4.35,0-6.52,0-.57.21-.83.79-.8s1,0,1.56,0H34.4l.13-7.31L35,53l0-.14-.47-.05v-.71L35,52l0-.18-.45.11v-.42l.52-.23-.35-.54.19,0c.07-.38.17-.76.21-1.15.12-1-.23-2.19.75-3,0,0,0-.09,0-.13a2.24,2.24,0,0,1-.31-1.08,5.1,5.1,0,0,1,.09-2,6.87,6.87,0,0,0,0-2.41.52.52,0,0,0-.17-.37c-.52-.36-.34-.76-.09-1.16.54-.85-.26-1.76.12-2.62,0,0-.08-.07-.08-.11,0-.55-.05-1.11-.1-1.66-.09-1,.6-2,.21-3.1a1.36,1.36,0,0,0-.12-2c-.22-.26.07-.89-.08-1.28a2.89,2.89,0,0,1,.19-1.95c.05-.18.15-.41.08-.54-.51-.9-.29-1.91-.47-2.86-.06-.31.23-.68.21-1,0-.8-.19-1.6-.25-2.41,0-.37-.14-.59-.54-.57v-.71l.17-.07-.17-.07v-.42l.24-.25-.23-.18V16.61q.56-.29,0-.57V13.92l.78-.2c-.19-1,.07-1.75.71-2.07L35.85,11l-.48.17c.41-1.11-.54-2.31.5-3.24l-.41-.31.73-.17c0-.14-.09-.28,0-.36.17-.33.31-.79.59-.94a8.74,8.74,0,0,1,1.54-.42,6.24,6.24,0,0,1,1.28-.48c.71,0,1.45,0,1.62,1l.19-.08Z"/><path class="cls-1" d="M97.47,90.53l-9.6,0a7.75,7.75,0,0,1-1-.15c-.61-.31-1.17-.57-1.15-1.46,0-2.31,0-4.61,0-6.92,0-1.9,0-3.81-.05-5.71,0-2.83,0-5.65,0-8.48,0-2,0-4.1,0-6.14.1-1.13.1-1.13,1.27-1.13H92v-4c.43-1,1.15-1.88.63-3.08a1.31,1.31,0,0,1,.1-1.15c.47-.52.25-1.07.27-1.61s-.1-.84-.11-1.26,0-1,0-1.53,0-1,0-1.52c.08-1.11.24-2.23.24-3.34S93,40.69,93,39.51c0-.2.17-.4.18-.6,0-.55,0-1.09,0-1.64,0-.33-.06-.66-.09-1,0-.48-.3-1.1-.09-1.42.62-1,0-1.7-.38-2.37a.83.83,0,0,1,0-.87c.21-.54.48-1.12.12-1.49l-.15-1.19a1.56,1.56,0,0,1,0-.27c0-.64.09-1.27.11-1.91s0-1.31,0-2c0-.38.34-1,.2-1.1-.55-.52-.09-1.07-.19-1.58a7.56,7.56,0,0,1-.07-.92l.08,0L93,19.57l-.47-.22c.11-.28.34-.57.27-.72-.41-.93,0-1.84,0-2.75,0-.28-.19-.56-.17-.84,0-.67.16-1.33.24-2a1.74,1.74,0,0,1,.84-1.58l-.74-.7.82-1.38-.84.05-.23-.07c.73-.63,1.23-1.31.61-2.18.73-.28,1.77,0,1.74-1.23L96.12,6l.06-.58,1,.43c.4,0,.91-.58,1.45,0L98.85,4a4.29,4.29,0,0,1,.13.72q.07,12.47.13,24.95,0,4.85.06,9.71v2.83l0,2.82v.63c0,.26,0,.52,0,.77q.06,13.09.12,26.18c0,1.2,0,2.41.07,3.61a7.35,7.35,0,0,0-.07.76q0,5.77,0,11.54c0,1.36-.15,1.57-1.44,1.92Z"/><path class="cls-1" d="M99.88,3.59a.12.12,0,0,0,.1.06,1.13,1.13,0,0,1,.11.4c-.18,1.62.32,3.24,0,4.86a2.42,2.42,0,0,0,.05.6c.55-.13,1.05-.26,1.56-.36a5.59,5.59,0,0,1,.68-.06c0,.24.09.53,0,.72s-.4.36-.79.68l2,1,.46,2.33.59-.39a1.7,1.7,0,0,1-.24.76,1.2,1.2,0,0,0,.24,1.7c.15.12.17.44.19.67.05.7.08,1.41.12,2.2-.83.57-.85.7-.07,1.52l.66-.35c-.08.59-.18,1.12-.21,1.66a6.53,6.53,0,0,0,.08,1.08,4,4,0,0,1-.14,2.65c-.06.11,0,.39.16.52a2.62,2.62,0,0,0,.52.39c0,.53,0,1-.07,1.39s-.05.87-.08,1.33l-.51-.2a2.37,2.37,0,0,0,.06.79,3.66,3.66,0,0,1,.54,2c0,.49-.27,1-.28,1.45a13,13,0,0,1-.15,3.32.61.61,0,0,0,0,.35c.26.75-.11,1.65.52,2.32a.32.32,0,0,1,0,.28,3.1,3.1,0,0,0-.16,2.15c0,.13-.12.31-.2.51l-.39-.41c-.22.66.14,1,.49,1.36a1.56,1.56,0,0,1,.5,1.75,4.31,4.31,0,0,0-.26,1.48A13,13,0,0,0,106,49c.17.68-.24,1.48.47,2.08.13.11.09.44.09.66,0,.71-.06,1.41,0,2.12,0,.42.17.8.73.71.05,1.77.13,3.54.14,5.31,0,.57.18.72.73.71,1.54,0,3.07,0,4.61,0,.66,0,.95.17.92.88,0,.87,0,1.75.05,2.62l0,1.39v1.29l0,9.49c0,.31-.05.61,0,.92q0,5.74.08,11.47c0,1.19-.38,1.66-1.59,1.84a11.84,11.84,0,0,1-1.27.07l-1.76.07c-2,0-4.1,0-6.15,0-.63,0-1.26-.13-1.89-.2-.85-.35-1-1-1-1.87,0-3.87,0-7.73,0-11.6a4.67,4.67,0,0,0-.12-.73,10.36,10.36,0,0,0,.1-1c0-3.5-.06-7-.07-10.51q-.1-27.69-.19-55.37C99.82,7.37,99.86,5.48,99.88,3.59ZM105.75,51s-.06.09,0,.12.07,0,.11.05.06-.09,0-.12S105.79,51,105.75,51Z"/><path class="cls-1" d="M54.62,90.47l-10.71,0a3.77,3.77,0,0,1-.74-.15c-.83-.64-.7-1.55-.69-2.43,0-.54,0-1.09,0-1.63q0-5.06,0-10.13c0-3.47,0-6.93,0-10.4,0-2.17,0-4.34,0-6.5v-2q0-7.46.05-14.92a2.28,2.28,0,0,0-.07-.41v-.57l0-1.27V38.32l0-.7.05-4.25V20.88l0-8.07v-.36c0-.94,0-1.89,0-2.83,0-2,.06-4,.09-5.93.08,0,.21.1.22.15a25.4,25.4,0,0,1,.08,3c-.07.91.14,1.49.93,1.78.57.21.58.63.12,1.05-.18-.19-.36-.54-.53-.53-.49,0-.63.48-.41,1.16a1.1,1.1,0,0,0,1.52-.71c.11-.28.47-.47.71-.7l.29.19a7.14,7.14,0,0,1-.44,1.17,1.09,1.09,0,0,0,.32,1.58c.22.12.55.33.55.5s-.29.43-.47.67l1.13,1.53a1.24,1.24,0,0,0,0,.47,5.65,5.65,0,0,0,.39.82l-.7.33.65.37-.25.07-.15.71c-.38.35-.38.4.08.7l-.08-.7.61-.23.2,1.65-.79.35.06.19h1l-.46.48.65.37c-.9.09-1.26.85-1,1.15.46.62.11,1.29.4,1.93s0,1.57-.1,2.4h0a4.31,4.31,0,0,1,.51.68.77.77,0,0,1,.06.58,1.7,1.7,0,0,1-.43.44,10.52,10.52,0,0,1,.55,1.58c.13.73-.85.58-1,.89.45.47.83.82,1.14,1.21s0,.55-.28.51c-.7-.08-.65.54-.79.87s.12.63.25.94c.2.48.45.94.65,1.42,0,.06-.14.26-.26.32a2.38,2.38,0,0,1-.59.11c.14.21.2.38.32.46.44.31.25.62,0,.89a1.12,1.12,0,0,0,.29,1.62l.31-.37.38.83-.72-.07c-.14.47-.5,1.07-.34,1.27.53.7-.29,1.2-.11,1.83A5.18,5.18,0,0,1,47,42.77c0,.26,0,.68.18.75.82.41.48,1.21.5,1.74,0,.72-.33,1.44.39,2l-.55,1h.2c.07.37.15.74.2,1.11a3.64,3.64,0,0,1,0,.62l-.63-.19a2.86,2.86,0,0,0,.93,2.09c.09.07.18.28.14.36-.43.87.42,1.48.5,2.27a9.64,9.64,0,0,1,.21,1.39c0,.46,0,1,.69,1,0,1,.09,1.94.08,2.91,0,.49.14.66.64.65,1.51,0,3,0,4.54,0,1,0,1,0,1,1q0,7.27.07,14.55c0,4.2,0,8.41,0,12.61a1.59,1.59,0,0,1-.86,1.56A3.63,3.63,0,0,1,54.62,90.47Z"/><path class="cls-1" d="M13.74,76.1q0-6.85.08-13.7c0-.5,0-1,0-1.49.22-.13.42-.36.65-.38.56-.06,1.13,0,1.76,0l.15-3.42c.43,0,.43-.22.51-.56a16.59,16.59,0,0,1,.77-2.3,14.08,14.08,0,0,1,.82-1.49l1.73.19.31.44a.86.86,0,0,1,1.51.3,4.16,4.16,0,0,0,1.46,1.88c.18.12.25.42.35.65.18.42.33.88,1,.69l.14,3.58H26.7l.42.1a2.92,2.92,0,0,1,.27.82c0,2.06,0,4.13.05,6.19v8.51c0,.33,0,.66,0,1,0,3.9,0,7.81,0,11.71a1.35,1.35,0,0,1-1.06,1.47,4.9,4.9,0,0,0-.51.21c-3.4,0-6.79,0-10.19,0a5.49,5.49,0,0,1-1.17-.26,1.63,1.63,0,0,1-.76-1.62c0-3.8,0-7.59,0-11.39C13.77,76.85,13.75,76.47,13.74,76.1Zm5.69-22.74-.05-.23-.41.09c0,.08.06.22.09.22A1.83,1.83,0,0,0,19.42,53.36Zm2,.14s-.09-.06-.11,0,0,.07-.05.11.09.06.11,0S21.37,53.53,21.39,53.49Z"/><path class="cls-1" d="M128,70.28l0,2.56v3.41c0,.51-.07,1-.07,1.54,0,3.64.07,7.28.1,10.92a1.75,1.75,0,0,1-2,1.84,5.49,5.49,0,0,0-.7,0h-8.95c-.23,0-.47,0-.7-.05-.06-.08-.11-.22-.19-.24-.83-.21-1.07-.74-1.07-1.57,0-3.35,0-6.71-.05-10.06,0-.82-.06-1.64-.09-2.47l-.06-9.51V61.48c0-.73.29-1,1-1,.46,0,.93,0,1.44,0l.16-3c.13-.1.32-.17.39-.29.2-.38.36-.79.53-1.18.11-.13,0-.34.05-.49.31-.8.65-1.59,1-2.37.06-.14.3-.19.44-.3.35-.26.75-.45.57-1.05-.11-.35,0-.69.53-.42a1.24,1.24,0,0,0,.4.09,5.36,5.36,0,0,0-.34.83,2.79,2.79,0,0,0,0,.73,3.89,3.89,0,0,1,1.53.52c.41.37,1.13.62,1.1,1.39,0,.06.13.13.19.2a6.59,6.59,0,0,1,1.11,1.26c.22.41.42.58.85.52,0,1,.1,2,.1,3,0,.45.13.61.61.62,1.91,0,1.9.06,1.93,2,0,1.23,0,2.45.06,3.68v.19q0,.73,0,1.46v2.41Zm-9.07-15.51-.12-.05s-.06.09,0,.11.07,0,.11.05Z"/><path class="cls-1" d="M69,90.46c-3.32,0-6.64,0-10,0a6.73,6.73,0,0,1-1.11-.18,1.47,1.47,0,0,1-1-1.68c0-1.44,0-2.88,0-4.32q0-4.11,0-8.21,0-2.23,0-4.46,0-5.1,0-10.21c0-.37-.22-.87.46-.89l1.29-.06.11-.1,0-.58.08-2.7c.22-.57,1.07-.83.81-1.66,0-.09.23-.36.37-.38.59-.09.55-.58.59-.94s.19-.44.54-.34a2.77,2.77,0,0,0,1.08.16c1.35-.18,2.09.54,1.82,1.79l1.79.84-.08.19.49-.23.18,4h2.64c1.36,0,1.36,0,1.37,1.35q0,7.13.09,14.26c0,.26,0,.52,0,.77q0,5.94,0,11.88a1.28,1.28,0,0,1-1.06,1.52Z"/><path class="cls-1" d="M83.07,90.56l-.85,0H80.94c-2.33,0-4.66,0-7-.06-.56,0-1.12-.12-1.68-.18-.88-.36-1-1-1-1.93.05-2.48,0-5,0-7.44,0-1.63,0-3.25,0-4.88q0-7.3,0-14.6c0-1,0-1,1-1h3l.16-3.55a.65.65,0,0,0,.88-.56c-.06-.82.57-.76,1-1l1.15-.55-.06-.16,1.07.49-.2.77.16.05.38-.62c.1.14.2.37.27.36,1.1-.16,1.48.75,2.06,1.36.12.12.25.23.39.36l.37-1.4L83,60.5h.69c1.13,0,1.14,0,1.15,1.15q0,3.11.06,6.22v8.37c0,.26,0,.52,0,.78q0,5.46,0,10.92C84.95,89.93,84.94,89.93,83.07,90.56Z"/><path class="cls-4" d="M100,76.18a4.69,4.69,0,0,1,.12.73c0,3.87.07,7.73,0,11.6,0,.86.15,1.52,1,1.87a6.87,6.87,0,0,1-1.56.63,17,17,0,0,1-2.36,0l.22-.5.4-.13c1.29-.35,1.45-.56,1.44-1.92q0-5.77,0-11.54a7.29,7.29,0,0,1,.08-.76Z"/><path class="cls-4" d="M56.9,76.08q0,4.11,0,8.21c0,1.44,0,2.88,0,4.32a1.47,1.47,0,0,0,1,1.68c-.22.2-.44.56-.68.58a22.36,22.36,0,0,1-2.52,0s-.08-.25-.11-.38a3.63,3.63,0,0,0,.72-.23,1.59,1.59,0,0,0,.86-1.56c0-4.2,0-8.41,0-12.61Z"/><path class="cls-4" d="M114.34,76.22c0,.82.08,1.64.09,2.47,0,3.35.07,6.71.05,10.06,0,.83.24,1.36,1.07,1.57.08,0,.13.15.19.24a4.85,4.85,0,0,1-3.08.42,5.51,5.51,0,0,1-.63-.09h0l-1.9-.15c-.32,0-.63-.09-.95-.14l1.76-.07a11.84,11.84,0,0,0,1.27-.07c1.2-.18,1.59-.65,1.59-1.84q0-5.74-.08-11.47c0-.3,0-.61,0-.92Z"/><path class="cls-4" d="M83.07,90.56c1.87-.63,1.88-.63,1.87-2.63q0-5.46,0-10.92c0-.26,0-.52,0-.78h.66c0,1.9,0,3.81.05,5.71,0,2.31.06,4.62,0,6.92,0,.89.55,1.15,1.15,1.46.13.63-.55.58-.72.59a26.11,26.11,0,0,1-2.87-.08C83.17,90.84,83.12,90.66,83.07,90.56Z"/><path class="cls-4" d="M71.25,76.09c0,1.63,0,3.25,0,4.88,0,2.48,0,5,0,7.44,0,.89.14,1.57,1,1.93-.82,1.06-2,.6-3,.61-.08,0-.17-.32-.26-.49l.51-.2a1.28,1.28,0,0,0,1.06-1.52q0-5.94,0-11.88c0-.26,0-.52,0-.77Z"/><path class="cls-4" d="M25.85,90.48a4.9,4.9,0,0,1,.51-.21,1.35,1.35,0,0,0,1.06-1.47c0-3.9,0-7.81,0-11.71,0-.33,0-.66,0-1h.67q0,4.71,0,9.42c0,1,0,2.08,0,3.12a1.47,1.47,0,0,0,1.11,1.72,1.24,1.24,0,0,1,.33.25c-.07.09-.14.25-.2.25C28.17,90.82,26.93,91.38,25.85,90.48Z"/><path class="cls-4" d="M42.46,76.11q0,5.06,0,10.13c0,.54,0,1.09,0,1.63,0,.88-.14,1.79.69,2.43l.32.67c-.87,0-1.7,0-2.52,0-.08,0-.15-.24-.23-.38v0l.16-.27a1.59,1.59,0,0,0,.87-1.69c0-3.81,0-7.62,0-11.42,0-.38,0-.75,0-1.13Z"/><path class="cls-4" d="M81.51,90.58h0Z"/><path class="cls-4" d="M80.94,90.58h0Z"/><path class="cls-4" d="M67.62,90.84h-.18v0h.18Z"/><path class="cls-4" d="M112,90.87l-.06.07s0,0,0,0l.06,0Z"/><path class="cls-3" d="M6.78,47.86a2.77,2.77,0,0,0,.32-.51,3,3,0,0,0,.09-.61l.2,0c.18.41.55.84.49,1.21a7.25,7.25,0,0,1-.72,1.83c0,.08-.26.07-.39.1V48.72c.56-.24.38-.49,0-.74l0-.06Z"/><path class="cls-3" d="M6.77,50.68l.62-.58a5.18,5.18,0,0,1,.26,1.16,4.93,4.93,0,0,1-.32,1.16A4.39,4.39,0,0,0,7.11,52c-.11-.16-.23-.31-.35-.46Z"/><path class="cls-5" d="M6.78,48c.37.25.56.49,0,.74Z"/><path class="cls-3" d="M134.91,39.19v0Z"/><path class="cls-3" d="M134.9,37.34v0Z"/><path class="cls-3" d="M134.91,39.76v0Z"/><path class="cls-2" d="M24.81,56.9c-.62.19-.77-.27-1-.69-.1-.23-.17-.53-.35-.65A4.16,4.16,0,0,1,22,53.67a.86.86,0,0,0-1.51-.3l-.31-.44-1.73-.19a14.08,14.08,0,0,0-.82,1.49,16.59,16.59,0,0,0-.77,2.3c-.08.34-.08.6-.51.56,0-2.77,0-5.53,0-8.3q0-22.11.08-44.21a9.68,9.68,0,0,1,.13-1.11H24a6,6,0,0,1,.83.12c0,.26,0,.51,0,.77q0,2.44,0,4.87V20.17c0,.26,0,.52,0,.78q0,13.09,0,26.17Q24.83,52,24.81,56.9Z"/><path class="cls-5" d="M24.81,56.9q0-4.89,0-9.78,0-13.09,0-26.17c0-.26,0-.52,0-.78.65-.07.66-.08.86-.64l-.72,0,.38-.48L24.88,19V9.52H26V9.22H24.88q0-2.44,0-4.87c0-.26,0-.51,0-.77l.28-2.22c1.07-.09,2.14-.16,3.21-.27a8.54,8.54,0,0,1,3.12.11,13.54,13.54,0,0,0,2.87.16c.07.47.14.93.2,1.4,0,.28.06.55.09.83l0,10.33v5.53l-.08,2.69h-.53l-.18-.05.18,0-.23.9.75.38c0,.19,0,.38,0,.56q0,9.35,0,18.7c0,3,0,5.9,0,8.85v1.7l-.13,7.31H30.52c-.52,0-1,0-1.56,0s-.79.23-.79.8c0,2.17,0,4.35,0,6.52,0,.42,0,.85,0,1.27a2,2,0,0,1-.25-.63c0-.82,0-1.65,0-2.48a2.37,2.37,0,0,0-.15.82,4.32,4.32,0,0,1-.24.72c0-2.06,0-4.13-.05-6.19a2.92,2.92,0,0,0-.27-.82l-.42-.1H24.95Zm7.73-22.22q0,1.31,0,2.62,0,8,0,15.95a3.53,3.53,0,0,1-.25-.92c0-6.9.08-13.79.11-20.69,0-4.54,0-9.08,0-13.61s0-8.89,0-13.32L32,5.25V5c.32-.51.07-.7-.41-.7-.95,0-1.89,0-2.84,0-1.54,0-1.71.17-1.71,1.69q0,5.22,0,10.43,0,.32,0,.63h-.24V4.44h-.19c0,.23,0,.47,0,.7,0,5.46.12,10.92.13,16.38q0,16,0,32c0,.72,0,1.45,0,2.17s-.19,1.2-.22,1.8c0,.18.24.54.36.53a1.09,1.09,0,0,0,.61-.38,8.13,8.13,0,0,0,.61-.78l.21.12.07,1.13c.91,0,1.74,0,2.56-.07a3.07,3.07,0,0,1,2.4.91l-.34-2.08c-.09-1.55-.24-3.1-.25-4.65,0-4.38,0-8.77,0-13.15,0-1.46,0-2.92.07-4.38,0-.23.07-.47.07-.7q.07-10.25.14-20.49c0-2.89,0-5.77,0-8.66q0-.3,0-.6a1,1,0,0,0-.28.7c-.06,3.59-.11,7.18-.15,10.77,0,2.74,0,5.49,0,8.23Q32.52,29.32,32.54,34.68Zm.91-21.95-.13,0a1.77,1.77,0,0,0,.13.7c.12.18.4.26.68.42V11.14l-.14,0Zm.87,5.36c-.27-.83.19-1.59-.53-2.28,0,.79,0,1.43,0,2.06C33.81,17.91,34,17.95,34.32,18.08Zm-.18-2.28V14.05A1.14,1.14,0,0,0,34.14,15.8Zm0,2.61-.16,0-.08,1.16h.23ZM34,21.77h.11V20.54H34Zm-8,1.14v-.2l-.83-.06V23Zm8.15-13H34v.8h.13ZM25.53,21.44l0-.12-.36-.08,0,.12Zm-.25-.59c.05-.09.11-.14.11-.19s-.07-.1-.11-.14-.11.09-.11.14S25.22,20.76,25.28,20.85Zm.3-12.65V8.12l-.3,0V8.2Z"/><path class="cls-5" d="M56.9,76.08h-.73q0-7.27-.07-14.55c0-1,0-1-1-1-1.51,0-3,0-4.54,0-.5,0-.65-.16-.64-.65,0-1-.05-1.94-.08-2.91l0-1.27v-.46c0-.23,0-.47,0-.7q0-22.34,0-44.69a.54.54,0,0,0,0-.92V8.69l.2-.14-.2-.21-.08-4.78.07-2c.84-.09,1.67-.22,2.51-.27a14.07,14.07,0,0,1,3.58-.08,15.7,15.7,0,0,0,2.89.38l.16,1.88a7.11,7.11,0,0,0-.1.84q0,22.46.07,44.92c0,2.62,0,5.25,0,7.87l-.08,2.7,0,.58-.11.1-1.29.06c-.68,0-.46.52-.46.89q0,5.1,0,10.21Q56.9,73.85,56.9,76.08ZM51.43,32.34l0,7.89c-.1,5.38.36,10.77-.19,16.14,0,.48-.11,1-.11,1.44,0,.09.26.26.4.25.89,0,1.79-.08,2.68-.12a3.66,3.66,0,0,1,1.15,0c.44.13.52,0,.6-.39a5.19,5.19,0,0,1,.39-.95A6.25,6.25,0,0,1,57,57.89c.06.13.22.29.33.29a.5.5,0,0,0,.37-.26,2,2,0,0,0,.05-.61l-.26-5.46c0-.21,0-.42,0-.64q0-23.06,0-46.13c0-.18,0-.37,0-.55a.79.79,0,0,0-.13.45c0,4.32-.12,8.65-.13,13q0,15.65,0,31.3c0,.87,0,1.75.06,2.62v1.65a14.19,14.19,0,0,1-.2-1.69q0-23,0-46,0-.4,0-.79h-.16l-.28.38,0-.67c-.12-.16-.25-.44-.37-.45-1.34,0-2.67,0-4,0a1.22,1.22,0,0,0-.06.29,1,1,0,0,0-.09,1.1c-.13.26-.38.52-.38.78,0,3.28.08,6.55.11,9.83s0,6.51,0,9.77c0,1.7,0,3.4,0,5.09-.06,5.26.2,10.53.06,15.79h-.26q0-3.36,0-6.72l0-7.89-.13-15c.14-4.36-.09-8.71-.21-13.07-.05,2.78-.06,5.57-.05,8.35,0,1.58,0,3.16.06,4.74,0,1.2.08,2.41.09,3.61C51.42,24.77,51.42,28.56,51.43,32.34Z"/><path class="cls-2" d="M49.75,55.68l0,1.27c-.68,0-.7-.57-.69-1a9.64,9.64,0,0,0-.21-1.39c-.08-.79-.93-1.39-.5-2.27,0-.08-.05-.29-.14-.36a2.86,2.86,0,0,1-.93-2.09l.63.19a3.64,3.64,0,0,0,0-.62c0-.37-.13-.74-.2-1.11h-.2l.55-1c-.73-.58-.37-1.3-.39-2,0-.53.32-1.33-.5-1.74-.15-.08-.17-.49-.18-.75a5.18,5.18,0,0,0,.05-1.14c-.17-.62.64-1.13.11-1.83-.16-.21.2-.8.34-1.27l.72.07-.38-.83-.31.37a1.12,1.12,0,0,1-.29-1.62c.25-.27.44-.58,0-.89-.12-.08-.18-.25-.32-.46a2.38,2.38,0,0,0,.59-.11c.12-.06.29-.25.26-.32-.19-.48-.45-.94-.65-1.42-.13-.31-.35-.7-.25-.94s.09-1,.79-.87c.33,0,.51-.22.28-.51s-.69-.74-1.14-1.21c.11-.31,1.09-.15,1-.89a10.52,10.52,0,0,0-.55-1.58,1.7,1.7,0,0,0,.43-.44.77.77,0,0,0-.06-.58,4.31,4.31,0,0,0-.51-.68h0c.06-.82.4-1.76.1-2.4s.06-1.31-.4-1.93c-.22-.3.14-1.06,1-1.15l-.65-.37.46-.48h-1l-.06-.19.79-.35-.2-1.65-.61.23h0l.15-.71.25-.07-.65-.37.7-.33a5.65,5.65,0,0,1-.39-.82,1.24,1.24,0,0,1,0-.47L45.49,13c.18-.24.47-.45.47-.67s-.33-.38-.55-.5a1.09,1.09,0,0,1-.32-1.58,7.14,7.14,0,0,0,.44-1.17l-.29-.19c-.24.23-.6.41-.71.7a1.1,1.1,0,0,1-1.52.71c-.22-.68-.08-1.14.41-1.16.17,0,.36.35.53.53.47-.43.45-.84-.12-1.05-.79-.29-1-.87-.93-1.78a25.4,25.4,0,0,0-.08-3c0-.05-.14-.1-.22-.15a.17.17,0,0,1,0-.14c.49,0,1-.12,1.46-.11,1.87,0,3.75.08,5.62.12l.08,4.78V9.83q0,22.34,0,44.69c0,.23,0,.47,0,.7Z"/><path class="cls-5" d="M42.61,3.56a.17.17,0,0,0,0,.14c0,2-.07,4-.09,5.93,0,.94,0,1.89,0,2.83l-.47.43.47-.07,0,8.07c-.08-.1-.23-.2-.23-.31,0-.93,0-1.85,0-2.78a1.54,1.54,0,0,0-.1-.39l-.13,0v5.2l.41-.49v1c-.94.25-.24.94-.48,1.35l.47-1v4.82c-.15.19-.42.38-.43.58,0,1.08,0,2.15,0,3.23,0,.15.28.29.43.43v.29l-.44.3.45.29-.05,4.25c-.14.18-.38.36-.39.55,0,.91,0,1.82,0,2.73,0,.15.25.28.38.42v.28l-.56.14.57.15a2.28,2.28,0,0,1,.07.41q0,7.46-.05,14.92c-.49,0-.42.32-.43.62,0,1.83,0,3.67,0,5.5a2.69,2.69,0,0,1-.19.68c0-2.81-.05-5.63-.06-8.44q0-22.79,0-45.58c0-.16,0-.33,0-.49l.48-.08V9.29l-.48-.07c0-1.57,0-3.15,0-4.72,0-.3,0-.61-.07-.91l.12-2.15.62-.06Z"/><path class="cls-2" d="M34.54,13.92l0-10.33,6.89,0-.09,2.64-.19.08c-.17-1-.91-1.08-1.62-1a6.24,6.24,0,0,0-1.28.48,8.74,8.74,0,0,0-1.54.42c-.29.15-.42.61-.59.94,0,.08,0,.22,0,.36l-.73.17.41.31c-1,.93-.09,2.14-.5,3.24l.48-.17.17.65c-.64.33-.89,1-.71,2.07ZM41.31,4A1.07,1.07,0,0,0,41,3.89s-.12.1-.11.13.09.17.14.17S41.2,4.11,41.31,4Z"/><path class="cls-5" d="M116.89,57.51l-.16,3c-.51,0-1,0-1.44,0-.73-.07-1.06.23-1,1-.13.19-.34.37-.37.58-.11.66-.14,1.34-.21,2,0-.87-.09-1.75-.05-2.62,0-.71-.26-.89-.92-.88-1.54,0-3.07,0-4.61,0-.55,0-.73-.15-.73-.71,0-1.77-.09-3.54-.14-5.31,0-.19.05-.37.05-.56q-.13-24.87-.27-49.73a4.37,4.37,0,0,0-.11-.68l0-2.14a33.18,33.18,0,0,1,3.28-.67,11.43,11.43,0,0,1,4.66.32c.51.16,1,.24,1.57.35l.15,2.14c0,2.5,0,5,0,7.51q.11,18.33.24,36.65Q116.85,52.62,116.89,57.51Zm-6.85-17q-.06-5.42-.12-10.84-.07-6.2-.15-12.4-.07-5.76-.15-11.52c0-.11,0-.22,0-.34a1.49,1.49,0,0,0-.11.69c0,3.19.1,6.37.13,9.56q.08,7.69.14,15.38c0,2.62,0,5.25,0,7.87,0,.54,0,1.08.05,1.63s.08,1.22.09,1.84q0,5.42,0,10.85l-.25.42c0-.38-.06-.58-.06-.79q-.07-10.32-.14-20.65c0-3.92-.09-7.85-.14-11.77q-.08-6.56-.15-13.12c0-.73,0-1.47,0-2.2a2,2,0,0,0-.12-.45l-.21,0c.06,1,.15,2,.17,3,.06,3.57.1,7.14.14,10.71q.08,6.24.14,12.48c.05,5.65.11,11.3.13,17a44.09,44.09,0,0,1-.4,8.9c-.13.64-.16,1.3-.23,1.89a3.07,3.07,0,0,1,.79-.47,6,6,0,0,1,3.37,0c.34.12.48,0,.48-.38s0-.63,0-1c1,.2.53,1.07.86,1.44l1.23.24-.06-1.29-.12-3.33c0-2.43-.09-4.86-.1-7.3,0-4.8,0-9.61,0-14.41q0-13.56,0-27.12c0-.27,0-.55-.06-.82l-.22,0c0,.32,0,.64,0,1q.06,15.68.13,31.36c0,5.75,0,11.5,0,17.25a2.35,2.35,0,0,1-.11-.47c0-2.43-.12-4.86-.13-7.3q-.09-19.41-.16-38.81c0-.69,0-1.37,0-2.06a3.21,3.21,0,0,0-.15-.57l-.29,1.24c0-1.29,0-1.29-1.32-1.27h-.35c-.75,0-1.51-.09-2.26-.11-.34,0-.56.1-.55.54.08,2.88.13,5.77.19,8.65q.12,6.14.25,12.27c0,.75.06,1.5.06,2.25,0,3.63,0,7.25,0,10.88,0,1.4.08,2.81.13,4.21a.89.89,0,0,0,.11.27c-.09-1.06.89-1.31,1.43-1.76a1.75,1.75,0,0,1,2.2.11V40.7h.21v13c-.61-.63-3.26-.64-4.18.05l-.1-.55c0-.19,0-.38,0-.56Q110.12,46.57,110,40.48Z"/><path class="cls-5" d="M84.93,67.87q0-3.11-.06-6.22c0-1.12,0-1.12-1.15-1.15H83l-.16-4.4c0-2.29,0-4.59,0-6.88q-.08-22-.17-44.05V4.35l-.19-.83.16-2c1.21-.15,2.44-.2,3.63-.46,1.74-.37,3.37.4,5.07.33a.94.94,0,0,1,.33.12l.19,1.88a5.22,5.22,0,0,0-.12.82q.07,22.91.15,45.82c0,2.15,0,4.3.06,6.45v4H86.86c-1.17,0-1.17,0-1.27,1.13l-.39-.28c0,2,0,3.89,0,5.83A2.28,2.28,0,0,1,84.93,67.87ZM85.49,26c0,3.21.1,6.42.13,9.63,0,2.12,0,4.24,0,6.36a10.56,10.56,0,0,0,.16,1.28l.21.06c.35-.43.74-.84,1-1.3s.54-.48.87-.07a1.82,1.82,0,0,0,.28.23l.23-.54.11.16c.24-.07.66-.1.69-.23a6.13,6.13,0,0,0,.08-1.31q.08-3.34.14-6.69c0-.38,0-.76,0-1.13q0-1.71,0-3.42h.21V53.83c-.51-.75-3.43-.81-4.17-.12l-.19-.52a5,5,0,0,0,.05-.56c0-2.71-.11-5.42-.13-8.13,0-3.66,0-7.31,0-11q-.06-5.24-.11-10.49C85,19,85,15,84.93,11c0-1.8,0-3.6,0-5.39a6.43,6.43,0,0,0-.07-.66l-.22,0,.22,25.35a.58.58,0,0,1-.2-.47q-.08-7.69-.15-15.39c0-3.24-.09-6.47-.14-9.71a.6.6,0,0,0,0-.14c0-.13-.08-.26-.12-.39l-.17,0c0,.25,0,.51,0,.76.09,2.52.23,5,.26,7.56q.12,8.47.14,16.95c0,6.32,0,12.63,0,18.95,0,.82,0,1.64,0,2.46,0,1.06,0,2.12,0,3.17s-.22,2.34-.29,3.51c0,.22.17.46.26.68l.2-.07L85.24,57l.18,0,.29,1.09c.7,0,1.32-.13,1.94-.13.79,0,1.58.1,2.37.13s.9-.08.7-.89c0-.73-.1-1.45-.11-2.18,0-1.43,0-2.86,0-4.29,0-3.55-.09-7.1-.1-10.64q0-10,0-19.94,0-7.7,0-15.4a.63.63,0,0,0-.09.39q0,19.73,0,39.47c0,2.93,0,5.87,0,8.8a11.81,11.81,0,0,1-.23-1.66q0-10.28,0-20.57,0-13,0-26c0-.41.13-.93-.61-.78h-4.2a6,6,0,0,0-.06.65q.06,4.36.14,8.71Z"/><path class="cls-2" d="M106.91,3.56a4.37,4.37,0,0,1,.11.68q.14,24.87.27,49.73c0,.19,0,.37-.05.56-.56.09-.72-.29-.73-.71,0-.71,0-1.41,0-2.12,0-.23,0-.55-.09-.66-.71-.6-.3-1.4-.47-2.08a13,13,0,0,1,0-2.91,4.31,4.31,0,0,1,.26-1.48,1.56,1.56,0,0,0-.5-1.75c-.36-.35-.71-.7-.49-1.36l.39.41c.08-.19.24-.38.2-.51a3.1,3.1,0,0,1,.16-2.15.32.32,0,0,0,0-.28c-.63-.67-.26-1.57-.52-2.32a.61.61,0,0,1,0-.35,13,13,0,0,0,.15-3.32c0-.48.24-1,.28-1.45a3.66,3.66,0,0,0-.54-2,2.37,2.37,0,0,1-.06-.79l.51.2c0-.46.05-.89.08-1.33s0-.86.07-1.39a2.62,2.62,0,0,1-.52-.39c-.11-.13-.22-.41-.16-.52a4,4,0,0,0,.14-2.65,6.53,6.53,0,0,1-.08-1.08c0-.54.13-1.07.21-1.66l-.66.35c-.78-.82-.76-.95.07-1.52,0-.79-.06-1.49-.12-2.2,0-.23,0-.55-.19-.67a1.2,1.2,0,0,1-.24-1.7,1.7,1.7,0,0,0,.24-.76l-.59.39-.46-2.33-2-1c.39-.32.67-.46.79-.68s0-.47,0-.72a5.59,5.59,0,0,0-.68.06c-.51.1-1,.23-1.56.36a2.42,2.42,0,0,1-.05-.6c.3-1.62-.2-3.24,0-4.86a1.13,1.13,0,0,0-.11-.4,1.6,1.6,0,0,1,.5-.18Zm-6.26,4.95,0,.25.82.17,0-.23Zm.3-1.72c.05-.07.11-.12.11-.17s0-.11-.07-.16a.63.63,0,0,0-.15.16S100.91,6.71,101,6.79Z"/><path class="cls-2" d="M92,56.52c0-2.15,0-4.3-.06-6.45q-.08-22.91-.15-45.82a5.22,5.22,0,0,1,.12-.82h6.91l0,.54L98.6,5.9c-.54-.6-1,0-1.45,0l-1-.43L96.12,6,95.06,6c0,1.26-1,1-1.74,1.23.62.87.12,1.55-.61,2.18l.23.07.84-.05L93,10.76l.74.7A1.74,1.74,0,0,0,92.87,13c-.07.67-.19,1.33-.24,2,0,.27.16.56.17.84,0,.91-.43,1.81,0,2.75.07.16-.16.44-.27.72l.47.22-.37,1.65-.08,0a7.56,7.56,0,0,0,.07.92c.1.51-.36,1.06.19,1.58.15.14-.18.72-.2,1.1,0,.65,0,1.31,0,2s-.07,1.27-.11,1.91a1.56,1.56,0,0,0,0,.27l.15,1.19c.36.37.09.94-.12,1.49a.83.83,0,0,0,0,.87c.35.67,1,1.41.38,2.37-.21.32,0,.94.09,1.42,0,.33.08.65.09,1,0,.55,0,1.09,0,1.64,0,.2-.19.4-.18.6.07,1.18.24,2.35.24,3.53S93,45.26,93,46.38c0,.5,0,1,0,1.52s-.05,1,0,1.53.13.84.11,1.26.19,1.08-.27,1.61a1.31,1.31,0,0,0-.1,1.15C93.14,54.64,92.42,55.54,92,56.52ZM93.21,6.71s.09.06.11,0,0-.07.05-.11-.09-.06-.11,0S93.22,6.67,93.21,6.71Z"/><path class="cls-3" d="M98.85,4l0-.54v-2c.67-.2.94-.07.91.62a10.65,10.65,0,0,0,.16,1.59c0,1.89-.06,3.78-.05,5.67q.09,27.69.19,55.37c0,3.5.05,7,.07,10.51a10.36,10.36,0,0,1-.1,1h-.64c0-1.2-.07-2.41-.07-3.61q-.07-13.09-.12-26.18c0-.26,0-.52,0-.77V45l0-2.82a1,1,0,0,0,0-1.41v-.3a.7.7,0,0,0,0-1.12q0-4.85-.06-9.71Q99,17.16,99,4.69A4.29,4.29,0,0,0,98.85,4Z"/><path class="cls-2" d="M116.89,57.51q0-4.89-.07-9.78-.12-18.33-.24-36.65c0-2.5,0-5,0-7.51l6.33-.09,1.83,0a4.33,4.33,0,0,1,.16.81q.13,16.79.25,33.58.07,9.44.16,18.88a1.13,1.13,0,0,1,0,.21c-.43.06-.63-.11-.85-.52a6.59,6.59,0,0,0-1.11-1.26c-.06-.07-.19-.14-.19-.2,0-.77-.69-1-1.1-1.39A3.89,3.89,0,0,0,120.5,53a2.79,2.79,0,0,1,0-.73,5.36,5.36,0,0,1,.34-.83,1.24,1.24,0,0,1-.4-.09c-.51-.27-.64.07-.53.42.18.6-.22.79-.57,1.05-.14.11-.38.16-.44.3-.36.78-.7,1.57-1,2.37-.06.15.06.37-.05.49-.17.4-.33.8-.53,1.18C117.21,57.34,117,57.41,116.89,57.51Z"/><path class="cls-2" d="M58.91,57.09c0-2.62,0-5.25,0-7.87q0-22.46-.07-44.92a7.11,7.11,0,0,1,.1-.84l7.21,0a5.5,5.5,0,0,1,.11.76q0,2.41,0,4.83,0,19,.08,38.05c0,3.15,0,6.29,0,9.44l-.49.23.08-.19-1.79-.84c.27-1.25-.47-2-1.82-1.79a2.77,2.77,0,0,1-1.08-.16c-.35-.1-.49-.1-.54.34s0,.86-.59.94c-.15,0-.4.3-.37.38C60,56.25,59.12,56.51,58.91,57.09Zm7.23-1,0-.06s0,0,0,0,0,0,0,.06Z"/><path class="cls-5" d="M66.32,56.52c0-3.15,0-6.29,0-9.44q0-19-.08-38.05,0-2.41,0-4.83a5.49,5.49,0,0,0-.11-.76l.1-1.92a11.23,11.23,0,0,1,4.72-1,14.61,14.61,0,0,1,3.53.66,2.5,2.5,0,0,1,.73.45l.13,2c0,.33,0,.66,0,1q0,16.46.1,32.92V48.14l0,8.81-.16,3.55h-3c-1,0-1,0-1,1q0,7.3,0,14.6H70.6q0-7.13-.09-14.26c0-1.34,0-1.34-1.37-1.35H66.5ZM74,52.28c0-.21,0-.43,0-.64q0-23.43,0-46.86c0-.17,0-.34,0-.51H73.7q0,2.38,0,4.75,0,21.23,0,42.45c0,.28,0,.56.07.84l0,1.21a3.77,3.77,0,0,1-.17-.78q0-23.65,0-47.31a2.2,2.2,0,0,0,0-.7c-.1-.29-.26-.67-.68-.29l-1.13,0h-.44l-2.67.11c-.61,0-.44.52-.44.86q.05,8.39.13,16.78.07,9,.13,18c0,4.16,0,8.33,0,12.49q0,.69,0,1.38h-.26c0-1.69,0-3.38,0-5.07Q68.11,35.61,68,22.2c0-4.68-.1-9.36-.14-14,0-1.14,0-2.27,0-3.41a4.59,4.59,0,0,0-.07-.55h-.21c0,.22,0,.44,0,.67,0,2.14.09,4.28.13,6.42.05,3.43.11,6.85.14,10.28q.09,10.81.14,21.61,0,5,0,10.08c0,.72-.16,1.45-.23,2.17s-.14,1.71-.2,2.61l2.57-.13c.17-.41.33-1.17.53-1.18.87,0,.5.81.7,1.27,1,.28,2.09-.31,2.93.6l-.07-1.44Z"/><path class="cls-4" d="M75.3,3.58l-.13-2,4.91-.07c.87,0,1.74,0,2.6,0l-.16,2h-.85Z"/><path class="cls-3" d="M133.57,57l.06,1.37c-1.62-.13-3.17-.65-4.79,0l-.31-1.25c-.25.16-.61.26-.65.43-.13.54-.42.55-.88.41a13.88,13.88,0,0,1,0-1.45c.09-.89.34-1.76.35-2.65q.05-6.6,0-13.2c0-4.13-.09-8.27-.14-12.4q-.06-5.2-.14-10.4c0-3-.1-6-.13-8.93,0-1.48,0-3,0-4.46,0,.12.1.24.14.37a.83.83,0,0,1,0,.21q.08,7.09.16,14.18.06,5.49.14,11c0,3.64.11,7.28.14,10.91,0,4.11,0,8.22,0,12.46l.46-.26.17,0,.16.45c.59-.5,3.56-.53,4.14-.15V39.57h-.17A4.8,4.8,0,0,1,132,41a4.7,4.7,0,0,1-1,1l-.31.43-.31-1.12-.18.14-.33.82.62.2c-.05.11-.12.33-.16.33-.52,0-.5.39-.64.68a1.18,1.18,0,0,1-.18.21l-.57-.28c-.05.46-.08.85-.15,1.24a9,9,0,0,0-.55,2.64c.13,1.14.12,2.29.14,3.44a1.89,1.89,0,0,1-.25.64c0-.74,0-1.48-.05-2.22a2.1,2.1,0,0,0-.2-.56c0-.31-.05-.61-.06-.92,0-3.5,0-7,0-10.5,0-3.76-.09-7.51-.14-11.27q-.06-4.64-.13-9.28t-.14-9.56a1.14,1.14,0,0,1,.15-.69c0,.24,0,.49,0,.73,0,2.9.1,5.81.15,8.71q.05,2.58.15,5.16a1.8,1.8,0,0,0,.24.57l.13,3,1.16-3.37a5.43,5.43,0,0,0,1,0c.66-.14,1.36-.54,1.79.58,0-.29.07-.4.07-.51q0-7.48,0-15a2.7,2.7,0,0,0-.12-.61c-.13-.52-.43-.58-.91-.43a2.78,2.78,0,0,1-1.34.15,15.32,15.32,0,0,1-2-.76c.12-.12.24-.35.36-.35,1.17,0,2.34.05,3.51.07s1.11,0,1.11,1.15q0,15,0,30c0,3.84.08,7.68.13,11.53a.6.6,0,0,0,.09.33v-43h.18q0,.37,0,.73c0,6.6,0,13.2,0,19.8q0,12.41.14,24.83c0,1.27,0,2.54.07,3.81-.08.09-.24.17-.24.26,0,.75,0,1.51.09,2.26A4.49,4.49,0,0,0,133.57,57ZM132.42,35.6h-.14v3.5h.14Z"/><path class="cls-4" d="M127.79,4.67a15.32,15.32,0,0,0,2,.76,2.78,2.78,0,0,0,1.34-.15c.48-.14.79-.09.91.43a2.7,2.7,0,0,1,.12.61q0,7.48,0,15c0,.11,0,.22-.07.51-.44-1.11-1.13-.72-1.79-.58a5.43,5.43,0,0,1-1,0l-1.16,3.37-.13-3q-.14-7.6-.28-15.21C127.77,5.8,127.79,5.23,127.79,4.67Z"/><path class="cls-4" d="M127.86,48.62a2.1,2.1,0,0,1,.2.56c0,.74,0,1.48.05,2.22l0,1.92-.17,0Z"/><path class="cls-4" d="M133.57,57a4.49,4.49,0,0,1-.28-.92c-.07-.75-.08-1.51-.09-2.26,0-.09.15-.17.24-.26Z"/><path class="cls-5" d="M128,67.87q0-.73,0-1.46A1.13,1.13,0,0,1,128,67.87Z"/><path class="cls-5" d="M128,70.28v-.55C128.35,69.91,128.35,70.1,128,70.28Z"/><path class="cls-5" d="M128.06,73.28v-.44l.29.22Z"/><path class="cls-5" d="M128.07,74.41V74l.28.21Z"/><path class="cls-5" d="M128,69v-.27l.18.13Z"/><path class="cls-3" d="M8.8,53.25l.29-.57.26.4,0,.65c.63-.94,1.47-.27,2.16-.29s1.51-.69,2.05.22V45.8l-.18-.05c-.13.69-.34,1.07-1.18.89a3.84,3.84,0,0,0-1.65.42,4.46,4.46,0,0,0-.62.3,2.25,2.25,0,0,1-.31-.73c0-1.25,0-2.49,0-3.74,0-1.79.09-3.59.08-5.38,0-2.62-.05-5.25-.1-7.87,0-.49-.09-1-.09-1.48,0-1.24,0-2.48.08-3.72a7.09,7.09,0,0,0,3.56,1.09,4.64,4.64,0,0,1,.09-.71c.08-.29.21-.56.32-.85,0,.31,0,.61,0,.92q-.07,4.55-.15,9.11,0,1.9,0,3.8c0,.86,0,1.73,0,2.59,0,.52-.07,1-.08,1.55,0,.8,0,1.6,0,2.4,0,.2,0,.4,0,.6a4.83,4.83,0,0,0,.34-1.75q0-9.25,0-18.51a3.75,3.75,0,0,0-.15-.74c0-.56,0-1.11-.07-1.67,0-1.16-.15-2.32-.14-3.49s.2-2.19.23-3.29c.07-2.76.1-5.52.14-8.28,0-.64,0-1.28,0-1.91,0-.37-.14-.64-.59-.63-1.1,0-2.21,0-3.31,0-.17,0-.33.18-.49.28v.15c0,.53.1,1.07.11,1.6q0,5.38,0,10.76l-.21.11.22.17v2a4.38,4.38,0,0,0-.15.8c0,3.65,0,7.31,0,11a5,5,0,0,1-.11.74L9,32.29c0-.33-.06-.66-.06-1q0-12.81,0-25.62c0-1.2.18-1.35,1.38-1.34.94,0,1.88-.07,2.83-.08s1.2.29,1.18,1.17c0,1.18-.1,2.35-.11,3.53,0,3,0,5.94,0,8.91h.32V4.55h.23c0,17.85-.44,35.7,0,53.6-.45.12-.9.25-1.06-.49,0-.16-.32-.27-.49-.4a3.38,3.38,0,0,0-.32.47.81.81,0,0,0,0,.31c-1.34.06-2.63.08-3.91.21-.32,0-.6.41-1,.72l.36-2.11c.06-.08.16-.15.17-.24C8.61,55.5,8.7,54.37,8.8,53.25Zm5.4-.53h.16V19H14.2Zm-1.81-6.63s.05-.09,0-.11-.07,0-.11-.05-.05.09,0,.11S12.35,46.08,12.39,46.09Z"/><path class="cls-3" d="M8.57,47.77c0-.23-.05-.47-.05-.7q0-20.94,0-41.88a1.13,1.13,0,0,1,.13-.63c0,.19,0,.38,0,.56q.07,16.7.14,33.4c0,3.07,0,6.15,0,9.22Z"/><path class="cls-4" d="M8.57,47.77l.2,0q0,2.75,0,5.51c-.1,1.12-.19,2.24-.3,3.36,0,.08-.11.16-.17.24q.12-4.37.25-8.73C8.58,48,8.57,47.88,8.57,47.77Z"/><path class="cls-4" d="M9,32.29l.25-.07c0,.92.07,1.84.07,2.76,0,2.5-.06,5-.07,7.51,0,1.06,0,2.12.07,3.19l-.25,0Z"/><path class="cls-4" d="M9.35,53.08l-.26-.4q0-3.34,0-6.68l.25,0Q9.34,49.56,9.35,53.08Z"/><path class="cls-3" d="M16.12,10.18l-.63.06,0-.14.62-.16Z"/><path class="cls-3" d="M9.33,46l-.25,0v-.28l.25,0Q9.33,45.86,9.33,46Z"/><path class="cls-3" d="M16,20.69h-.56v-.08H16Z"/><path class="cls-3" d="M15.93,18.89l.19.1a.66.66,0,0,1-.15.16s-.12-.06-.14-.1S15.89,18.95,15.93,18.89Z"/><path class="cls-3" d="M8.46,60.1s-.08,0-.11,0,0-.07,0-.11.08,0,.11,0S8.45,60.06,8.46,60.1Z"/><path class="cls-2" d="M34.46,22.14l.08-2.69c.4,0,.51.2.54.57.06.8.21,1.6.25,2.41,0,.33-.27.7-.21,1,.18.95,0,2,.47,2.86.07.12,0,.36-.08.54a2.89,2.89,0,0,0-.19,1.95c.14.39-.14,1,.08,1.28a1.36,1.36,0,0,1,.12,2c.4,1.06-.3,2.05-.21,3.1,0,.55.06,1.11.1,1.66,0,0,.09.09.08.11-.38.86.42,1.77-.12,2.62-.25.4-.43.8.09,1.16a.52.52,0,0,1,.17.37,6.87,6.87,0,0,1,0,2.41,5.1,5.1,0,0,0-.09,2,2.24,2.24,0,0,0,.31,1.08s0,.11,0,.13c-1,.82-.64,2-.75,3,0,.39-.14.77-.21,1.15l-.19,0,.35.54-.52.23c0-3,0-5.9,0-8.85q0-9.35,0-18.7c0-.19,0-.38,0-.56Z"/><path class="cls-3" d="M41.83,64a2.69,2.69,0,0,0,.19-.68c0-1.83,0-3.67,0-5.5,0-.3-.07-.65.43-.62v.28a1.34,1.34,0,0,0,0,1.7c0,2.17,0,4.34,0,6.5,0,3.47,0,6.93,0,10.4l-.67,0,0-1.12.12-.09-.12,0v-.73c.07-.15.21-.3.21-.46q0-2.44,0-4.88c0-.16-.13-.31-.2-.46Z"/><path class="cls-3" d="M27.44,67.58a4.32,4.32,0,0,0,.24-.72,2.37,2.37,0,0,1,.15-.82c0,.83,0,1.65,0,2.48a2,2,0,0,0,.25.63v7h-.67V68.58c.4-.18.39-.37,0-.56Z"/><path class="cls-5" d="M41.83,68.31c.07.15.2.31.2.46q0,2.44,0,4.88c0,.15-.14.3-.21.46Z"/><path class="cls-2" d="M34.54,53.25v-.43l.47.05L35,53Z"/><path class="cls-3" d="M41.78,9.22l.48.07v.15l-.48.08Z"/><path class="cls-2" d="M34.54,16.61V16Q35.1,16.33,34.54,16.61Z"/><path class="cls-2" d="M34.53,52.11V52l.45-.11L35,52Z"/><path class="cls-2" d="M34.54,18.18v-.43l.23.18Z"/><path class="cls-5" d="M41.82,74.84l.12,0-.12.09A.09.09,0,0,1,41.82,74.84Z"/><path class="cls-2" d="M34.55,18.74V18.6l.17.07Z"/><path class="cls-3" d="M40.9,90.33l-.16.27Z"/><path class="cls-3" d="M84.93,67.87a2.28,2.28,0,0,0,.26-.7c0-1.93,0-3.87,0-5.83l.39.28c0,2,0,4.1,0,6.14,0,2.83,0,5.65,0,8.48h-.66Z"/><path class="cls-5" d="M99.17,40.76a1,1,0,0,1,0,1.41Z"/><path class="cls-5" d="M99.16,39.34a.7.7,0,0,1,0,1.12Z"/><path class="cls-5" d="M99.2,45v0Z"/><path class="cls-3" d="M114.34,76.22h-.56l0-9.49.55,0Z"/><path class="cls-3" d="M113.7,64.06c.06-.67.1-1.34.21-2,0-.21.24-.38.37-.58q0,2.43,0,4.86l-.55,0v-.56l.24-.11-.24-.18Z"/><path class="cls-5" d="M113.73,66.31l.55,0v.37l-.55,0Z"/><path class="cls-5" d="M113.72,65.46l.24.18-.24.11Z"/><path class="cls-2" d="M105.75,51s.1,0,.11.05,0,.08,0,.12-.1,0-.11-.05S105.73,51.07,105.75,51Z"/><path class="cls-3" d="M42.49,32.5c-.15-.14-.43-.28-.43-.43,0-1.08,0-2.15,0-3.23,0-.2.28-.38.43-.58V32.5Z"/><path class="cls-3" d="M42.49,22.14l-.41.49v-5.2l.13,0a1.54,1.54,0,0,1,.1.39c0,.93,0,1.85,0,2.78,0,.1.15.2.23.31v.41l-.3.22.29.22Z"/><path class="cls-3" d="M42.44,41.32c-.13-.14-.38-.28-.38-.42,0-.91,0-1.82,0-2.73,0-.19.25-.36.39-.55l0,.7v1.73Z"/><path class="cls-5" d="M42.45,59.21a1.34,1.34,0,0,1,0-1.7Z"/><path class="cls-3" d="M42.49,23.44l-.47,1c.24-.42-.47-1.1.48-1.35Z"/><path class="cls-3" d="M42.49,33.38,42,33.09l.44-.3Z"/><path class="cls-5" d="M42.48,40.05v0Z"/><path class="cls-2" d="M46.58,17.32l.08.7c-.46-.3-.46-.34-.08-.7Z"/><path class="cls-4" d="M42.52,12.81l-.47.07.47-.43Z"/><path class="cls-3" d="M42.44,41.89l-.57-.15.56-.14Z"/><path class="cls-5" d="M42.49,21.73l-.29-.22.3-.22Z"/><path class="cls-5" d="M42.49,29.69v0Z"/><path class="cls-2" d="M19.42,53.36a1.83,1.83,0,0,1-.37.08s-.06-.15-.09-.22l.41-.09Z"/><path class="cls-5" d="M27.44,68c.39.19.39.37,0,.56Z"/><path class="cls-3" d="M26.7,60.48l.42.1Z"/><path class="cls-2" d="M21.39,53.49s0,.1-.05.11-.08,0-.11,0,0-.1.05-.11S21.35,53.48,21.39,53.49Z"/><path class="cls-2" d="M118.94,54.77l-.05.12s-.1,0-.11-.05,0-.08,0-.11Z"/><path class="cls-2" d="M57.38,60.53l1.29-.06Z"/><path class="cls-2" d="M58.78,60.37l0-.58Z"/><path class="cls-2" d="M75.3,3.58l6.37-.07h.85l.19.83c-.35.27-.35.54,0,.81q.09,22,.17,44.05c0,2.29,0,4.58,0,6.88l-.37,1.4c-.14-.13-.28-.23-.39-.36-.58-.61-1-1.52-2.06-1.36-.06,0-.16-.21-.27-.36l-.38.62L79.26,56l.2-.77-1.07-.49.06.16-1.15.55c-.44.2-1.06.14-1,1a.65.65,0,0,1-.88.56l0-8.81V37.49Q75.31,21,75.26,4.57C75.26,4.24,75.29,3.91,75.3,3.58Z"/><path class="cls-3" d="M24.88,19l.53.07-.38.48.72,0c-.2.56-.21.57-.86.64Z"/><path class="cls-3" d="M24.88,9.22H26v.29H24.88Z"/><path class="cls-3" d="M32.91,56.9,33.25,59a3.07,3.07,0,0,0-2.4-.91c-.82.08-1.65,0-2.56.07L28.22,57,28,56.88a8.13,8.13,0,0,1-.61.78,1.09,1.09,0,0,1-.61.38c-.12,0-.37-.35-.36-.53,0-.6.18-1.2.22-1.8s0-1.44,0-2.17q0-16,0-32c0-5.46-.08-10.92-.13-16.38,0-.23,0-.47,0-.7h.19V17H27q0-.32,0-.63,0-5.22,0-10.43c0-1.52.17-1.69,1.71-1.69.95,0,1.89,0,2.84,0,.48,0,.74.2.41.7-.22-.12-.43-.34-.65-.35-.93-.05-1.87-.06-2.81-.06s-.94,0-1,1c-.1,4.32.28,8.62.19,12.94q0,2.27,0,4.53c0,1.12.15,2.23.22,3.23l1.55.46c.26.09.61-.08.87,0a1.49,1.49,0,0,0,1.25-.19c0,.24,0,.47,0,.71,0,2.71-.11,5.43-.14,8.14,0,2.35,0,4.71,0,7.06a26.57,26.57,0,0,1,0,2.94c-.09.8.28,1.92-1.06,2.14-.1,0-.17.21-.24.33l-.63,1c-1-1-1.07-1-1.37-.29l.72-.23,0,.67a4,4,0,0,0-.56-.07c-.1.39-.16.79-.24,1.26-.07.08-.34.25-.36.44-.1,1-.14,2-.2,3a7.54,7.54,0,0,1,4.3-.15c0-.86,0-1.7,0-2.55,0-4.3,0-8.6,0-12.89,0-2.6.1-5.19.12-7.79,0-3.12,0-6.24,0-9.37a3.85,3.85,0,0,0-.14-.73v-.43l0-1.41.25-.18-.25-.24c0-.65,0-1.3,0-1.95q.08-5.35.17-10.7l.42-.55q0,6.66,0,13.32c0,4.54,0,9.08,0,13.61,0,6.9-.09,13.79-.11,20.69a3.53,3.53,0,0,0,.25.92c0,.72,0,1.45,0,2.17A10,10,0,0,0,32.91,56.9ZM27.15,32.2a1.25,1.25,0,0,0,0-1.5L27.09,19H27V53.21h.1l.18-.94a1.37,1.37,0,0,0,.16-.43q0-9.4,0-18.8c0-.16-.15-.32-.23-.48Zm-.2-14.43,0-.06-.05,0a.21.21,0,0,0,0,.06Z"/><path class="cls-4" d="M31.63,26.51a1.49,1.49,0,0,1-1.25.19c-.26-.09-.61.08-.87,0L28,26.23c-.07-1-.19-2.12-.22-3.23q-.06-2.26,0-4.53c.09-4.32-.29-8.62-.19-12.94,0-1,0-1,1-1s1.87,0,2.81.06c.22,0,.44.23.65.35v.28q-.08,5.35-.17,10.7c0,.65,0,1.3,0,1.95v.43l0,1.41v.43l-.1,2-.05,3.4Z"/><path class="cls-3" d="M32.54,34.68q0-5.36,0-10.71c0-2.74,0-5.49,0-8.23,0-3.59.09-7.18.15-10.77a1,1,0,0,1,.28-.7q0,.3,0,.6c0,2.89,0,5.77,0,8.66Q32.88,23.77,32.8,34c0,.23,0,.47-.07.7Z"/><path class="cls-4" d="M32.54,34.68l.19,0c0,1.46-.07,2.92-.07,4.39,0,4.38,0,8.77,0,13.15,0,1.55.16,3.1.25,4.65a10,10,0,0,1-.36-1.48c-.07-.72,0-1.45,0-2.17q0-8,0-15.95Q32.54,36,32.54,34.68Z"/><path class="cls-3" d="M33.45,12.73,34,11.11l.14,0v2.73c-.28-.16-.56-.24-.68-.42a1.77,1.77,0,0,1-.13-.7Z"/><path class="cls-3" d="M34.32,18.08c-.32-.13-.51-.17-.51-.22,0-.64,0-1.28,0-2.06C34.51,16.5,34,17.26,34.32,18.08Z"/><path class="cls-3" d="M34.46,22.14v1.28l-.75-.38.23-.9h.52Z"/><path class="cls-3" d="M34.14,15.8a1.14,1.14,0,0,1,0-1.75Z"/><path class="cls-3" d="M34.1,18.42v1.15h-.23l.08-1.16Z"/><path class="cls-3" d="M34,21.77V20.55h.11v1.23Z"/><path class="cls-3" d="M26,22.91l-.83.05v-.32l.83.06Z"/><path class="cls-3" d="M34.15,9.89v.8H34V9.9Z"/><path class="cls-3" d="M25.53,21.44l-.34-.08,0-.12.36.08Z"/><path class="cls-3" d="M25.28,20.85c-.05-.09-.11-.14-.11-.19s.07-.1.11-.14.11.09.11.14S25.33,20.76,25.28,20.85Z"/><path class="cls-3" d="M25.58,8.2h-.3V8.14l.3,0Z"/><path class="cls-3" d="M33.94,22.15l-.18,0,.18.05Z"/><path class="cls-3" d="M56.64,5.4,56.92,5h.16q0,.4,0,.79,0,23,0,46a14.26,14.26,0,0,0,.2,1.69c.08,1.14.16,2.28.25,3.42,0,.13.14.24.21.36a2,2,0,0,1-.05.61.5.5,0,0,1-.37.26c-.11,0-.27-.17-.33-.29a6.25,6.25,0,0,0-.64-1.26,5.19,5.19,0,0,0-.39.95c-.08.38-.16.52-.6.39a3.66,3.66,0,0,0-1.15,0c-.89,0-1.79.1-2.68.12-.14,0-.4-.16-.4-.25,0-.48.07-1,.11-1.44a9.42,9.42,0,0,0,.4-1.82c0-2,0-3.92,0-5.88,0-.23,0-.46.09-.85.15.24.21.29.21.35q.08,2.54.15,5.07l.26.68.42-.59c.32,0,.6.05.88.06a17.65,17.65,0,0,1,2.22.08c.6.1.74-.06.64-.6a3.18,3.18,0,0,1,0-.57q0-5.16,0-10.32c0-.24,0-.47,0-.71h-.25c0,.64,0,1.28.1,1.9a1.25,1.25,0,0,1-.59,1.38c-.31.2-.71.42-.84.72s-.4.43-.75.44A1.18,1.18,0,0,0,53,46.88a2.74,2.74,0,0,1-.14.47c-.13-.21-.25-.32-.26-.43,0-.45,0-.9,0-1.35,0-1.29.09-2.59.11-3.88,0-1,0-1.95,0-2.92,0-.14-.32-.28-.49-.41V38c.45,0,.41-.27.41-.56,0-1.53,0-3.07,0-4.6a12.07,12.07,0,0,0-.29-1.71l-.37,0c0-1.7,0-3.4,0-5.09,0-3.26,0-6.51,0-9.77s-.09-6.55-.11-9.83c0-.26.25-.52.38-.78,0,.66.12,1.31.14,2,0,1.73.08,3.45.11,5.18.08,4.11.16,8.22.21,12.34,0,.45.16.79.51.86s.53-.25.78-.43.34-.42.43-.39c1.17.39,1.24-.83,1.59-1.29a4.45,4.45,0,0,0,.49-2.41c.09-2.55.11-5.11.15-7.66Q56.57,9.62,56.64,5.4Zm-.2,28.38h.11V32.33h-.11Zm-.2,6.87h.21V38.91h0Zm.13-3.75h.11V35.65h-.11Zm0,1.34s-.09,0-.09.06,0,.07,0,.11l.13-.08Zm.06-3.84,0,0s0,0,0-.05l-.07,0Z"/><path class="cls-4" d="M56.64,5.4q-.07,4.22-.15,8.44c0,2.55-.06,5.11-.15,7.66a4.45,4.45,0,0,1-.49,2.41c-.35.45-.42,1.68-1.59,1.29-.09,0-.27.28-.43.39s-.56.47-.78.43-.51-.42-.51-.86c0-4.11-.13-8.22-.21-12.34,0-1.73-.06-3.45-.11-5.18,0-.66-.09-1.31-.14-2a1,1,0,0,1,.09-1.1l4.45.17Z"/><path class="cls-3" d="M57.28,51.88c0-.87-.06-1.75-.06-2.62q0-15.65,0-31.3c0-4.32.08-8.65.13-13a.79.79,0,0,1,.13-.45c0,.18,0,.37,0,.55q0,23.06,0,46.13c0,.21,0,.42,0,.64Z"/><path class="cls-4" d="M52.11,53.24Q52,50.7,52,48.17c0-.06-.06-.11-.21-.35,0,.4-.09.63-.09.85,0,2,0,3.92,0,5.88a9.42,9.42,0,0,1-.4,1.82c.55-5.37.09-10.76.19-16.14l.22,0v6.72h.26c.14-5.26-.12-10.53-.06-15.79l.36,0a3.54,3.54,0,0,0-.13.69c0,2.06,0,4.13,0,6.19v.3c0,.21,0,.42,0,.63q.05,6.68.11,13.36A6.87,6.87,0,0,1,52.11,53.24Zm-.38-5.73,0,0,0,0-.06,0Z"/><path class="cls-3" d="M51.32,17.38c0-1.58-.05-3.16-.06-4.74,0-2.78,0-5.56.05-8.35.12,4.35.35,8.7.22,13.07Z"/><path class="cls-4" d="M51.32,17.38l.21,0q.06,7.49.13,15l-.22,0c0-3.78,0-7.57,0-11.35C51.4,19.79,51.35,18.58,51.32,17.38Z"/><path class="cls-3" d="M51.43,32.34l.22,0q0,3.95,0,7.89l-.22,0Q51.44,36.29,51.43,32.34Z"/><path class="cls-3" d="M56.62,4.73l-4.45-.17a1.24,1.24,0,0,1,.06-.29c1.34,0,2.67,0,4,0C56.38,4.29,56.5,4.58,56.62,4.73Z"/><path class="cls-4" d="M57.28,51.88l.2,0,.26,5.46c-.07-.12-.2-.24-.21-.36-.1-1.14-.17-2.28-.25-3.42Q57.29,52.71,57.28,51.88Z"/><path class="cls-4" d="M49.76,9.83V8.91A.54.54,0,0,1,49.76,9.83Z"/><path class="cls-4" d="M49.76,8.69V8.34l.2.21Z"/><path class="cls-1" d="M49.75,55.68v0Z"/><path class="cls-1" d="M41.31,4c-.12.09-.18.18-.24.18s-.12-.1-.14-.17.07-.14.11-.13A1.07,1.07,0,0,1,41.31,4Z"/><path class="cls-3" d="M110.16,53.21l.1.55c.92-.69,3.57-.69,4.18-.05v-13h-.21v1.17a1.75,1.75,0,0,0-2.2-.11c-.55.45-1.52.7-1.43,1.76a.89.89,0,0,1-.11-.27c-.05-1.4-.12-2.81-.13-4.21,0-3.63,0-7.25,0-10.88,0-.75,0-1.5-.06-2.25a4.23,4.23,0,0,0,.2-.86,4.58,4.58,0,0,1,.62-3,6.94,6.94,0,0,1,.74-.69l0,.58L112,22l.5-.68.33.54c.37-.17.68-.45.9-.39s.29.48.48.84v-3.2a2.14,2.14,0,0,0,.23-.65q0-4.1,0-8.19a3.26,3.26,0,0,0-.14-.66V8.81c.09-.53.19-1.06.26-1.6,0-.07-.17-.17-.26-.26V5.83l.29-1.24a3.21,3.21,0,0,1,.15.57c0,.69,0,1.37,0,2.06q.08,19.41.16,38.81c0,2.43.08,4.86.13,7.3a2.35,2.35,0,0,0,.11.47l.05,0a12.22,12.22,0,0,0,0,1.53c.07.61.24,1.2.36,1.8l.06,1.3-1.23-.24c-.34-.37.1-1.24-.86-1.44,0,.37,0,.69,0,1s-.14.5-.48.38a6,6,0,0,0-3.37,0,3.07,3.07,0,0,0-.79.47c.07-.6.1-1.25.23-1.89a44.09,44.09,0,0,0,.4-8.9c0-5.65-.08-11.3-.13-17q-.06-6.24-.14-12.48c0-3.57-.08-7.14-.14-10.71,0-1-.11-2-.17-3l.21,0a2,2,0,0,1,.12.45c0,.73,0,1.47,0,2.2q.07,6.56.15,13.12c0,3.92.11,7.85.14,11.77q.08,10.32.14,20.65c0,.2,0,.4.06.79l.25-.42Zm1.4-11.79s-.09-.06-.12,0,0,.07-.05.11.09.06.12,0S111.54,41.47,111.56,41.43Z"/><path class="cls-4" d="M114.3,9.37v.27l-.09,9.5v3.2c-.19-.36-.29-.79-.48-.84s-.53.22-.9.39l-.33-.54L112,22l-.14-.07,0-.58a6.94,6.94,0,0,0-.74.69,4.58,4.58,0,0,0-.62,3,4.23,4.23,0,0,1-.2.86q-.12-6.14-.25-12.27c-.06-2.88-.11-5.77-.19-8.65,0-.44.2-.55.55-.54.75,0,1.51.07,2.26.11H113c1.28,0,1.28,0,1.32,1.27V7q0,.93,0,1.86v.57Z"/><path class="cls-3" d="M115.13,53.79c0-5.75,0-11.5,0-17.25q0-15.68-.13-31.36c0-.32,0-.64,0-1l.22,0c0,.27.06.55.06.82q0,13.56,0,27.12c0,4.8,0,9.61,0,14.41,0,2.43.07,4.86.1,7.3h-.24Z"/><path class="cls-3" d="M109.81,40.52c0-.54-.05-1.08-.05-1.63,0-2.62,0-5.25,0-7.87q-.05-7.69-.14-15.38c0-3.19-.09-6.37-.13-9.56a1.49,1.49,0,0,1,.11-.69c0,.11,0,.22,0,.34q.08,5.76.15,11.52.08,6.2.15,12.4.06,5.42.12,10.84Z"/><path class="cls-4" d="M109.81,40.52l.23,0q.08,6.08.15,12.17c0,.19,0,.38,0,.56h-.22q0-5.42,0-10.85C109.9,41.74,109.84,41.13,109.81,40.52Z"/><path class="cls-4" d="M115.18,53.84h.24l.12,3.33c-.13-.6-.29-1.2-.36-1.8A12.22,12.22,0,0,1,115.18,53.84Z"/><path class="cls-3" d="M90.71,57.18c.21.81.13.93-.7.89s-1.58-.12-2.37-.13c-.62,0-1.24.08-1.94.13L85.42,57l-.18,0-.56,1.23-.2.07c-.09-.23-.28-.46-.26-.68.07-1.17.23-2.34.29-3.51s0-2.11,0-3.17c0-.82,0-1.64,0-2.46,0-6.32,0-12.63,0-18.95q0-8.47-.14-16.95c0-2.52-.17-5-.26-7.56,0-.25,0-.51,0-.76l.17,0c0,.13.08.26.12.39a.6.6,0,0,1,0,.14c0,3.24.1,6.47.14,9.71q.09,7.69.15,15.39a.58.58,0,0,0,.2.47L84.62,4.93l.22,0a6.43,6.43,0,0,1,.07.66c0,1.8,0,3.6,0,5.39C85,15,85,19,85.08,23q.06,5.24.11,10.49l-.24,0V31a.46.46,0,0,0-.18.41q0,8.72,0,17.45a3.45,3.45,0,0,0,.14.68v1.13l.14.22c0,.59,0,1.18,0,1.77a2.11,2.11,0,0,0,.21.59l.19.52c.74-.69,3.66-.63,4.17.12V29h-.21q0,1.71,0,3.42c0,.38,0,.76,0,1.13q-.07,3.34-.14,6.69a6.13,6.13,0,0,1-.08,1.31c0,.13-.45.16-.69.23l-.11-.16-.23.54a1.82,1.82,0,0,1-.28-.23c-.33-.41-.58-.36-.87.07s-.69.87-1,1.3l-.21-.06A10.56,10.56,0,0,1,85.63,42c0-2.12,0-4.24,0-6.36,0-3.21-.08-6.42-.13-9.63.09-.16.25-.31.26-.48,0-.57,0-1.14,0-1.72.31,0,.61.12.68,0a10.35,10.35,0,0,0,.75-1.19c.07-.12.08-.34.17-.36a2.12,2.12,0,0,0,1.39-1.62c.07-.21.37-.35.57-.53l.24.08q0-3.14,0-6.29c0-2.57,0-5.14,0-7.72,0-.59-.08-1.17-.13-1.76.73-.16.61.37.61.78q0,13,0,26,0,10.28,0,20.57a11.8,11.8,0,0,0,.23,1.66,11.78,11.78,0,0,0,0,1.27C90.43,55.5,90.58,56.34,90.71,57.18Z"/><path class="cls-4" d="M89.42,4.43c0,.59.13,1.17.13,1.76,0,2.57,0,5.14,0,7.72q0,3.14,0,6.29l-.24-.08c-.2.17-.5.31-.57.53a2.12,2.12,0,0,1-1.39,1.62c-.08,0-.1.25-.17.36a10.35,10.35,0,0,1-.75,1.19c-.07.09-.37,0-.68,0,0,.58,0,1.15,0,1.72,0,.16-.17.32-.26.48l-.2-12.18q-.07-4.36-.14-8.71a6,6,0,0,1,.06-.65Z"/><path class="cls-4" d="M90.71,57.18c-.13-.84-.29-1.68-.39-2.53a11.78,11.78,0,0,1,0-1.27c0-2.93,0-5.87,0-8.8q0-19.73,0-39.47a.63.63,0,0,1,.09-.39q0,7.7,0,15.4,0,10,0,19.94c0,3.55.06,7.1.1,10.64,0,1.43,0,2.86,0,4.29C90.61,55.73,90.67,56.45,90.71,57.18Z"/><path class="cls-4" d="M85,33.55l.24,0c0,3.66,0,7.31,0,11,0,2.71.09,5.42.13,8.13a4.93,4.93,0,0,1-.05.56,2.11,2.11,0,0,1-.22-.59c0-.59,0-1.18,0-1.77l-.14-.22q0-.56,0-1.13c0-.92.13-1.83.13-2.75,0-2.93-.06-5.86-.09-8.79C85,36.48,85,35,85,33.55Z"/><path class="cls-4" d="M82.71,5.16c-.35-.27-.35-.54,0-.81Z"/><path class="cls-1" d="M100.66,8.51l.83.19,0,.23-.82-.17Z"/><path class="cls-1" d="M101,6.79c-.05-.08-.12-.14-.11-.17a.63.63,0,0,1,.15-.16c0,.05.08.11.07.16S101,6.72,101,6.79Z"/><path class="cls-1" d="M93.21,6.71s0-.1.05-.11.08,0,.11,0,0,.1-.05.11S93.25,6.73,93.21,6.71Z"/><path class="cls-1" d="M66.14,56.09l0,0s0,0,0-.06,0,0,0,0Z"/><path class="cls-3" d="M72.84,4.45c.43-.38.58,0,.68.29a2.2,2.2,0,0,1,0,.7q0,23.65,0,47.31a3.77,3.77,0,0,0,.17.78c.08,1.12.16,2.24.26,3.35,0,.1.14.19.22.28l.07,1.44c-.84-.91-2-.33-2.93-.6-.19-.46.17-1.31-.7-1.27-.2,0-.35.77-.53,1.18L67.56,58c.07-.89.13-1.75.2-2.61S68,54,68,53.27q0-5,0-10.08-.06-10.81-.14-21.61c0-3.43-.08-6.85-.14-10.28,0-2.14-.09-4.28-.13-6.42,0-.22,0-.44,0-.67h.21a4.59,4.59,0,0,1,.07.55c0,1.14,0,2.27,0,3.41,0,4.68.11,9.36.14,14q.09,13.41.15,26.82c0,1.69,0,3.38,0,5.07h.26q0-.69,0-1.38c0-4.16,0-8.33,0-12.49q0-9-.13-18-.06-8.39-.13-16.78c0-.34-.17-.81.44-.86q0,1,0,2v.42a4.39,4.39,0,0,0-.14.8c0,3.69.1,7.37.13,11.06q.09,9.79.15,19.57c0,.92,0,1.83,0,2.75q0,6,0,12.06a2.66,2.66,0,0,0,.09.46c.82-.63,3.74-.56,4.21.08V36.15a.5.5,0,0,0-.32.4c0,1.16-.08,2.31-.08,3.47,0,1,.09,1.94,0,2.9A2,2,0,0,1,72.19,44a1.06,1.06,0,0,0-.13,1.25,1,1,0,0,1-.41,1.52c-.37-1.91-.37-1.91-.7-1.94L71,46.16,69.63,46l-.17,1h-.14l-.2-1.38a3.43,3.43,0,0,0,.65,0s.07-.32,0-.36c-.59-.4-.52-1.08-.63-1.63a11.29,11.29,0,0,1,0-1.81c0-1.62-.11-3.24-.13-4.85,0-2.72,0-5.44,0-8.16,0-.7,0-1.4-.07-2.11l.16-.05-.17-.11V25.8a3.1,3.1,0,0,0,.42-.16L72,24.11l.26-.67a4.61,4.61,0,0,0,.52-1.32c.1-1.86.13-3.72.15-5.59C73,12.79,73,9,73,5.28A6,6,0,0,0,72.84,4.45Zm.07,29.68H73V31.77h-.11Zm.16.62h-.21l0,.94h.17Zm0-5-.19,0v1ZM73,29c0,.1-.09.17-.07.22s.08.08.13.12.08-.12.08-.17S73,29.06,73,29Zm.11,2.07L73,31s-.05.09,0,.11.07,0,.11.05Z"/><path class="cls-4" d="M68.59,6.53q0-1,0-2l2.67-.11h.44l1.13,0a6.05,6.05,0,0,1,.11.83c0,3.75,0,7.51,0,11.26,0,1.86,0,3.73-.15,5.59a4.61,4.61,0,0,1-.52,1.32l-.26.67-2.69,1.52a3.12,3.12,0,0,1-.42.16q-.16-9.43-.32-18.85V6.53Z"/><path class="cls-3" d="M73.77,52.32c0-.28-.07-.56-.07-.84q0-21.23,0-42.45,0-2.38,0-4.75H74c0,.17,0,.34,0,.51q0,23.43,0,46.86c0,.21,0,.43,0,.64Z"/><path class="cls-4" d="M73.77,52.32l.2,0,.25,4.89c-.08-.09-.21-.18-.22-.28-.1-1.12-.18-2.24-.26-3.35Z"/><path class="cls-4" d="M75.37,44.59v0Z"/><path class="cls-3" d="M71.72,4.43h0Z"/><path class="cls-4" d="M75.36,37.49v0Z"/><path class="cls-5" d="M128.16,53.33l0-1.92a1.89,1.89,0,0,0,.25-.64c0-1.15,0-2.3-.14-3.44a9,9,0,0,1,.55-2.64c.07-.38.1-.78.15-1.24l.57.28a1.18,1.18,0,0,0,.18-.21c.14-.29.12-.73.64-.68,0,0,.11-.21.16-.33l-.62-.2.33-.82.18-.14.31,1.12L131,42a4.7,4.7,0,0,0,1-1,4.8,4.8,0,0,0,.26-1.45h.17V53.63c-.58-.38-3.55-.35-4.14.15Z"/><path class="cls-5" d="M132.42,35.6v3.5h-.14V35.6Z"/><path class="cls-4" d="M9.53,19.72V17.47q0-5.38,0-10.76c0-.53-.07-1.07-.11-1.6V5c.16-.1.33-.27.49-.28,1.1,0,2.21,0,3.31,0,.45,0,.58.26.59.63,0,.64,0,1.28,0,1.91,0,2.76-.07,5.52-.14,8.28,0,1.1-.22,2.2-.23,3.29s.09,2.32.14,3.49c0,.56,0,1.11.07,1.67l0,0c-.11.28-.24.56-.32.85a4.64,4.64,0,0,0-.09.71,7.09,7.09,0,0,1-3.56-1.09Z"/><path class="cls-5" d="M9.53,19.72l.1,4.72c0,1.24-.07,2.48-.08,3.72,0,.49.08,1,.09,1.48,0,2.62.09,5.25.1,7.87,0,1.79-.06,3.59-.08,5.38,0,1.25,0,2.49,0,3.74a2.25,2.25,0,0,0,.31.73,4.46,4.46,0,0,1,.62-.3,3.84,3.84,0,0,1,1.65-.42c.84.17,1.05-.21,1.18-.89l.18.05v7.86c-.54-.9-1.38-.23-2.05-.22s-1.53-.66-2.16.29l0-.65q0-3.52,0-7v-.37c0-1.06-.07-2.12-.07-3.19,0-2.5.06-5,.07-7.51,0-.92,0-1.84-.07-2.76a5,5,0,0,0,.11-.74c0-3.65,0-7.31,0-11A4.38,4.38,0,0,1,9.53,19.72Z"/><path class="cls-5" d="M14.2,52.72V19h.16V52.72Z"/><path class="cls-5" d="M13.62,23.94a3.75,3.75,0,0,1,.15.74q0,9.25,0,18.51a4.83,4.83,0,0,1-.34,1.75c0-.2,0-.4,0-.6,0-.8,0-1.6,0-2.4,0-.52.07-1,.08-1.55,0-.86,0-1.73,0-2.59q0-1.9,0-3.8.07-4.55.15-9.11c0-.31,0-.61,0-.92Z"/><path class="cls-5" d="M12.39,46.09s-.1,0-.11-.05,0-.07,0-.11.1,0,.11.05S12.41,46.06,12.39,46.09Z"/><path class="cls-5" d="M9.51,17.47v.28l-.22-.17Z"/><path class="cls-5" d="M9.52,18.74v0Z"/><path class="cls-5" d="M9.51,18v0Z"/><path class="cls-5" d="M9.38,5V5Z"/><path class="cls-5" d="M31.63,26.51l0-1,.05-3.4.1-2a3.85,3.85,0,0,1,.14.73c0,3.12,0,6.24,0,9.37,0,2.6-.11,5.19-.12,7.79,0,4.3,0,8.6,0,12.89,0,.85,0,1.69,0,2.55a7.54,7.54,0,0,0-4.3.15c.06-1,.1-2,.2-3,0-.19.28-.35.36-.44.08-.47.14-.87.24-1.26a4,4,0,0,1,.56.07l0-.67-.72.23c.29-.72.4-.69,1.37.29l.63-1c.07-.12.15-.31.24-.33,1.35-.22,1-1.34,1.06-2.14a26.57,26.57,0,0,0,0-2.94c0-2.35,0-4.71,0-7.06,0-2.71.1-5.43.14-8.14C31.68,27,31.65,26.75,31.63,26.51Z"/><path class="cls-5" d="M27.24,52.26l-.18.94H27V19h.12q0,5.86.06,11.71,0,.75,0,1.5v.35c0,2.36,0,4.73,0,7.09Q27.19,46,27.24,52.26Z"/><path class="cls-4" d="M27.24,52.26q0-6.31-.07-12.62c0-2.36,0-4.73,0-7.09.08.16.23.32.23.48q0,9.4,0,18.8A1.37,1.37,0,0,1,27.24,52.26Z"/><path class="cls-4" d="M27.15,32.2q0-.75,0-1.5A1.25,1.25,0,0,1,27.15,32.2Z"/><path class="cls-5" d="M31.81,18.32v-.43l.25.24Z"/><path class="cls-5" d="M26.95,17.77l-.05,0a.21.21,0,0,1,0-.06l.05,0Z"/><path class="cls-5" d="M31.8,19.89v0Z"/><path class="cls-3" d="M31.7,22.16l-.05,3.4Z"/><path class="cls-5" d="M52.11,53.24a6.87,6.87,0,0,0,.11-.89q0-6.68-.11-13.36c0-.21,0-.42,0-.63.17.14.48.27.49.41,0,1,0,1.95,0,2.92,0,1.3-.08,2.59-.11,3.88,0,.45,0,.9,0,1.35,0,.11.13.22.26.43a2.74,2.74,0,0,0,.14-.47,1.18,1.18,0,0,1,1.19-1.15c.35,0,.58,0,.75-.44s.53-.52.84-.72a1.25,1.25,0,0,0,.59-1.38c-.09-.63-.07-1.27-.1-1.9h.25c0,.24,0,.47,0,.71q0,5.16,0,10.32a3.18,3.18,0,0,0,0,.57c.1.55,0,.7-.64.6a17.65,17.65,0,0,0-2.22-.08c-.28,0-.56,0-.88-.06l-.42.59Z"/><path class="cls-5" d="M52.13,38c0-2.06,0-4.13,0-6.19a3.54,3.54,0,0,1,.13-.69,12,12,0,0,1,.29,1.71c0,1.53,0,3.07,0,4.6C52.54,37.77,52.58,38.08,52.13,38Z"/><path class="cls-5" d="M56.45,33.78V32.32h.11v1.45Z"/><path class="cls-5" d="M56.25,40.65l.17-1.75h0v1.75Z"/><path class="cls-5" d="M56.38,36.9V35.65h.11V36.9Z"/><path class="cls-5" d="M56.38,38.25l.07.09-.13.08s0-.08,0-.11S56.35,38.27,56.38,38.25Z"/><path class="cls-5" d="M56.44,34.41l0,0,.07,0s0,0,0,.05Z"/><path class="cls-5" d="M51.74,47.51l0,0,.06,0,0,0Z"/><path class="cls-5" d="M114.21,19.15l.09-9.5a3.26,3.26,0,0,1,.14.66q0,4.1,0,8.19A2.14,2.14,0,0,1,114.21,19.15Z"/><path class="cls-5" d="M114.3,8.81q0-.93,0-1.86c.09.09.27.18.26.26C114.5,7.74,114.39,8.28,114.3,8.81Z"/><path class="cls-5" d="M111.56,41.43s0,.1-.05.11-.08,0-.12,0,0-.1.05-.11S111.52,41.41,111.56,41.43Z"/><path class="cls-5" d="M114.3,6.54v0Z"/><path class="cls-5" d="M114.3,9.37v0Z"/><path class="cls-5" d="M85,33.55c0,1.47,0,2.93,0,4.4,0,2.93.08,5.86.09,8.79,0,.92-.08,1.83-.13,2.75a3.43,3.43,0,0,1-.14-.68q0-8.72,0-17.45A.46.46,0,0,1,85,31Z"/><path class="cls-5" d="M84.92,50.61l.14.22Z"/><path class="cls-5" d="M68.59,6.95q.16,9.43.32,18.85,0,.33,0,.67v.16c0,.7.06,1.4.07,2.11,0,2.72,0,5.44,0,8.16,0,1.62.09,3.24.13,4.85a11.29,11.29,0,0,0,0,1.81c.11.56,0,1.23.63,1.63.06,0,0,.36,0,.36a3.43,3.43,0,0,1-.65,0l.2,1.38h.14l.17-1,1.4.21-.08-1.33c.33,0,.33,0,.7,1.94a1,1,0,0,0,.41-1.52A1.06,1.06,0,0,1,72.19,44a2,2,0,0,0,.49-1.09c0-1,0-1.93,0-2.9,0-1.16,0-2.31.08-3.47a.5.5,0,0,1,.32-.4V53.74c-.47-.64-3.39-.72-4.21-.08a2.66,2.66,0,0,1-.09-.46q0-6,0-12.06c0-.92,0-1.83,0-2.75q-.07-9.79-.15-19.57c0-3.69-.1-7.37-.13-11.06A4.39,4.39,0,0,1,68.59,6.95Z"/><path class="cls-5" d="M72.92,34.13V31.77H73v2.35Z"/><path class="cls-5" d="M73.07,34.74v.94h-.17l0-.94Z"/><path class="cls-5" d="M73.1,29.78l-.19.94v-1Z"/><path class="cls-5" d="M73,29c.06.08.13.12.13.17s0,.11-.08.17-.12-.07-.13-.12S72.92,29.09,73,29Z"/><path class="cls-4" d="M68.93,26.63v-.16l.17.11Z"/><path class="cls-5" d="M73.07,31.06l0,.12s-.1,0-.11-.05,0-.08,0-.11Z"/><path class="cls-5" d="M68.59,6.53v0Z"/></svg>