<svg id="Слой_1" data-name="Слой 1" xmlns="http://www.w3.org/2000/svg" viewBox="0 0 61 66"><title>Монтажная область 1</title><path d="M52.26,42.93a11.5,11.5,0,0,0-8,.44,1.5,1.5,0,1,0,1.2,2.75,8.52,8.52,0,1,1-5.14,7.82,8.6,8.6,0,0,1,.39-2.54L39.3,51l1.44.43A1.48,1.48,0,0,0,40,49.67v0L20.61,38.1h0a1.5,1.5,0,0,0-2,.27h0l-.06.06a8.6,8.6,0,0,1-.89.88l-.27.23-.28.21-.42.29-.29.18c-.18.11-.37.2-.56.3l-.34.16-.59.24-.31.1-.51.14-.31.07-.58.1-.26,0c-.28,0-.57,0-.86,0s-.57,0-.86,0l-.26,0-.58-.1-.31-.07L9.6,41l-.31-.1-.61-.24-.31-.14c-.19-.1-.39-.2-.57-.31l-.28-.18-.43-.3-.27-.21-.36-.31-.35-.33-.34-.36-.3-.35-.21-.27c-.1-.14-.2-.28-.29-.42l-.18-.29c-.11-.18-.2-.37-.3-.55l-.16-.34c-.09-.2-.17-.39-.24-.59S4,35.53,4,35.42s-.1-.34-.14-.51l-.07-.31c0-.19-.07-.38-.1-.58s0-.17,0-.26c0-.28,0-.57,0-.86s0-.57,0-.86c0-.09,0-.17,0-.26s.06-.39.1-.58l.07-.31c0-.17.09-.34.14-.51s.06-.21.1-.31.15-.4.24-.59l.16-.34c.09-.19.19-.37.3-.56L5,28.29c.09-.14.19-.29.29-.42l.21-.28.3-.35.34-.36.35-.33.36-.31L7.09,26l.43-.3.28-.18c.19-.11.38-.21.57-.31l.31-.14.61-.24.31-.1.52-.14.31-.07.58-.1.26,0c.28,0,.57,0,.86,0s.57,0,.86,0l.26,0,.58.1.31.07.51.14.31.1.59.24.34.16c.19.09.37.19.56.3l.29.18.42.29.28.21.27.23a8.6,8.6,0,0,1,.89.88l.06.06h0a1.5,1.5,0,0,0,2.1.17h0l19-11.31a1.49,1.49,0,0,0,.92-1.79l0-.07a8.52,8.52,0,1,1,4.67,5.42,1.5,1.5,0,1,0-1.24,2.73,11.49,11.49,0,0,0,8,.58,11.56,11.56,0,1,0-14.53-9L20,24.53l-.11-.1-.38-.35-.24-.19L19,23.63c-.2-.15-.41-.29-.62-.42L18,23c-.26-.16-.53-.3-.81-.43l-.36-.17c-.28-.12-.56-.24-.85-.34l-.42-.13-.69-.19-.43-.1-.77-.13-.36,0a11.44,11.44,0,0,0-1.15-.06h0a11.43,11.43,0,0,0-1.15.06l-.37,0-.76.13-.44.1-.68.19L8.28,22c-.26.09-.52.2-.78.31L7,22.58c-.25.12-.5.26-.75.4l-.38.24-.59.4L5,23.89l-.24.18-.26.24L4,24.76c-.16.16-.31.32-.45.48l-.24.25-.17.23-.28.37c-.14.19-.26.38-.39.57l-.25.4c-.14.24-.26.48-.39.72s-.16.34-.24.51-.22.51-.31.77-.09.29-.14.44-.13.45-.19.67-.07.29-.1.44-.09.51-.13.76,0,.24,0,.37A11.43,11.43,0,0,0,.6,32.89h0a11.43,11.43,0,0,0,.06,1.15c0,.12,0,.24,0,.37s.08.51.13.76.06.29.1.44.12.45.19.67.09.3.14.44.2.51.31.77.16.34.24.51.25.49.39.72l.25.4c.12.19.25.38.39.57l.28.37.17.23.24.25c.15.16.3.33.45.48l.47.44.26.25L5,41.9l.36.27.59.4.38.24c.24.14.49.27.74.4l.48.22c.26.11.52.22.78.31l.44.14.68.19.44.1.76.13.37,0a11.43,11.43,0,0,0,1.15.06h0a11.44,11.44,0,0,0,1.15-.06l.36,0,.77-.13.43-.1.69-.19.42-.13c.29-.1.57-.22.85-.34l.36-.17c.27-.13.54-.28.81-.43l.35-.22c.21-.13.42-.27.62-.42l.33-.26.24-.19c.13-.11.26-.23.38-.35l.13-.12L37.58,51.68a11.52,11.52,0,1,0,14.68-8.75Z"/></svg>